%TF.GenerationSoftware,KiCad,Pcbnew,(5.1.8)-1*%
%TF.CreationDate,2021-03-28T18:03:51+02:00*%
%TF.ProjectId,pfm2_topSurface,70666d32-5f74-46f7-9053-757266616365,rev?*%
%TF.SameCoordinates,Original*%
%TF.FileFunction,Profile,NP*%
%FSLAX46Y46*%
G04 Gerber Fmt 4.6, Leading zero omitted, Abs format (unit mm)*
G04 Created by KiCad (PCBNEW (5.1.8)-1) date 2021-03-28 18:03:51*
%MOMM*%
%LPD*%
G01*
G04 APERTURE LIST*
%TA.AperFunction,Profile*%
%ADD10C,0.050000*%
%TD*%
G04 APERTURE END LIST*
D10*
X40767000Y-161671000D02*
G75*
G02*
X38735000Y-159639000I0J2032000D01*
G01*
X194691000Y-159639000D02*
G75*
G02*
X192659000Y-161671000I-2032000J0D01*
G01*
X192659000Y-64135000D02*
G75*
G02*
X194691000Y-66167000I0J-2032000D01*
G01*
X38735000Y-66167000D02*
G75*
G02*
X40767000Y-64135000I2032000J0D01*
G01*
X164820000Y-120390000D02*
X164820000Y-80230000D01*
X66950000Y-80230000D02*
X164820000Y-80230000D01*
X66950000Y-120390000D02*
X164820000Y-120390000D01*
X66950000Y-120390000D02*
X66950000Y-80230000D01*
X185626093Y-108585000D02*
G75*
G03*
X185626093Y-108585000I-4016093J0D01*
G01*
X168481093Y-150495000D02*
G75*
G03*
X168481093Y-150495000I-4016093J0D01*
G01*
X136731093Y-150495000D02*
G75*
G03*
X136731093Y-150495000I-4016093J0D01*
G01*
X104981093Y-150495000D02*
G75*
G03*
X104981093Y-150495000I-4016093J0D01*
G01*
X73231093Y-150495000D02*
G75*
G03*
X73231093Y-150495000I-4016093J0D01*
G01*
X177165000Y-131191000D02*
X177165000Y-125349000D01*
X177165000Y-125349000D02*
X187325000Y-125349000D01*
X187325000Y-131191000D02*
X177165000Y-131191000D01*
X187325000Y-125349000D02*
X187325000Y-131191000D01*
X187325000Y-143891000D02*
X177165000Y-143891000D01*
X177165000Y-138049000D02*
X187325000Y-138049000D01*
X187325000Y-138049000D02*
X187325000Y-143891000D01*
X177165000Y-143891000D02*
X177165000Y-138049000D01*
X56515000Y-88519000D02*
X56515000Y-94361000D01*
X56515000Y-94361000D02*
X46355000Y-94361000D01*
X46355000Y-94361000D02*
X46355000Y-88519000D01*
X46355000Y-88519000D02*
X56515000Y-88519000D01*
X56515000Y-101219000D02*
X56515000Y-107061000D01*
X46355000Y-107061000D02*
X46355000Y-101219000D01*
X46355000Y-101219000D02*
X56515000Y-101219000D01*
X56515000Y-107061000D02*
X46355000Y-107061000D01*
X46355000Y-119761000D02*
X46355000Y-113919000D01*
X46355000Y-113919000D02*
X56515000Y-113919000D01*
X56515000Y-113919000D02*
X56515000Y-119761000D01*
X56515000Y-119761000D02*
X46355000Y-119761000D01*
X56515000Y-132461000D02*
X46355000Y-132461000D01*
X46355000Y-126619000D02*
X56515000Y-126619000D01*
X56515000Y-126619000D02*
X56515000Y-132461000D01*
X46355000Y-132461000D02*
X46355000Y-126619000D01*
X46355000Y-145161000D02*
X46355000Y-139319000D01*
X56515000Y-145161000D02*
X46355000Y-145161000D01*
X56515000Y-139319000D02*
X56515000Y-145161000D01*
X46355000Y-139319000D02*
X56515000Y-139319000D01*
X180340000Y-68580000D02*
X180340000Y-65405000D01*
X187325000Y-65405000D02*
X187325000Y-68580000D01*
X180340000Y-65405000D02*
X187325000Y-65405000D01*
X187325000Y-68580000D02*
X180340000Y-68580000D01*
X194691000Y-159639000D02*
X194691000Y-117221000D01*
X120396000Y-161671000D02*
X192659000Y-161671000D01*
X38735000Y-159639000D02*
X38735000Y-117221000D01*
X113284000Y-161671000D02*
X40767000Y-161671000D01*
X194691000Y-66167000D02*
X194691000Y-110109000D01*
X38735000Y-66167000D02*
X38735000Y-110109000D01*
X192659000Y-64135000D02*
X40767000Y-64135000D01*
X120396000Y-158496000D02*
X120396000Y-161671000D01*
X113284000Y-161671000D02*
X113284000Y-158496000D01*
X113284000Y-158496000D02*
X120396000Y-158496000D01*
X191516000Y-117221000D02*
X191516000Y-110109000D01*
X191516000Y-110109000D02*
X194691000Y-110109000D01*
X194691000Y-117221000D02*
X191516000Y-117221000D01*
X42164000Y-117221000D02*
X38735000Y-117221000D01*
X38735000Y-110109000D02*
X42164000Y-110109000D01*
X42164000Y-110109000D02*
X42164000Y-117221000D01*
X53340000Y-68580000D02*
X46355000Y-68580000D01*
X53340000Y-65405000D02*
X53340000Y-68580000D01*
X46355000Y-65405000D02*
X53340000Y-65405000D01*
X46355000Y-68580000D02*
X46355000Y-65405000D01*
M02*
