%TF.GenerationSoftware,KiCad,Pcbnew,(5.1.8)-1*%
%TF.CreationDate,2021-03-28T18:03:51+02:00*%
%TF.ProjectId,pfm2_topSurface,70666d32-5f74-46f7-9053-757266616365,rev?*%
%TF.SameCoordinates,Original*%
%TF.FileFunction,Legend,Bot*%
%TF.FilePolarity,Positive*%
%FSLAX46Y46*%
G04 Gerber Fmt 4.6, Leading zero omitted, Abs format (unit mm)*
G04 Created by KiCad (PCBNEW (5.1.8)-1) date 2021-03-28 18:03:51*
%MOMM*%
%LPD*%
G01*
G04 APERTURE LIST*
%ADD10C,0.150000*%
%ADD11C,0.200000*%
%ADD12C,0.010000*%
G04 APERTURE END LIST*
D10*
X121586047Y-156170380D02*
X121586047Y-156884666D01*
X121633666Y-157027523D01*
X121728904Y-157122761D01*
X121871761Y-157170380D01*
X121967000Y-157170380D01*
X120633666Y-157170380D02*
X121109857Y-157170380D01*
X121109857Y-156170380D01*
X119728904Y-157075142D02*
X119776523Y-157122761D01*
X119919380Y-157170380D01*
X120014619Y-157170380D01*
X120157476Y-157122761D01*
X120252714Y-157027523D01*
X120300333Y-156932285D01*
X120347952Y-156741809D01*
X120347952Y-156598952D01*
X120300333Y-156408476D01*
X120252714Y-156313238D01*
X120157476Y-156218000D01*
X120014619Y-156170380D01*
X119919380Y-156170380D01*
X119776523Y-156218000D01*
X119728904Y-156265619D01*
X119014619Y-156170380D02*
X119014619Y-156884666D01*
X119062238Y-157027523D01*
X119157476Y-157122761D01*
X119300333Y-157170380D01*
X119395571Y-157170380D01*
X118062238Y-157170380D02*
X118538428Y-157170380D01*
X118538428Y-156170380D01*
X117157476Y-157075142D02*
X117205095Y-157122761D01*
X117347952Y-157170380D01*
X117443190Y-157170380D01*
X117586047Y-157122761D01*
X117681285Y-157027523D01*
X117728904Y-156932285D01*
X117776523Y-156741809D01*
X117776523Y-156598952D01*
X117728904Y-156408476D01*
X117681285Y-156313238D01*
X117586047Y-156218000D01*
X117443190Y-156170380D01*
X117347952Y-156170380D01*
X117205095Y-156218000D01*
X117157476Y-156265619D01*
X116443190Y-156170380D02*
X116443190Y-156884666D01*
X116490809Y-157027523D01*
X116586047Y-157122761D01*
X116728904Y-157170380D01*
X116824142Y-157170380D01*
X115490809Y-157170380D02*
X115967000Y-157170380D01*
X115967000Y-156170380D01*
X114586047Y-157075142D02*
X114633666Y-157122761D01*
X114776523Y-157170380D01*
X114871761Y-157170380D01*
X115014619Y-157122761D01*
X115109857Y-157027523D01*
X115157476Y-156932285D01*
X115205095Y-156741809D01*
X115205095Y-156598952D01*
X115157476Y-156408476D01*
X115109857Y-156313238D01*
X115014619Y-156218000D01*
X114871761Y-156170380D01*
X114776523Y-156170380D01*
X114633666Y-156218000D01*
X114586047Y-156265619D01*
X113871761Y-156170380D02*
X113871761Y-156884666D01*
X113919380Y-157027523D01*
X114014619Y-157122761D01*
X114157476Y-157170380D01*
X114252714Y-157170380D01*
X112919380Y-157170380D02*
X113395571Y-157170380D01*
X113395571Y-156170380D01*
X112014619Y-157075142D02*
X112062238Y-157122761D01*
X112205095Y-157170380D01*
X112300333Y-157170380D01*
X112443190Y-157122761D01*
X112538428Y-157027523D01*
X112586047Y-156932285D01*
X112633666Y-156741809D01*
X112633666Y-156598952D01*
X112586047Y-156408476D01*
X112538428Y-156313238D01*
X112443190Y-156218000D01*
X112300333Y-156170380D01*
X112205095Y-156170380D01*
X112062238Y-156218000D01*
X112014619Y-156265619D01*
D11*
X147363809Y-78184428D02*
X147363809Y-80184428D01*
X147363809Y-78279666D02*
X147173333Y-78184428D01*
X146792380Y-78184428D01*
X146601904Y-78279666D01*
X146506666Y-78374904D01*
X146411428Y-78565380D01*
X146411428Y-79136809D01*
X146506666Y-79327285D01*
X146601904Y-79422523D01*
X146792380Y-79517761D01*
X147173333Y-79517761D01*
X147363809Y-79422523D01*
X145554285Y-79517761D02*
X145554285Y-78184428D01*
X145554285Y-78565380D02*
X145459047Y-78374904D01*
X145363809Y-78279666D01*
X145173333Y-78184428D01*
X144982857Y-78184428D01*
X143554285Y-79422523D02*
X143744761Y-79517761D01*
X144125714Y-79517761D01*
X144316190Y-79422523D01*
X144411428Y-79232047D01*
X144411428Y-78470142D01*
X144316190Y-78279666D01*
X144125714Y-78184428D01*
X143744761Y-78184428D01*
X143554285Y-78279666D01*
X143459047Y-78470142D01*
X143459047Y-78660619D01*
X144411428Y-78851095D01*
X141840000Y-79422523D02*
X142030476Y-79517761D01*
X142411428Y-79517761D01*
X142601904Y-79422523D01*
X142697142Y-79232047D01*
X142697142Y-78470142D01*
X142601904Y-78279666D01*
X142411428Y-78184428D01*
X142030476Y-78184428D01*
X141840000Y-78279666D01*
X141744761Y-78470142D01*
X141744761Y-78660619D01*
X142697142Y-78851095D01*
X140887619Y-78184428D02*
X140887619Y-79517761D01*
X140887619Y-78374904D02*
X140792380Y-78279666D01*
X140601904Y-78184428D01*
X140316190Y-78184428D01*
X140125714Y-78279666D01*
X140030476Y-78470142D01*
X140030476Y-79517761D01*
X139363809Y-78184428D02*
X138601904Y-78184428D01*
X139078095Y-79517761D02*
X139078095Y-77803476D01*
X138982857Y-77613000D01*
X138792380Y-77517761D01*
X138601904Y-77517761D01*
X137935238Y-79517761D02*
X137935238Y-78184428D01*
X137935238Y-78374904D02*
X137840000Y-78279666D01*
X137649523Y-78184428D01*
X137363809Y-78184428D01*
X137173333Y-78279666D01*
X137078095Y-78470142D01*
X137078095Y-79517761D01*
X137078095Y-78470142D02*
X136982857Y-78279666D01*
X136792380Y-78184428D01*
X136506666Y-78184428D01*
X136316190Y-78279666D01*
X136220952Y-78470142D01*
X136220952Y-79517761D01*
X135363809Y-77708238D02*
X135268571Y-77613000D01*
X135078095Y-77517761D01*
X134601904Y-77517761D01*
X134411428Y-77613000D01*
X134316190Y-77708238D01*
X134220952Y-77898714D01*
X134220952Y-78089190D01*
X134316190Y-78374904D01*
X135459047Y-79517761D01*
X134220952Y-79517761D01*
X131840000Y-78755857D02*
X130316190Y-78755857D01*
X127935238Y-79422523D02*
X127744761Y-79517761D01*
X127363809Y-79517761D01*
X127173333Y-79422523D01*
X127078095Y-79232047D01*
X127078095Y-79136809D01*
X127173333Y-78946333D01*
X127363809Y-78851095D01*
X127649523Y-78851095D01*
X127840000Y-78755857D01*
X127935238Y-78565380D01*
X127935238Y-78470142D01*
X127840000Y-78279666D01*
X127649523Y-78184428D01*
X127363809Y-78184428D01*
X127173333Y-78279666D01*
X125363809Y-78184428D02*
X125363809Y-79517761D01*
X126220952Y-78184428D02*
X126220952Y-79232047D01*
X126125714Y-79422523D01*
X125935238Y-79517761D01*
X125649523Y-79517761D01*
X125459047Y-79422523D01*
X125363809Y-79327285D01*
X124411428Y-79517761D02*
X124411428Y-78184428D01*
X124411428Y-78565380D02*
X124316190Y-78374904D01*
X124220952Y-78279666D01*
X124030476Y-78184428D01*
X123840000Y-78184428D01*
X123459047Y-78184428D02*
X122697142Y-78184428D01*
X123173333Y-79517761D02*
X123173333Y-77803476D01*
X123078095Y-77613000D01*
X122887619Y-77517761D01*
X122697142Y-77517761D01*
X121173333Y-79517761D02*
X121173333Y-78470142D01*
X121268571Y-78279666D01*
X121459047Y-78184428D01*
X121840000Y-78184428D01*
X122030476Y-78279666D01*
X121173333Y-79422523D02*
X121363809Y-79517761D01*
X121840000Y-79517761D01*
X122030476Y-79422523D01*
X122125714Y-79232047D01*
X122125714Y-79041571D01*
X122030476Y-78851095D01*
X121840000Y-78755857D01*
X121363809Y-78755857D01*
X121173333Y-78660619D01*
X119363809Y-79422523D02*
X119554285Y-79517761D01*
X119935238Y-79517761D01*
X120125714Y-79422523D01*
X120220952Y-79327285D01*
X120316190Y-79136809D01*
X120316190Y-78565380D01*
X120220952Y-78374904D01*
X120125714Y-78279666D01*
X119935238Y-78184428D01*
X119554285Y-78184428D01*
X119363809Y-78279666D01*
X117744761Y-79422523D02*
X117935238Y-79517761D01*
X118316190Y-79517761D01*
X118506666Y-79422523D01*
X118601904Y-79232047D01*
X118601904Y-78470142D01*
X118506666Y-78279666D01*
X118316190Y-78184428D01*
X117935238Y-78184428D01*
X117744761Y-78279666D01*
X117649523Y-78470142D01*
X117649523Y-78660619D01*
X118601904Y-78851095D01*
X114411428Y-79422523D02*
X114601904Y-79517761D01*
X114982857Y-79517761D01*
X115173333Y-79422523D01*
X115268571Y-79327285D01*
X115363809Y-79136809D01*
X115363809Y-78565380D01*
X115268571Y-78374904D01*
X115173333Y-78279666D01*
X114982857Y-78184428D01*
X114601904Y-78184428D01*
X114411428Y-78279666D01*
X113268571Y-79517761D02*
X113459047Y-79422523D01*
X113554285Y-79327285D01*
X113649523Y-79136809D01*
X113649523Y-78565380D01*
X113554285Y-78374904D01*
X113459047Y-78279666D01*
X113268571Y-78184428D01*
X112982857Y-78184428D01*
X112792380Y-78279666D01*
X112697142Y-78374904D01*
X112601904Y-78565380D01*
X112601904Y-79136809D01*
X112697142Y-79327285D01*
X112792380Y-79422523D01*
X112982857Y-79517761D01*
X113268571Y-79517761D01*
X111744761Y-78184428D02*
X111744761Y-79517761D01*
X111744761Y-78374904D02*
X111649523Y-78279666D01*
X111459047Y-78184428D01*
X111173333Y-78184428D01*
X110982857Y-78279666D01*
X110887619Y-78470142D01*
X110887619Y-79517761D01*
X110220952Y-78184428D02*
X109459047Y-78184428D01*
X109935238Y-77517761D02*
X109935238Y-79232047D01*
X109840000Y-79422523D01*
X109649523Y-79517761D01*
X109459047Y-79517761D01*
X108792380Y-79517761D02*
X108792380Y-78184428D01*
X108792380Y-78565380D02*
X108697142Y-78374904D01*
X108601904Y-78279666D01*
X108411428Y-78184428D01*
X108220952Y-78184428D01*
X107268571Y-79517761D02*
X107459047Y-79422523D01*
X107554285Y-79327285D01*
X107649523Y-79136809D01*
X107649523Y-78565380D01*
X107554285Y-78374904D01*
X107459047Y-78279666D01*
X107268571Y-78184428D01*
X106982857Y-78184428D01*
X106792380Y-78279666D01*
X106697142Y-78374904D01*
X106601904Y-78565380D01*
X106601904Y-79136809D01*
X106697142Y-79327285D01*
X106792380Y-79422523D01*
X106982857Y-79517761D01*
X107268571Y-79517761D01*
X105459047Y-79517761D02*
X105649523Y-79422523D01*
X105744761Y-79232047D01*
X105744761Y-77517761D01*
X103173333Y-79517761D02*
X103173333Y-77517761D01*
X102411428Y-77517761D01*
X102220952Y-77613000D01*
X102125714Y-77708238D01*
X102030476Y-77898714D01*
X102030476Y-78184428D01*
X102125714Y-78374904D01*
X102220952Y-78470142D01*
X102411428Y-78565380D01*
X103173333Y-78565380D01*
X100030476Y-79327285D02*
X100125714Y-79422523D01*
X100411428Y-79517761D01*
X100601904Y-79517761D01*
X100887619Y-79422523D01*
X101078095Y-79232047D01*
X101173333Y-79041571D01*
X101268571Y-78660619D01*
X101268571Y-78374904D01*
X101173333Y-77993952D01*
X101078095Y-77803476D01*
X100887619Y-77613000D01*
X100601904Y-77517761D01*
X100411428Y-77517761D01*
X100125714Y-77613000D01*
X100030476Y-77708238D01*
X98506666Y-78470142D02*
X98220952Y-78565380D01*
X98125714Y-78660619D01*
X98030476Y-78851095D01*
X98030476Y-79136809D01*
X98125714Y-79327285D01*
X98220952Y-79422523D01*
X98411428Y-79517761D01*
X99173333Y-79517761D01*
X99173333Y-77517761D01*
X98506666Y-77517761D01*
X98316190Y-77613000D01*
X98220952Y-77708238D01*
X98125714Y-77898714D01*
X98125714Y-78089190D01*
X98220952Y-78279666D01*
X98316190Y-78374904D01*
X98506666Y-78470142D01*
X99173333Y-78470142D01*
X95649523Y-78755857D02*
X94125714Y-78755857D01*
X91840000Y-78184428D02*
X91363809Y-79517761D01*
X90887619Y-78184428D01*
X89078095Y-79517761D02*
X90220952Y-79517761D01*
X89649523Y-79517761D02*
X89649523Y-77517761D01*
X89840000Y-77803476D01*
X90030476Y-77993952D01*
X90220952Y-78089190D01*
X88220952Y-79327285D02*
X88125714Y-79422523D01*
X88220952Y-79517761D01*
X88316190Y-79422523D01*
X88220952Y-79327285D01*
X88220952Y-79517761D01*
X86887619Y-77517761D02*
X86697142Y-77517761D01*
X86506666Y-77613000D01*
X86411428Y-77708238D01*
X86316190Y-77898714D01*
X86220952Y-78279666D01*
X86220952Y-78755857D01*
X86316190Y-79136809D01*
X86411428Y-79327285D01*
X86506666Y-79422523D01*
X86697142Y-79517761D01*
X86887619Y-79517761D01*
X87078095Y-79422523D01*
X87173333Y-79327285D01*
X87268571Y-79136809D01*
X87363809Y-78755857D01*
X87363809Y-78279666D01*
X87268571Y-77898714D01*
X87173333Y-77708238D01*
X87078095Y-77613000D01*
X86887619Y-77517761D01*
D12*
%TO.C,G\u002A\u002A\u002A*%
G36*
X116652069Y-130294353D02*
G01*
X116492459Y-130296681D01*
X116353234Y-130301512D01*
X116226455Y-130309400D01*
X116104186Y-130320897D01*
X115978489Y-130336555D01*
X115841426Y-130356927D01*
X115769571Y-130368493D01*
X115300361Y-130463553D01*
X114842126Y-130592512D01*
X114396500Y-130754203D01*
X113965122Y-130947461D01*
X113549628Y-131171118D01*
X113151655Y-131424010D01*
X112772839Y-131704971D01*
X112414817Y-132012835D01*
X112079226Y-132346435D01*
X111767703Y-132704607D01*
X111481885Y-133086184D01*
X111223407Y-133490000D01*
X111112649Y-133685643D01*
X110898879Y-134116481D01*
X110718800Y-134559179D01*
X110572543Y-135011801D01*
X110460238Y-135472414D01*
X110382016Y-135939082D01*
X110338007Y-136409870D01*
X110328342Y-136882845D01*
X110353150Y-137356070D01*
X110412562Y-137827611D01*
X110506708Y-138295534D01*
X110635719Y-138757903D01*
X110749079Y-139083143D01*
X110802575Y-139215478D01*
X110869941Y-139368123D01*
X110947134Y-139532972D01*
X111030114Y-139701921D01*
X111114838Y-139866864D01*
X111197264Y-140019697D01*
X111273350Y-140152314D01*
X111319373Y-140226761D01*
X111586797Y-140615749D01*
X111868617Y-140973910D01*
X112168165Y-141304973D01*
X112488770Y-141612667D01*
X112766928Y-141847926D01*
X113159699Y-142139402D01*
X113568708Y-142398469D01*
X113993491Y-142624931D01*
X114433585Y-142818592D01*
X114888527Y-142979258D01*
X115357854Y-143106733D01*
X115841102Y-143200822D01*
X116041714Y-143229518D01*
X116146212Y-143240066D01*
X116279097Y-143249085D01*
X116432497Y-143256422D01*
X116598540Y-143261924D01*
X116769354Y-143265440D01*
X116937066Y-143266816D01*
X117093805Y-143265901D01*
X117231697Y-143262541D01*
X117342870Y-143256584D01*
X117361074Y-143255079D01*
X117845587Y-143193996D01*
X118321146Y-143098202D01*
X118786167Y-142968336D01*
X119239061Y-142805035D01*
X119678243Y-142608937D01*
X120102124Y-142380677D01*
X120509119Y-142120894D01*
X120885857Y-141839720D01*
X121252373Y-141522078D01*
X121592616Y-141179813D01*
X121905549Y-140814209D01*
X122190137Y-140426548D01*
X122445347Y-140018113D01*
X122623034Y-139686570D01*
X122817265Y-139265317D01*
X122977626Y-138846168D01*
X123105698Y-138423486D01*
X123203064Y-137991634D01*
X123271303Y-137544976D01*
X123297784Y-137281476D01*
X123318125Y-136818067D01*
X123311129Y-136597082D01*
X122569131Y-136597082D01*
X122566028Y-137047496D01*
X122528193Y-137497847D01*
X122455359Y-137945658D01*
X122452883Y-137957800D01*
X122346215Y-138388206D01*
X122205147Y-138809356D01*
X122030873Y-139219052D01*
X121824585Y-139615097D01*
X121587476Y-139995293D01*
X121320740Y-140357443D01*
X121025569Y-140699350D01*
X120886329Y-140843473D01*
X120548254Y-141156459D01*
X120190905Y-141438862D01*
X119815199Y-141690249D01*
X119422052Y-141910188D01*
X119012378Y-142098247D01*
X118587093Y-142253993D01*
X118147113Y-142376993D01*
X117693354Y-142466815D01*
X117355655Y-142511009D01*
X117244030Y-142519028D01*
X117104305Y-142523585D01*
X116944481Y-142524887D01*
X116772557Y-142523141D01*
X116596532Y-142518553D01*
X116424408Y-142511330D01*
X116264183Y-142501679D01*
X116123859Y-142489805D01*
X116014499Y-142476386D01*
X115552736Y-142388581D01*
X115106951Y-142268433D01*
X114677661Y-142116201D01*
X114265384Y-141932144D01*
X113870636Y-141716521D01*
X113493936Y-141469591D01*
X113135799Y-141191614D01*
X112796744Y-140882848D01*
X112757513Y-140843888D01*
X112448209Y-140509052D01*
X112167612Y-140153877D01*
X111916763Y-139780281D01*
X111696699Y-139390179D01*
X111508461Y-138985489D01*
X111353088Y-138568126D01*
X111231619Y-138140008D01*
X111190193Y-137953695D01*
X111158533Y-137793745D01*
X111133505Y-137653672D01*
X111114364Y-137525477D01*
X111100367Y-137401160D01*
X111090769Y-137272724D01*
X111084828Y-137132170D01*
X111081798Y-136971499D01*
X111080937Y-136782712D01*
X111080936Y-136779000D01*
X111081549Y-136602702D01*
X111083558Y-136456800D01*
X111087219Y-136335421D01*
X111092786Y-136232694D01*
X111100516Y-136142746D01*
X111110663Y-136059705D01*
X111112886Y-136044214D01*
X111175481Y-135677109D01*
X111252657Y-135335685D01*
X111347031Y-135011366D01*
X111461221Y-134695576D01*
X111597843Y-134379738D01*
X111661033Y-134248072D01*
X111785578Y-134006372D01*
X111910534Y-133787739D01*
X112043540Y-133579683D01*
X112192235Y-133369712D01*
X112225076Y-133325659D01*
X112511869Y-132973601D01*
X112822833Y-132647753D01*
X113156172Y-132349011D01*
X113510091Y-132078273D01*
X113882795Y-131836437D01*
X114272488Y-131624400D01*
X114677373Y-131443060D01*
X115095656Y-131293315D01*
X115525540Y-131176061D01*
X115965231Y-131092197D01*
X116412932Y-131042619D01*
X116821857Y-131028057D01*
X117273336Y-131045752D01*
X117717609Y-131098235D01*
X118153023Y-131184435D01*
X118577927Y-131303281D01*
X118990668Y-131453704D01*
X119389594Y-131634632D01*
X119773053Y-131844995D01*
X120139394Y-132083722D01*
X120486963Y-132349744D01*
X120814110Y-132641989D01*
X121119182Y-132959388D01*
X121400527Y-133300868D01*
X121656493Y-133665361D01*
X121885428Y-134051795D01*
X122072997Y-134430747D01*
X122239554Y-134844327D01*
X122372713Y-135270227D01*
X122472207Y-135705971D01*
X122537768Y-136149081D01*
X122569131Y-136597082D01*
X123311129Y-136597082D01*
X123303373Y-136352138D01*
X123254302Y-135886679D01*
X123171683Y-135424683D01*
X123056288Y-134969138D01*
X122908891Y-134523036D01*
X122730262Y-134089368D01*
X122521176Y-133671124D01*
X122282404Y-133271295D01*
X122248966Y-133220439D01*
X121981689Y-132843790D01*
X121699876Y-132497237D01*
X121399224Y-132176061D01*
X121075434Y-131875545D01*
X120858642Y-131695511D01*
X120468775Y-131407944D01*
X120060415Y-131151354D01*
X119635021Y-130926407D01*
X119194053Y-130733773D01*
X118738971Y-130574120D01*
X118271234Y-130448116D01*
X118019285Y-130395317D01*
X117853235Y-130365220D01*
X117703957Y-130341537D01*
X117563125Y-130323551D01*
X117422415Y-130310547D01*
X117273500Y-130301809D01*
X117108054Y-130296622D01*
X116917752Y-130294270D01*
X116840000Y-130293977D01*
X116652069Y-130294353D01*
G37*
X116652069Y-130294353D02*
X116492459Y-130296681D01*
X116353234Y-130301512D01*
X116226455Y-130309400D01*
X116104186Y-130320897D01*
X115978489Y-130336555D01*
X115841426Y-130356927D01*
X115769571Y-130368493D01*
X115300361Y-130463553D01*
X114842126Y-130592512D01*
X114396500Y-130754203D01*
X113965122Y-130947461D01*
X113549628Y-131171118D01*
X113151655Y-131424010D01*
X112772839Y-131704971D01*
X112414817Y-132012835D01*
X112079226Y-132346435D01*
X111767703Y-132704607D01*
X111481885Y-133086184D01*
X111223407Y-133490000D01*
X111112649Y-133685643D01*
X110898879Y-134116481D01*
X110718800Y-134559179D01*
X110572543Y-135011801D01*
X110460238Y-135472414D01*
X110382016Y-135939082D01*
X110338007Y-136409870D01*
X110328342Y-136882845D01*
X110353150Y-137356070D01*
X110412562Y-137827611D01*
X110506708Y-138295534D01*
X110635719Y-138757903D01*
X110749079Y-139083143D01*
X110802575Y-139215478D01*
X110869941Y-139368123D01*
X110947134Y-139532972D01*
X111030114Y-139701921D01*
X111114838Y-139866864D01*
X111197264Y-140019697D01*
X111273350Y-140152314D01*
X111319373Y-140226761D01*
X111586797Y-140615749D01*
X111868617Y-140973910D01*
X112168165Y-141304973D01*
X112488770Y-141612667D01*
X112766928Y-141847926D01*
X113159699Y-142139402D01*
X113568708Y-142398469D01*
X113993491Y-142624931D01*
X114433585Y-142818592D01*
X114888527Y-142979258D01*
X115357854Y-143106733D01*
X115841102Y-143200822D01*
X116041714Y-143229518D01*
X116146212Y-143240066D01*
X116279097Y-143249085D01*
X116432497Y-143256422D01*
X116598540Y-143261924D01*
X116769354Y-143265440D01*
X116937066Y-143266816D01*
X117093805Y-143265901D01*
X117231697Y-143262541D01*
X117342870Y-143256584D01*
X117361074Y-143255079D01*
X117845587Y-143193996D01*
X118321146Y-143098202D01*
X118786167Y-142968336D01*
X119239061Y-142805035D01*
X119678243Y-142608937D01*
X120102124Y-142380677D01*
X120509119Y-142120894D01*
X120885857Y-141839720D01*
X121252373Y-141522078D01*
X121592616Y-141179813D01*
X121905549Y-140814209D01*
X122190137Y-140426548D01*
X122445347Y-140018113D01*
X122623034Y-139686570D01*
X122817265Y-139265317D01*
X122977626Y-138846168D01*
X123105698Y-138423486D01*
X123203064Y-137991634D01*
X123271303Y-137544976D01*
X123297784Y-137281476D01*
X123318125Y-136818067D01*
X123311129Y-136597082D01*
X122569131Y-136597082D01*
X122566028Y-137047496D01*
X122528193Y-137497847D01*
X122455359Y-137945658D01*
X122452883Y-137957800D01*
X122346215Y-138388206D01*
X122205147Y-138809356D01*
X122030873Y-139219052D01*
X121824585Y-139615097D01*
X121587476Y-139995293D01*
X121320740Y-140357443D01*
X121025569Y-140699350D01*
X120886329Y-140843473D01*
X120548254Y-141156459D01*
X120190905Y-141438862D01*
X119815199Y-141690249D01*
X119422052Y-141910188D01*
X119012378Y-142098247D01*
X118587093Y-142253993D01*
X118147113Y-142376993D01*
X117693354Y-142466815D01*
X117355655Y-142511009D01*
X117244030Y-142519028D01*
X117104305Y-142523585D01*
X116944481Y-142524887D01*
X116772557Y-142523141D01*
X116596532Y-142518553D01*
X116424408Y-142511330D01*
X116264183Y-142501679D01*
X116123859Y-142489805D01*
X116014499Y-142476386D01*
X115552736Y-142388581D01*
X115106951Y-142268433D01*
X114677661Y-142116201D01*
X114265384Y-141932144D01*
X113870636Y-141716521D01*
X113493936Y-141469591D01*
X113135799Y-141191614D01*
X112796744Y-140882848D01*
X112757513Y-140843888D01*
X112448209Y-140509052D01*
X112167612Y-140153877D01*
X111916763Y-139780281D01*
X111696699Y-139390179D01*
X111508461Y-138985489D01*
X111353088Y-138568126D01*
X111231619Y-138140008D01*
X111190193Y-137953695D01*
X111158533Y-137793745D01*
X111133505Y-137653672D01*
X111114364Y-137525477D01*
X111100367Y-137401160D01*
X111090769Y-137272724D01*
X111084828Y-137132170D01*
X111081798Y-136971499D01*
X111080937Y-136782712D01*
X111080936Y-136779000D01*
X111081549Y-136602702D01*
X111083558Y-136456800D01*
X111087219Y-136335421D01*
X111092786Y-136232694D01*
X111100516Y-136142746D01*
X111110663Y-136059705D01*
X111112886Y-136044214D01*
X111175481Y-135677109D01*
X111252657Y-135335685D01*
X111347031Y-135011366D01*
X111461221Y-134695576D01*
X111597843Y-134379738D01*
X111661033Y-134248072D01*
X111785578Y-134006372D01*
X111910534Y-133787739D01*
X112043540Y-133579683D01*
X112192235Y-133369712D01*
X112225076Y-133325659D01*
X112511869Y-132973601D01*
X112822833Y-132647753D01*
X113156172Y-132349011D01*
X113510091Y-132078273D01*
X113882795Y-131836437D01*
X114272488Y-131624400D01*
X114677373Y-131443060D01*
X115095656Y-131293315D01*
X115525540Y-131176061D01*
X115965231Y-131092197D01*
X116412932Y-131042619D01*
X116821857Y-131028057D01*
X117273336Y-131045752D01*
X117717609Y-131098235D01*
X118153023Y-131184435D01*
X118577927Y-131303281D01*
X118990668Y-131453704D01*
X119389594Y-131634632D01*
X119773053Y-131844995D01*
X120139394Y-132083722D01*
X120486963Y-132349744D01*
X120814110Y-132641989D01*
X121119182Y-132959388D01*
X121400527Y-133300868D01*
X121656493Y-133665361D01*
X121885428Y-134051795D01*
X122072997Y-134430747D01*
X122239554Y-134844327D01*
X122372713Y-135270227D01*
X122472207Y-135705971D01*
X122537768Y-136149081D01*
X122569131Y-136597082D01*
X123311129Y-136597082D01*
X123303373Y-136352138D01*
X123254302Y-135886679D01*
X123171683Y-135424683D01*
X123056288Y-134969138D01*
X122908891Y-134523036D01*
X122730262Y-134089368D01*
X122521176Y-133671124D01*
X122282404Y-133271295D01*
X122248966Y-133220439D01*
X121981689Y-132843790D01*
X121699876Y-132497237D01*
X121399224Y-132176061D01*
X121075434Y-131875545D01*
X120858642Y-131695511D01*
X120468775Y-131407944D01*
X120060415Y-131151354D01*
X119635021Y-130926407D01*
X119194053Y-130733773D01*
X118738971Y-130574120D01*
X118271234Y-130448116D01*
X118019285Y-130395317D01*
X117853235Y-130365220D01*
X117703957Y-130341537D01*
X117563125Y-130323551D01*
X117422415Y-130310547D01*
X117273500Y-130301809D01*
X117108054Y-130296622D01*
X116917752Y-130294270D01*
X116840000Y-130293977D01*
X116652069Y-130294353D01*
G36*
X119178367Y-132765513D02*
G01*
X119085007Y-132802250D01*
X119010571Y-132856089D01*
X119004401Y-132862533D01*
X118981400Y-132888545D01*
X118962394Y-132914306D01*
X118947002Y-132943400D01*
X118934844Y-132979409D01*
X118925539Y-133025915D01*
X118918705Y-133086501D01*
X118913963Y-133164750D01*
X118910931Y-133264245D01*
X118909228Y-133388568D01*
X118908474Y-133541302D01*
X118908288Y-133726030D01*
X118908285Y-133766703D01*
X118908285Y-134493000D01*
X114735428Y-134493000D01*
X114735428Y-133766703D01*
X114735309Y-133575217D01*
X114734697Y-133416434D01*
X114733213Y-133286771D01*
X114730474Y-133182646D01*
X114726101Y-133100475D01*
X114719712Y-133036677D01*
X114710926Y-132987668D01*
X114699363Y-132949866D01*
X114684642Y-132919688D01*
X114666381Y-132893551D01*
X114644201Y-132867873D01*
X114639312Y-132862533D01*
X114565508Y-132805684D01*
X114472820Y-132768292D01*
X114372803Y-132752628D01*
X114277015Y-132760959D01*
X114221991Y-132780571D01*
X114135720Y-132838171D01*
X114062117Y-132913297D01*
X114030773Y-132959929D01*
X114023166Y-132977158D01*
X114016856Y-133001138D01*
X114011689Y-133035327D01*
X114007509Y-133083182D01*
X114004161Y-133148160D01*
X114001489Y-133233721D01*
X113999340Y-133343321D01*
X113997557Y-133480417D01*
X113995985Y-133648468D01*
X113995167Y-133753679D01*
X113989692Y-134493000D01*
X112812285Y-134493000D01*
X112812285Y-135634078D01*
X112812469Y-135893077D01*
X112813116Y-136119106D01*
X112814368Y-136315477D01*
X112816369Y-136485503D01*
X112819261Y-136632498D01*
X112823186Y-136759775D01*
X112828289Y-136870647D01*
X112834710Y-136968428D01*
X112842594Y-137056431D01*
X112852083Y-137137969D01*
X112863320Y-137216356D01*
X112876447Y-137294904D01*
X112886135Y-137348008D01*
X112970936Y-137703806D01*
X113089298Y-138049380D01*
X113239369Y-138382418D01*
X113419294Y-138700608D01*
X113627224Y-139001638D01*
X113861304Y-139283195D01*
X114119683Y-139542968D01*
X114400508Y-139778644D01*
X114701928Y-139987912D01*
X115022089Y-140168459D01*
X115219741Y-140260884D01*
X115573975Y-140394546D01*
X115942405Y-140494940D01*
X116236290Y-140549584D01*
X116449928Y-140581590D01*
X116459000Y-141106902D01*
X116461962Y-141267435D01*
X116465184Y-141396026D01*
X116469386Y-141497017D01*
X116475288Y-141574748D01*
X116483613Y-141633562D01*
X116495079Y-141677799D01*
X116510409Y-141711800D01*
X116530322Y-141739906D01*
X116555539Y-141766459D01*
X116570916Y-141781027D01*
X116650720Y-141834224D01*
X116747439Y-141866796D01*
X116848352Y-141876183D01*
X116940737Y-141859826D01*
X116948314Y-141856958D01*
X117022781Y-141815404D01*
X117092370Y-141756607D01*
X117142256Y-141693203D01*
X117143911Y-141690241D01*
X117153346Y-141669075D01*
X117160959Y-141640943D01*
X117167048Y-141601588D01*
X117171910Y-141546756D01*
X117175843Y-141472190D01*
X117179145Y-141373636D01*
X117182113Y-141246839D01*
X117184714Y-141106854D01*
X117193785Y-140581494D01*
X117393357Y-140551235D01*
X117766970Y-140476962D01*
X118127234Y-140370299D01*
X118472458Y-140232766D01*
X118800951Y-140065880D01*
X119111022Y-139871160D01*
X119400978Y-139650124D01*
X119669129Y-139404289D01*
X119913784Y-139135175D01*
X120133250Y-138844298D01*
X120325837Y-138533178D01*
X120489853Y-138203332D01*
X120623606Y-137856278D01*
X120704714Y-137579050D01*
X120725673Y-137496065D01*
X120743874Y-137421689D01*
X120759527Y-137352743D01*
X120772845Y-137286049D01*
X120784040Y-137218427D01*
X120792299Y-137154611D01*
X119361458Y-137154611D01*
X119359346Y-137201932D01*
X119350416Y-137246419D01*
X119331580Y-137295293D01*
X119299752Y-137355776D01*
X119251841Y-137435087D01*
X119219943Y-137485547D01*
X119048428Y-137735268D01*
X118875089Y-137948957D01*
X118699543Y-138126840D01*
X118521409Y-138269141D01*
X118340304Y-138376086D01*
X118155848Y-138447899D01*
X117967657Y-138484806D01*
X117775349Y-138487032D01*
X117578544Y-138454802D01*
X117576451Y-138454282D01*
X117454980Y-138413670D01*
X117319562Y-138350782D01*
X117180044Y-138270734D01*
X117046655Y-138178932D01*
X116999948Y-138140275D01*
X116932086Y-138079398D01*
X116847129Y-138000174D01*
X116749137Y-137906476D01*
X116642170Y-137802178D01*
X116530289Y-137691154D01*
X116440857Y-137600991D01*
X116291256Y-137450312D01*
X116163149Y-137324289D01*
X116053769Y-137220591D01*
X115960353Y-137136888D01*
X115880136Y-137070849D01*
X115810353Y-137020144D01*
X115748241Y-136982443D01*
X115691034Y-136955415D01*
X115662542Y-136944883D01*
X115569050Y-136925739D01*
X115475578Y-136932726D01*
X115379479Y-136967251D01*
X115278102Y-137030716D01*
X115168797Y-137124528D01*
X115048915Y-137250091D01*
X115016173Y-137287546D01*
X114944070Y-137368875D01*
X114887604Y-137426149D01*
X114840935Y-137464563D01*
X114798224Y-137489311D01*
X114781441Y-137496357D01*
X114673401Y-137520073D01*
X114568125Y-137511539D01*
X114471434Y-137474378D01*
X114389152Y-137412210D01*
X114327099Y-137328655D01*
X114291100Y-137227334D01*
X114285708Y-137188056D01*
X114287346Y-137110554D01*
X114307236Y-137033262D01*
X114348089Y-136950715D01*
X114412610Y-136857448D01*
X114503508Y-136747996D01*
X114504046Y-136747385D01*
X114673123Y-136571185D01*
X114840497Y-136429685D01*
X115008542Y-136321531D01*
X115179631Y-136245366D01*
X115356138Y-136199834D01*
X115488357Y-136185236D01*
X115663173Y-136189026D01*
X115832170Y-136220582D01*
X116000820Y-136281633D01*
X116174599Y-136373912D01*
X116261321Y-136429725D01*
X116356018Y-136497779D01*
X116455126Y-136577311D01*
X116562325Y-136671686D01*
X116681296Y-136784271D01*
X116815717Y-136918430D01*
X116967000Y-137075145D01*
X117113626Y-137227537D01*
X117239722Y-137354681D01*
X117348218Y-137459010D01*
X117442042Y-137542957D01*
X117524124Y-137608955D01*
X117597394Y-137659438D01*
X117664781Y-137696840D01*
X117729214Y-137723593D01*
X117759068Y-137733111D01*
X117848734Y-137747647D01*
X117938899Y-137738010D01*
X118031330Y-137702830D01*
X118127792Y-137640735D01*
X118230052Y-137550354D01*
X118339875Y-137430314D01*
X118459028Y-137279246D01*
X118589277Y-137095777D01*
X118599857Y-137080209D01*
X118673815Y-136975670D01*
X118736462Y-136899055D01*
X118792874Y-136845909D01*
X118848125Y-136811780D01*
X118907291Y-136792215D01*
X118933583Y-136787411D01*
X119042257Y-136788159D01*
X119143629Y-136820237D01*
X119231965Y-136878723D01*
X119301527Y-136958694D01*
X119346582Y-137055230D01*
X119361458Y-137154611D01*
X120792299Y-137154611D01*
X120793323Y-137146699D01*
X120800906Y-137067686D01*
X120807001Y-136978210D01*
X120811819Y-136875091D01*
X120815572Y-136755152D01*
X120818473Y-136615212D01*
X120820732Y-136452095D01*
X120822561Y-136262619D01*
X120824173Y-136043608D01*
X120825778Y-135791882D01*
X120825986Y-135758464D01*
X120833850Y-134493000D01*
X119652142Y-134493000D01*
X119652142Y-133813536D01*
X119651566Y-133617882D01*
X119649876Y-133446172D01*
X119647136Y-133300792D01*
X119643407Y-133184125D01*
X119638750Y-133098555D01*
X119633227Y-133046467D01*
X119632189Y-133041034D01*
X119592845Y-132938083D01*
X119526248Y-132852967D01*
X119438674Y-132790791D01*
X119336397Y-132756657D01*
X119276401Y-132751684D01*
X119178367Y-132765513D01*
G37*
X119178367Y-132765513D02*
X119085007Y-132802250D01*
X119010571Y-132856089D01*
X119004401Y-132862533D01*
X118981400Y-132888545D01*
X118962394Y-132914306D01*
X118947002Y-132943400D01*
X118934844Y-132979409D01*
X118925539Y-133025915D01*
X118918705Y-133086501D01*
X118913963Y-133164750D01*
X118910931Y-133264245D01*
X118909228Y-133388568D01*
X118908474Y-133541302D01*
X118908288Y-133726030D01*
X118908285Y-133766703D01*
X118908285Y-134493000D01*
X114735428Y-134493000D01*
X114735428Y-133766703D01*
X114735309Y-133575217D01*
X114734697Y-133416434D01*
X114733213Y-133286771D01*
X114730474Y-133182646D01*
X114726101Y-133100475D01*
X114719712Y-133036677D01*
X114710926Y-132987668D01*
X114699363Y-132949866D01*
X114684642Y-132919688D01*
X114666381Y-132893551D01*
X114644201Y-132867873D01*
X114639312Y-132862533D01*
X114565508Y-132805684D01*
X114472820Y-132768292D01*
X114372803Y-132752628D01*
X114277015Y-132760959D01*
X114221991Y-132780571D01*
X114135720Y-132838171D01*
X114062117Y-132913297D01*
X114030773Y-132959929D01*
X114023166Y-132977158D01*
X114016856Y-133001138D01*
X114011689Y-133035327D01*
X114007509Y-133083182D01*
X114004161Y-133148160D01*
X114001489Y-133233721D01*
X113999340Y-133343321D01*
X113997557Y-133480417D01*
X113995985Y-133648468D01*
X113995167Y-133753679D01*
X113989692Y-134493000D01*
X112812285Y-134493000D01*
X112812285Y-135634078D01*
X112812469Y-135893077D01*
X112813116Y-136119106D01*
X112814368Y-136315477D01*
X112816369Y-136485503D01*
X112819261Y-136632498D01*
X112823186Y-136759775D01*
X112828289Y-136870647D01*
X112834710Y-136968428D01*
X112842594Y-137056431D01*
X112852083Y-137137969D01*
X112863320Y-137216356D01*
X112876447Y-137294904D01*
X112886135Y-137348008D01*
X112970936Y-137703806D01*
X113089298Y-138049380D01*
X113239369Y-138382418D01*
X113419294Y-138700608D01*
X113627224Y-139001638D01*
X113861304Y-139283195D01*
X114119683Y-139542968D01*
X114400508Y-139778644D01*
X114701928Y-139987912D01*
X115022089Y-140168459D01*
X115219741Y-140260884D01*
X115573975Y-140394546D01*
X115942405Y-140494940D01*
X116236290Y-140549584D01*
X116449928Y-140581590D01*
X116459000Y-141106902D01*
X116461962Y-141267435D01*
X116465184Y-141396026D01*
X116469386Y-141497017D01*
X116475288Y-141574748D01*
X116483613Y-141633562D01*
X116495079Y-141677799D01*
X116510409Y-141711800D01*
X116530322Y-141739906D01*
X116555539Y-141766459D01*
X116570916Y-141781027D01*
X116650720Y-141834224D01*
X116747439Y-141866796D01*
X116848352Y-141876183D01*
X116940737Y-141859826D01*
X116948314Y-141856958D01*
X117022781Y-141815404D01*
X117092370Y-141756607D01*
X117142256Y-141693203D01*
X117143911Y-141690241D01*
X117153346Y-141669075D01*
X117160959Y-141640943D01*
X117167048Y-141601588D01*
X117171910Y-141546756D01*
X117175843Y-141472190D01*
X117179145Y-141373636D01*
X117182113Y-141246839D01*
X117184714Y-141106854D01*
X117193785Y-140581494D01*
X117393357Y-140551235D01*
X117766970Y-140476962D01*
X118127234Y-140370299D01*
X118472458Y-140232766D01*
X118800951Y-140065880D01*
X119111022Y-139871160D01*
X119400978Y-139650124D01*
X119669129Y-139404289D01*
X119913784Y-139135175D01*
X120133250Y-138844298D01*
X120325837Y-138533178D01*
X120489853Y-138203332D01*
X120623606Y-137856278D01*
X120704714Y-137579050D01*
X120725673Y-137496065D01*
X120743874Y-137421689D01*
X120759527Y-137352743D01*
X120772845Y-137286049D01*
X120784040Y-137218427D01*
X120792299Y-137154611D01*
X119361458Y-137154611D01*
X119359346Y-137201932D01*
X119350416Y-137246419D01*
X119331580Y-137295293D01*
X119299752Y-137355776D01*
X119251841Y-137435087D01*
X119219943Y-137485547D01*
X119048428Y-137735268D01*
X118875089Y-137948957D01*
X118699543Y-138126840D01*
X118521409Y-138269141D01*
X118340304Y-138376086D01*
X118155848Y-138447899D01*
X117967657Y-138484806D01*
X117775349Y-138487032D01*
X117578544Y-138454802D01*
X117576451Y-138454282D01*
X117454980Y-138413670D01*
X117319562Y-138350782D01*
X117180044Y-138270734D01*
X117046655Y-138178932D01*
X116999948Y-138140275D01*
X116932086Y-138079398D01*
X116847129Y-138000174D01*
X116749137Y-137906476D01*
X116642170Y-137802178D01*
X116530289Y-137691154D01*
X116440857Y-137600991D01*
X116291256Y-137450312D01*
X116163149Y-137324289D01*
X116053769Y-137220591D01*
X115960353Y-137136888D01*
X115880136Y-137070849D01*
X115810353Y-137020144D01*
X115748241Y-136982443D01*
X115691034Y-136955415D01*
X115662542Y-136944883D01*
X115569050Y-136925739D01*
X115475578Y-136932726D01*
X115379479Y-136967251D01*
X115278102Y-137030716D01*
X115168797Y-137124528D01*
X115048915Y-137250091D01*
X115016173Y-137287546D01*
X114944070Y-137368875D01*
X114887604Y-137426149D01*
X114840935Y-137464563D01*
X114798224Y-137489311D01*
X114781441Y-137496357D01*
X114673401Y-137520073D01*
X114568125Y-137511539D01*
X114471434Y-137474378D01*
X114389152Y-137412210D01*
X114327099Y-137328655D01*
X114291100Y-137227334D01*
X114285708Y-137188056D01*
X114287346Y-137110554D01*
X114307236Y-137033262D01*
X114348089Y-136950715D01*
X114412610Y-136857448D01*
X114503508Y-136747996D01*
X114504046Y-136747385D01*
X114673123Y-136571185D01*
X114840497Y-136429685D01*
X115008542Y-136321531D01*
X115179631Y-136245366D01*
X115356138Y-136199834D01*
X115488357Y-136185236D01*
X115663173Y-136189026D01*
X115832170Y-136220582D01*
X116000820Y-136281633D01*
X116174599Y-136373912D01*
X116261321Y-136429725D01*
X116356018Y-136497779D01*
X116455126Y-136577311D01*
X116562325Y-136671686D01*
X116681296Y-136784271D01*
X116815717Y-136918430D01*
X116967000Y-137075145D01*
X117113626Y-137227537D01*
X117239722Y-137354681D01*
X117348218Y-137459010D01*
X117442042Y-137542957D01*
X117524124Y-137608955D01*
X117597394Y-137659438D01*
X117664781Y-137696840D01*
X117729214Y-137723593D01*
X117759068Y-137733111D01*
X117848734Y-137747647D01*
X117938899Y-137738010D01*
X118031330Y-137702830D01*
X118127792Y-137640735D01*
X118230052Y-137550354D01*
X118339875Y-137430314D01*
X118459028Y-137279246D01*
X118589277Y-137095777D01*
X118599857Y-137080209D01*
X118673815Y-136975670D01*
X118736462Y-136899055D01*
X118792874Y-136845909D01*
X118848125Y-136811780D01*
X118907291Y-136792215D01*
X118933583Y-136787411D01*
X119042257Y-136788159D01*
X119143629Y-136820237D01*
X119231965Y-136878723D01*
X119301527Y-136958694D01*
X119346582Y-137055230D01*
X119361458Y-137154611D01*
X120792299Y-137154611D01*
X120793323Y-137146699D01*
X120800906Y-137067686D01*
X120807001Y-136978210D01*
X120811819Y-136875091D01*
X120815572Y-136755152D01*
X120818473Y-136615212D01*
X120820732Y-136452095D01*
X120822561Y-136262619D01*
X120824173Y-136043608D01*
X120825778Y-135791882D01*
X120825986Y-135758464D01*
X120833850Y-134493000D01*
X119652142Y-134493000D01*
X119652142Y-133813536D01*
X119651566Y-133617882D01*
X119649876Y-133446172D01*
X119647136Y-133300792D01*
X119643407Y-133184125D01*
X119638750Y-133098555D01*
X119633227Y-133046467D01*
X119632189Y-133041034D01*
X119592845Y-132938083D01*
X119526248Y-132852967D01*
X119438674Y-132790791D01*
X119336397Y-132756657D01*
X119276401Y-132751684D01*
X119178367Y-132765513D01*
%TD*%
M02*
