<?xml version="1.0" standalone="no"?>
 <!DOCTYPE svg PUBLIC "-//W3C//DTD SVG 1.1//EN" 
 "http://www.w3.org/Graphics/SVG/1.1/DTD/svg11.dtd"> 
<svg
  xmlns:svg="http://www.w3.org/2000/svg"
  xmlns="http://www.w3.org/2000/svg"
  xmlns:xlink="http://www.w3.org/1999/xlink"
  version="1.1"
  width="29.700220cm" height="21.000720cm" viewBox="0 0 116930 82680">
<title>SVG Picture created as pfm2_topSurface-brd.svg date 2021/03/28 17:44:27 </title>
  <desc>Picture generated by PCBNEW </desc>
<g style="fill:#000000; fill-opacity:1;stroke:#000000; stroke-opacity:1;
stroke-linecap:round; stroke-linejoin:round;"
 transform="translate(0 0) scale(1 1)">
</g>
<g style="fill:#000000; fill-opacity:0.0; 
stroke:#000000; stroke-width:-0.000393701; stroke-opacity:1; 
stroke-linecap:round; stroke-linejoin:round;">
</g>
<g style="fill:#000000; fill-opacity:0.0; 
stroke:#000000; stroke-width:39.3701; stroke-opacity:1; 
stroke-linecap:round; stroke-linejoin:round;">
</g>
<g style="fill:#000000; fill-opacity:0.0; 
stroke:#000000; stroke-width:59.0551; stroke-opacity:1; 
stroke-linecap:round; stroke-linejoin:round;">
<rect x="69685.9" y="65357.2" width="42519.7" height="12598.4" rx="0" />
</g>
<g style="fill:#000000; fill-opacity:0.0; 
stroke:#000000; stroke-width:39.3701; stroke-opacity:1; 
stroke-linecap:round; stroke-linejoin:round;">
</g>
<g style="fill:#000000; fill-opacity:0.0; 
stroke:#000000; stroke-width:59.0551; stroke-opacity:1; 
stroke-linecap:round; stroke-linejoin:round;">
<rect x="3937.01" y="3937.01" width="109056" height="74806" rx="0" />
</g>
<g style="fill:#000000; fill-opacity:0.0; 
stroke:#000000; stroke-width:39.3701; stroke-opacity:1; 
stroke-linecap:round; stroke-linejoin:round;">
</g>
<g style="fill:#000000; fill-opacity:0.0; 
stroke:#000000; stroke-width:59.0551; stroke-opacity:1; 
stroke-linecap:round; stroke-linejoin:round;">
<rect x="4724.41" y="4724.41" width="107481" height="73231.2" rx="0" />
</g>
<g style="fill:#000000; fill-opacity:0.0; 
stroke:#000000; stroke-width:39.3701; stroke-opacity:1; 
stroke-linecap:round; stroke-linejoin:round;">
</g>
<g style="fill:#000000; fill-opacity:0.0; 
stroke:#000000; stroke-width:59.0551; stroke-opacity:1; 
stroke-linecap:round; stroke-linejoin:round;">
<path d="M23622 4724
L23622 3937
" />
</g>
<g style="fill:#000000; fill-opacity:0.0; 
stroke:#000000; stroke-width:39.3701; stroke-opacity:1; 
stroke-linecap:round; stroke-linejoin:round;">
</g>
<g style="fill:#000000; fill-opacity:0.0; 
stroke:#000000; stroke-width:59.0551; stroke-opacity:1; 
stroke-linecap:round; stroke-linejoin:round;">
<path d="M43307 4724
L43307 3937
" />
</g>
<g style="fill:#000000; fill-opacity:0.0; 
stroke:#000000; stroke-width:39.3701; stroke-opacity:1; 
stroke-linecap:round; stroke-linejoin:round;">
</g>
<g style="fill:#000000; fill-opacity:0.0; 
stroke:#000000; stroke-width:59.0551; stroke-opacity:1; 
stroke-linecap:round; stroke-linejoin:round;">
<path d="M62992 4724
L62992 3937
" />
</g>
<g style="fill:#000000; fill-opacity:0.0; 
stroke:#000000; stroke-width:39.3701; stroke-opacity:1; 
stroke-linecap:round; stroke-linejoin:round;">
</g>
<g style="fill:#000000; fill-opacity:0.0; 
stroke:#000000; stroke-width:59.0551; stroke-opacity:1; 
stroke-linecap:round; stroke-linejoin:round;">
<path d="M82677 4724
L82677 3937
" />
</g>
<g style="fill:#000000; fill-opacity:0.0; 
stroke:#000000; stroke-width:39.3701; stroke-opacity:1; 
stroke-linecap:round; stroke-linejoin:round;">
</g>
<g style="fill:#000000; fill-opacity:0.0; 
stroke:#000000; stroke-width:59.0551; stroke-opacity:1; 
stroke-linecap:round; stroke-linejoin:round;">
<path d="M102362 4724
L102362 3937
" />
</g>
<g style="fill:#000000; fill-opacity:0.0; 
stroke:#000000; stroke-width:39.3701; stroke-opacity:1; 
stroke-linecap:round; stroke-linejoin:round;">
</g>
<g style="fill:#000000; fill-opacity:0.0; 
stroke:#000000; stroke-width:59.0551; stroke-opacity:1; 
stroke-linecap:round; stroke-linejoin:round;">
<text x="13779.5" y="4586.61"
textLength="546.494" font-size="682.415" lengthAdjust="spacingAndGlyphs"
text-anchor="start" opacity="0">1</text>
<path d="M14199 4562
L13906 4562
" />
<path d="M14052 4562
L14052 4050
L14004 4123
L13955 4172
L13906 4196
" />
</g>
<g style="fill:#000000; fill-opacity:0.0; 
stroke:#000000; stroke-width:39.3701; stroke-opacity:1; 
stroke-linecap:round; stroke-linejoin:round;">
</g>
<g style="fill:#000000; fill-opacity:0.0; 
stroke:#000000; stroke-width:59.0551; stroke-opacity:1; 
stroke-linecap:round; stroke-linejoin:round;">
<text x="33464.6" y="4586.61"
textLength="546.494" font-size="682.415" lengthAdjust="spacingAndGlyphs"
text-anchor="start" opacity="0">2</text>
<path d="M33591 4099
L33615 4074
L33664 4050
L33786 4050
L33835 4074
L33859 4099
L33884 4147
L33884 4196
L33859 4269
L33567 4562
L33884 4562
" />
</g>
<g style="fill:#000000; fill-opacity:0.0; 
stroke:#000000; stroke-width:39.3701; stroke-opacity:1; 
stroke-linecap:round; stroke-linejoin:round;">
</g>
<g style="fill:#000000; fill-opacity:0.0; 
stroke:#000000; stroke-width:59.0551; stroke-opacity:1; 
stroke-linecap:round; stroke-linejoin:round;">
<text x="53149.6" y="4586.61"
textLength="546.494" font-size="682.415" lengthAdjust="spacingAndGlyphs"
text-anchor="start" opacity="0">3</text>
<path d="M53252 4050
L53569 4050
L53398 4245
L53471 4245
L53520 4269
L53544 4294
L53569 4342
L53569 4464
L53544 4513
L53520 4537
L53471 4562
L53325 4562
L53276 4537
L53252 4513
" />
</g>
<g style="fill:#000000; fill-opacity:0.0; 
stroke:#000000; stroke-width:39.3701; stroke-opacity:1; 
stroke-linecap:round; stroke-linejoin:round;">
</g>
<g style="fill:#000000; fill-opacity:0.0; 
stroke:#000000; stroke-width:59.0551; stroke-opacity:1; 
stroke-linecap:round; stroke-linejoin:round;">
<text x="72834.6" y="4586.61"
textLength="546.494" font-size="682.415" lengthAdjust="spacingAndGlyphs"
text-anchor="start" opacity="0">4</text>
<path d="M73205 4221
L73205 4562
" />
<path d="M73083 4026
L72961 4391
L73278 4391
" />
</g>
<g style="fill:#000000; fill-opacity:0.0; 
stroke:#000000; stroke-width:39.3701; stroke-opacity:1; 
stroke-linecap:round; stroke-linejoin:round;">
</g>
<g style="fill:#000000; fill-opacity:0.0; 
stroke:#000000; stroke-width:59.0551; stroke-opacity:1; 
stroke-linecap:round; stroke-linejoin:round;">
<text x="92519.7" y="4586.61"
textLength="546.494" font-size="682.415" lengthAdjust="spacingAndGlyphs"
text-anchor="start" opacity="0">5</text>
<path d="M92914 4050
L92671 4050
L92646 4294
L92671 4269
L92719 4245
L92841 4245
L92890 4269
L92914 4294
L92939 4342
L92939 4464
L92914 4513
L92890 4537
L92841 4562
L92719 4562
L92671 4537
L92646 4513
" />
</g>
<g style="fill:#000000; fill-opacity:0.0; 
stroke:#000000; stroke-width:39.3701; stroke-opacity:1; 
stroke-linecap:round; stroke-linejoin:round;">
</g>
<g style="fill:#000000; fill-opacity:0.0; 
stroke:#000000; stroke-width:59.0551; stroke-opacity:1; 
stroke-linecap:round; stroke-linejoin:round;">
<text x="112205" y="4586.61"
textLength="546.494" font-size="682.415" lengthAdjust="spacingAndGlyphs"
text-anchor="start" opacity="0">6</text>
<path d="M112575 4050
L112477 4050
L112429 4074
L112404 4099
L112356 4172
L112331 4269
L112331 4464
L112356 4513
L112380 4537
L112429 4562
L112526 4562
L112575 4537
L112599 4513
L112624 4464
L112624 4342
L112599 4294
L112575 4269
L112526 4245
L112429 4245
L112380 4269
L112356 4294
L112331 4342
" />
</g>
<g style="fill:#000000; fill-opacity:0.0; 
stroke:#000000; stroke-width:39.3701; stroke-opacity:1; 
stroke-linecap:round; stroke-linejoin:round;">
</g>
<g style="fill:#000000; fill-opacity:0.0; 
stroke:#000000; stroke-width:59.0551; stroke-opacity:1; 
stroke-linecap:round; stroke-linejoin:round;">
<path d="M23622 77955
L23622 78742
" />
</g>
<g style="fill:#000000; fill-opacity:0.0; 
stroke:#000000; stroke-width:39.3701; stroke-opacity:1; 
stroke-linecap:round; stroke-linejoin:round;">
</g>
<g style="fill:#000000; fill-opacity:0.0; 
stroke:#000000; stroke-width:59.0551; stroke-opacity:1; 
stroke-linecap:round; stroke-linejoin:round;">
<path d="M43307 77955
L43307 78742
" />
</g>
<g style="fill:#000000; fill-opacity:0.0; 
stroke:#000000; stroke-width:39.3701; stroke-opacity:1; 
stroke-linecap:round; stroke-linejoin:round;">
</g>
<g style="fill:#000000; fill-opacity:0.0; 
stroke:#000000; stroke-width:59.0551; stroke-opacity:1; 
stroke-linecap:round; stroke-linejoin:round;">
<path d="M62992 77955
L62992 78742
" />
</g>
<g style="fill:#000000; fill-opacity:0.0; 
stroke:#000000; stroke-width:39.3701; stroke-opacity:1; 
stroke-linecap:round; stroke-linejoin:round;">
</g>
<g style="fill:#000000; fill-opacity:0.0; 
stroke:#000000; stroke-width:59.0551; stroke-opacity:1; 
stroke-linecap:round; stroke-linejoin:round;">
<path d="M82677 77955
L82677 78742
" />
</g>
<g style="fill:#000000; fill-opacity:0.0; 
stroke:#000000; stroke-width:39.3701; stroke-opacity:1; 
stroke-linecap:round; stroke-linejoin:round;">
</g>
<g style="fill:#000000; fill-opacity:0.0; 
stroke:#000000; stroke-width:59.0551; stroke-opacity:1; 
stroke-linecap:round; stroke-linejoin:round;">
<path d="M102362 77955
L102362 78742
" />
</g>
<g style="fill:#000000; fill-opacity:0.0; 
stroke:#000000; stroke-width:39.3701; stroke-opacity:1; 
stroke-linecap:round; stroke-linejoin:round;">
</g>
<g style="fill:#000000; fill-opacity:0.0; 
stroke:#000000; stroke-width:59.0551; stroke-opacity:1; 
stroke-linecap:round; stroke-linejoin:round;">
<text x="13779.5" y="78605.2"
textLength="546.494" font-size="682.415" lengthAdjust="spacingAndGlyphs"
text-anchor="start" opacity="0">1</text>
<path d="M14199 78580
L13906 78580
" />
<path d="M14052 78580
L14052 78069
L14004 78142
L13955 78190
L13906 78215
" />
</g>
<g style="fill:#000000; fill-opacity:0.0; 
stroke:#000000; stroke-width:39.3701; stroke-opacity:1; 
stroke-linecap:round; stroke-linejoin:round;">
</g>
<g style="fill:#000000; fill-opacity:0.0; 
stroke:#000000; stroke-width:59.0551; stroke-opacity:1; 
stroke-linecap:round; stroke-linejoin:round;">
<text x="33464.6" y="78605.2"
textLength="546.494" font-size="682.415" lengthAdjust="spacingAndGlyphs"
text-anchor="start" opacity="0">2</text>
<path d="M33591 78117
L33615 78093
L33664 78069
L33786 78069
L33835 78093
L33859 78117
L33884 78166
L33884 78215
L33859 78288
L33567 78580
L33884 78580
" />
</g>
<g style="fill:#000000; fill-opacity:0.0; 
stroke:#000000; stroke-width:39.3701; stroke-opacity:1; 
stroke-linecap:round; stroke-linejoin:round;">
</g>
<g style="fill:#000000; fill-opacity:0.0; 
stroke:#000000; stroke-width:59.0551; stroke-opacity:1; 
stroke-linecap:round; stroke-linejoin:round;">
<text x="53149.6" y="78605.2"
textLength="546.494" font-size="682.415" lengthAdjust="spacingAndGlyphs"
text-anchor="start" opacity="0">3</text>
<path d="M53252 78069
L53569 78069
L53398 78263
L53471 78263
L53520 78288
L53544 78312
L53569 78361
L53569 78483
L53544 78532
L53520 78556
L53471 78580
L53325 78580
L53276 78556
L53252 78532
" />
</g>
<g style="fill:#000000; fill-opacity:0.0; 
stroke:#000000; stroke-width:39.3701; stroke-opacity:1; 
stroke-linecap:round; stroke-linejoin:round;">
</g>
<g style="fill:#000000; fill-opacity:0.0; 
stroke:#000000; stroke-width:59.0551; stroke-opacity:1; 
stroke-linecap:round; stroke-linejoin:round;">
<text x="72834.6" y="78605.2"
textLength="546.494" font-size="682.415" lengthAdjust="spacingAndGlyphs"
text-anchor="start" opacity="0">4</text>
<path d="M73205 78239
L73205 78580
" />
<path d="M73083 78044
L72961 78410
L73278 78410
" />
</g>
<g style="fill:#000000; fill-opacity:0.0; 
stroke:#000000; stroke-width:39.3701; stroke-opacity:1; 
stroke-linecap:round; stroke-linejoin:round;">
</g>
<g style="fill:#000000; fill-opacity:0.0; 
stroke:#000000; stroke-width:59.0551; stroke-opacity:1; 
stroke-linecap:round; stroke-linejoin:round;">
<text x="92519.7" y="78605.2"
textLength="546.494" font-size="682.415" lengthAdjust="spacingAndGlyphs"
text-anchor="start" opacity="0">5</text>
<path d="M92914 78069
L92671 78069
L92646 78312
L92671 78288
L92719 78263
L92841 78263
L92890 78288
L92914 78312
L92939 78361
L92939 78483
L92914 78532
L92890 78556
L92841 78580
L92719 78580
L92671 78556
L92646 78532
" />
</g>
<g style="fill:#000000; fill-opacity:0.0; 
stroke:#000000; stroke-width:39.3701; stroke-opacity:1; 
stroke-linecap:round; stroke-linejoin:round;">
</g>
<g style="fill:#000000; fill-opacity:0.0; 
stroke:#000000; stroke-width:59.0551; stroke-opacity:1; 
stroke-linecap:round; stroke-linejoin:round;">
<text x="112205" y="78605.2"
textLength="546.494" font-size="682.415" lengthAdjust="spacingAndGlyphs"
text-anchor="start" opacity="0">6</text>
<path d="M112575 78069
L112477 78069
L112429 78093
L112404 78117
L112356 78190
L112331 78288
L112331 78483
L112356 78532
L112380 78556
L112429 78580
L112526 78580
L112575 78556
L112599 78532
L112624 78483
L112624 78361
L112599 78312
L112575 78288
L112526 78263
L112429 78263
L112380 78288
L112356 78312
L112331 78361
" />
</g>
<g style="fill:#000000; fill-opacity:0.0; 
stroke:#000000; stroke-width:39.3701; stroke-opacity:1; 
stroke-linecap:round; stroke-linejoin:round;">
</g>
<g style="fill:#000000; fill-opacity:0.0; 
stroke:#000000; stroke-width:59.0551; stroke-opacity:1; 
stroke-linecap:round; stroke-linejoin:round;">
<path d="M3937 23622
L4724 23622
" />
</g>
<g style="fill:#000000; fill-opacity:0.0; 
stroke:#000000; stroke-width:39.3701; stroke-opacity:1; 
stroke-linecap:round; stroke-linejoin:round;">
</g>
<g style="fill:#000000; fill-opacity:0.0; 
stroke:#000000; stroke-width:59.0551; stroke-opacity:1; 
stroke-linecap:round; stroke-linejoin:round;">
<path d="M3937 43307
L4724 43307
" />
</g>
<g style="fill:#000000; fill-opacity:0.0; 
stroke:#000000; stroke-width:39.3701; stroke-opacity:1; 
stroke-linecap:round; stroke-linejoin:round;">
</g>
<g style="fill:#000000; fill-opacity:0.0; 
stroke:#000000; stroke-width:59.0551; stroke-opacity:1; 
stroke-linecap:round; stroke-linejoin:round;">
<path d="M3937 62992
L4724 62992
" />
</g>
<g style="fill:#000000; fill-opacity:0.0; 
stroke:#000000; stroke-width:39.3701; stroke-opacity:1; 
stroke-linecap:round; stroke-linejoin:round;">
</g>
<g style="fill:#000000; fill-opacity:0.0; 
stroke:#000000; stroke-width:59.0551; stroke-opacity:1; 
stroke-linecap:round; stroke-linejoin:round;">
<text x="4330.71" y="14035.4"
textLength="497.75" font-size="682.415" lengthAdjust="spacingAndGlyphs"
text-anchor="middle" opacity="0">A</text>
<path d="M4208 13864
L4452 13864
" />
<path d="M4160 14011
L4330 13499
L4501 14011
" />
</g>
<g style="fill:#000000; fill-opacity:0.0; 
stroke:#000000; stroke-width:39.3701; stroke-opacity:1; 
stroke-linecap:round; stroke-linejoin:round;">
</g>
<g style="fill:#000000; fill-opacity:0.0; 
stroke:#000000; stroke-width:59.0551; stroke-opacity:1; 
stroke-linecap:round; stroke-linejoin:round;">
<text x="4330.71" y="33720.5"
textLength="570.866" font-size="682.415" lengthAdjust="spacingAndGlyphs"
text-anchor="middle" opacity="0">B</text>
<path d="M4367 33428
L4440 33452
L4464 33476
L4489 33525
L4489 33598
L4464 33647
L4440 33671
L4391 33696
L4196 33696
L4196 33184
L4367 33184
L4416 33208
L4440 33233
L4464 33281
L4464 33330
L4440 33379
L4416 33403
L4367 33428
L4196 33428
" />
</g>
<g style="fill:#000000; fill-opacity:0.0; 
stroke:#000000; stroke-width:39.3701; stroke-opacity:1; 
stroke-linecap:round; stroke-linejoin:round;">
</g>
<g style="fill:#000000; fill-opacity:0.0; 
stroke:#000000; stroke-width:59.0551; stroke-opacity:1; 
stroke-linecap:round; stroke-linejoin:round;">
<text x="4330.71" y="53405.5"
textLength="570.866" font-size="682.415" lengthAdjust="spacingAndGlyphs"
text-anchor="middle" opacity="0">C</text>
<path d="M4489 53332
L4464 53356
L4391 53381
L4342 53381
L4269 53356
L4221 53308
L4196 53259
L4172 53161
L4172 53088
L4196 52991
L4221 52942
L4269 52893
L4342 52869
L4391 52869
L4464 52893
L4489 52918
" />
</g>
<g style="fill:#000000; fill-opacity:0.0; 
stroke:#000000; stroke-width:39.3701; stroke-opacity:1; 
stroke-linecap:round; stroke-linejoin:round;">
</g>
<g style="fill:#000000; fill-opacity:0.0; 
stroke:#000000; stroke-width:59.0551; stroke-opacity:1; 
stroke-linecap:round; stroke-linejoin:round;">
<text x="4330.71" y="73090.6"
textLength="570.866" font-size="682.415" lengthAdjust="spacingAndGlyphs"
text-anchor="middle" opacity="0">D</text>
<path d="M4196 73066
L4196 72554
L4318 72554
L4391 72578
L4440 72627
L4464 72676
L4489 72773
L4489 72846
L4464 72944
L4440 72993
L4391 73041
L4318 73066
L4196 73066
" />
</g>
<g style="fill:#000000; fill-opacity:0.0; 
stroke:#000000; stroke-width:39.3701; stroke-opacity:1; 
stroke-linecap:round; stroke-linejoin:round;">
</g>
<g style="fill:#000000; fill-opacity:0.0; 
stroke:#000000; stroke-width:59.0551; stroke-opacity:1; 
stroke-linecap:round; stroke-linejoin:round;">
<path d="M112992 23622
L112205 23622
" />
</g>
<g style="fill:#000000; fill-opacity:0.0; 
stroke:#000000; stroke-width:39.3701; stroke-opacity:1; 
stroke-linecap:round; stroke-linejoin:round;">
</g>
<g style="fill:#000000; fill-opacity:0.0; 
stroke:#000000; stroke-width:59.0551; stroke-opacity:1; 
stroke-linecap:round; stroke-linejoin:round;">
<path d="M112992 43307
L112205 43307
" />
</g>
<g style="fill:#000000; fill-opacity:0.0; 
stroke:#000000; stroke-width:39.3701; stroke-opacity:1; 
stroke-linecap:round; stroke-linejoin:round;">
</g>
<g style="fill:#000000; fill-opacity:0.0; 
stroke:#000000; stroke-width:59.0551; stroke-opacity:1; 
stroke-linecap:round; stroke-linejoin:round;">
<path d="M112992 62992
L112205 62992
" />
</g>
<g style="fill:#000000; fill-opacity:0.0; 
stroke:#000000; stroke-width:39.3701; stroke-opacity:1; 
stroke-linecap:round; stroke-linejoin:round;">
</g>
<g style="fill:#000000; fill-opacity:0.0; 
stroke:#000000; stroke-width:59.0551; stroke-opacity:1; 
stroke-linecap:round; stroke-linejoin:round;">
<text x="112599" y="14035.4"
textLength="497.75" font-size="682.415" lengthAdjust="spacingAndGlyphs"
text-anchor="middle" opacity="0">A</text>
<path d="M112477 13864
L112721 13864
" />
<path d="M112428 14011
L112599 13499
L112769 14011
" />
</g>
<g style="fill:#000000; fill-opacity:0.0; 
stroke:#000000; stroke-width:39.3701; stroke-opacity:1; 
stroke-linecap:round; stroke-linejoin:round;">
</g>
<g style="fill:#000000; fill-opacity:0.0; 
stroke:#000000; stroke-width:59.0551; stroke-opacity:1; 
stroke-linecap:round; stroke-linejoin:round;">
<text x="112599" y="33720.5"
textLength="570.866" font-size="682.415" lengthAdjust="spacingAndGlyphs"
text-anchor="middle" opacity="0">B</text>
<path d="M112635 33428
L112708 33452
L112733 33476
L112757 33525
L112757 33598
L112733 33647
L112708 33671
L112660 33696
L112465 33696
L112465 33184
L112635 33184
L112684 33208
L112708 33233
L112733 33281
L112733 33330
L112708 33379
L112684 33403
L112635 33428
L112465 33428
" />
</g>
<g style="fill:#000000; fill-opacity:0.0; 
stroke:#000000; stroke-width:39.3701; stroke-opacity:1; 
stroke-linecap:round; stroke-linejoin:round;">
</g>
<g style="fill:#000000; fill-opacity:0.0; 
stroke:#000000; stroke-width:59.0551; stroke-opacity:1; 
stroke-linecap:round; stroke-linejoin:round;">
<text x="112599" y="53405.5"
textLength="570.866" font-size="682.415" lengthAdjust="spacingAndGlyphs"
text-anchor="middle" opacity="0">C</text>
<path d="M112757 53332
L112733 53356
L112660 53381
L112611 53381
L112538 53356
L112489 53308
L112465 53259
L112440 53161
L112440 53088
L112465 52991
L112489 52942
L112538 52893
L112611 52869
L112660 52869
L112733 52893
L112757 52918
" />
</g>
<g style="fill:#000000; fill-opacity:0.0; 
stroke:#000000; stroke-width:39.3701; stroke-opacity:1; 
stroke-linecap:round; stroke-linejoin:round;">
</g>
<g style="fill:#000000; fill-opacity:0.0; 
stroke:#000000; stroke-width:59.0551; stroke-opacity:1; 
stroke-linecap:round; stroke-linejoin:round;">
<text x="112599" y="73090.6"
textLength="570.866" font-size="682.415" lengthAdjust="spacingAndGlyphs"
text-anchor="middle" opacity="0">D</text>
<path d="M112465 73066
L112465 72554
L112587 72554
L112660 72578
L112708 72627
L112733 72676
L112757 72773
L112757 72846
L112733 72944
L112708 72993
L112660 73041
L112587 73066
L112465 73066
" />
</g>
<g style="fill:#000000; fill-opacity:0.0; 
stroke:#000000; stroke-width:39.3701; stroke-opacity:1; 
stroke-linecap:round; stroke-linejoin:round;">
</g>
<g style="fill:#000000; fill-opacity:0.0; 
stroke:#000000; stroke-width:59.0551; stroke-opacity:1; 
stroke-linecap:round; stroke-linejoin:round;">
<text x="78741" y="76321.7"
textLength="2758.72" font-size="787.402" lengthAdjust="spacingAndGlyphs"
text-anchor="start" opacity="0">Date: </text>
<path d="M78911 76293
L78911 75703
L79051 75703
L79136 75731
L79192 75787
L79220 75843
L79248 75956
L79248 76040
L79220 76153
L79192 76209
L79136 76265
L79051 76293
L78911 76293
" />
<path d="M79754 76293
L79754 75984
L79726 75928
L79670 75899
L79557 75899
L79501 75928
" />
<path d="M79754 76265
L79698 76293
L79557 76293
L79501 76265
L79473 76209
L79473 76153
L79501 76096
L79557 76068
L79698 76068
L79754 76040
" />
<path d="M79951 75899
L80176 75899
" />
<path d="M80036 75703
L80036 76209
L80064 76265
L80120 76293
L80176 76293
" />
<path d="M80598 76265
L80542 76293
L80429 76293
L80373 76265
L80345 76209
L80345 75984
L80373 75928
L80429 75899
L80542 75899
L80598 75928
L80626 75984
L80626 76040
L80345 76096
" />
<path d="M80879 76237
L80907 76265
L80879 76293
L80851 76265
L80879 76237
L80879 76293
" />
<path d="M80879 75928
L80907 75956
L80879 75984
L80851 75956
L80879 75928
L80879 75984
" />
</g>
<g style="fill:#000000; fill-opacity:0.0; 
stroke:#000000; stroke-width:39.3701; stroke-opacity:1; 
stroke-linecap:round; stroke-linejoin:round;">
</g>
<g style="fill:#000000; fill-opacity:0.0; 
stroke:#000000; stroke-width:59.0551; stroke-opacity:1; 
stroke-linecap:round; stroke-linejoin:round;">
<path d="M69685 76577
L112205 76577
" />
</g>
<g style="fill:#000000; fill-opacity:0.0; 
stroke:#000000; stroke-width:39.3701; stroke-opacity:1; 
stroke-linecap:round; stroke-linejoin:round;">
</g>
<g style="fill:#000000; fill-opacity:0.0; 
stroke:#000000; stroke-width:59.0551; stroke-opacity:1; 
stroke-linecap:round; stroke-linejoin:round;">
<text x="70079.6" y="77424.1"
textLength="13529.2" font-size="787.402" lengthAdjust="spacingAndGlyphs"
text-anchor="start" opacity="0">KiCad E.D.A.  kicad (5.1.8)-1</text>
<path d="M70249 77395
L70249 76805
" />
<path d="M70587 77395
L70334 77058
" />
<path d="M70587 76805
L70249 77142
" />
<path d="M70840 77395
L70840 77002
" />
<path d="M70840 76805
L70812 76833
L70840 76861
L70868 76833
L70840 76805
L70840 76861
" />
<path d="M71458 77339
L71430 77367
L71346 77395
L71290 77395
L71205 77367
L71149 77311
L71121 77255
L71093 77142
L71093 77058
L71121 76946
L71149 76889
L71205 76833
L71290 76805
L71346 76805
L71430 76833
L71458 76861
" />
<path d="M71965 77395
L71965 77086
L71937 77030
L71880 77002
L71768 77002
L71712 77030
" />
<path d="M71965 77367
L71908 77395
L71768 77395
L71712 77367
L71683 77311
L71683 77255
L71712 77199
L71768 77171
L71908 77171
L71965 77142
" />
<path d="M72499 77395
L72499 76805
" />
<path d="M72499 77367
L72443 77395
L72330 77395
L72274 77367
L72246 77339
L72218 77283
L72218 77114
L72246 77058
L72274 77030
L72330 77002
L72443 77002
L72499 77030
" />
<path d="M73230 77086
L73427 77086
" />
<path d="M73511 77395
L73230 77395
L73230 76805
L73511 76805
" />
<path d="M73764 77339
L73793 77367
L73764 77395
L73736 77367
L73764 77339
L73764 77395
" />
<path d="M74046 77395
L74046 76805
L74186 76805
L74271 76833
L74327 76889
L74355 76946
L74383 77058
L74383 77142
L74355 77255
L74327 77311
L74271 77367
L74186 77395
L74046 77395
" />
<path d="M74636 77339
L74664 77367
L74636 77395
L74608 77367
L74636 77339
L74636 77395
" />
<path d="M74889 77227
L75171 77227
" />
<path d="M74833 77395
L75030 76805
L75227 77395
" />
<path d="M75424 77339
L75452 77367
L75424 77395
L75395 77367
L75424 77339
L75424 77395
" />
<path d="M76605 77395
L76605 76805
" />
<path d="M76661 77171
L76830 77395
" />
<path d="M76830 77002
L76605 77227
" />
<path d="M77083 77395
L77083 77002
" />
<path d="M77083 76805
L77055 76833
L77083 76861
L77111 76833
L77083 76805
L77083 76861
" />
<path d="M77617 77367
L77561 77395
L77448 77395
L77392 77367
L77364 77339
L77336 77283
L77336 77114
L77364 77058
L77392 77030
L77448 77002
L77561 77002
L77617 77030
" />
<path d="M78123 77395
L78123 77086
L78095 77030
L78039 77002
L77926 77002
L77870 77030
" />
<path d="M78123 77367
L78067 77395
L77926 77395
L77870 77367
L77842 77311
L77842 77255
L77870 77199
L77926 77171
L78067 77171
L78123 77142
" />
<path d="M78658 77395
L78658 76805
" />
<path d="M78658 77367
L78601 77395
L78489 77395
L78433 77367
L78404 77339
L78376 77283
L78376 77114
L78404 77058
L78433 77030
L78489 77002
L78601 77002
L78658 77030
" />
<path d="M79557 77620
L79529 77592
L79473 77508
L79445 77452
L79417 77367
L79389 77227
L79389 77114
L79417 76974
L79445 76889
L79473 76833
L79529 76749
L79557 76721
" />
<path d="M80064 76805
L79782 76805
L79754 77086
L79782 77058
L79839 77030
L79979 77030
L80036 77058
L80064 77086
L80092 77142
L80092 77283
L80064 77339
L80036 77367
L79979 77395
L79839 77395
L79782 77367
L79754 77339
" />
<path d="M80345 77339
L80373 77367
L80345 77395
L80317 77367
L80345 77339
L80345 77395
" />
<path d="M80935 77395
L80598 77395
" />
<path d="M80767 77395
L80767 76805
L80710 76889
L80654 76946
L80598 76974
" />
<path d="M81188 77339
L81217 77367
L81188 77395
L81160 77367
L81188 77339
L81188 77395
" />
<path d="M81554 77058
L81498 77030
L81470 77002
L81442 76946
L81442 76917
L81470 76861
L81498 76833
L81554 76805
L81667 76805
L81723 76833
L81751 76861
L81779 76917
L81779 76946
L81751 77002
L81723 77030
L81667 77058
L81554 77058
L81498 77086
L81470 77114
L81442 77171
L81442 77283
L81470 77339
L81498 77367
L81554 77395
L81667 77395
L81723 77367
L81751 77339
L81779 77283
L81779 77171
L81751 77114
L81723 77086
L81667 77058
" />
<path d="M81976 77620
L82004 77592
L82060 77508
L82088 77452
L82117 77367
L82145 77227
L82145 77114
L82117 76974
L82088 76889
L82060 76833
L82004 76749
L81976 76721
" />
<path d="M82426 77171
L82876 77171
" />
<path d="M83466 77395
L83129 77395
" />
<path d="M83298 77395
L83298 76805
L83241 76889
L83185 76946
L83129 76974
" />
</g>
<g style="fill:#000000; fill-opacity:0.0; 
stroke:#000000; stroke-width:39.3701; stroke-opacity:1; 
stroke-linecap:round; stroke-linejoin:round;">
</g>
<g style="fill:#000000; fill-opacity:0.0; 
stroke:#000000; stroke-width:59.0551; stroke-opacity:1; 
stroke-linecap:round; stroke-linejoin:round;">
<path d="M69685 75396
L112205 75396
" />
</g>
<g style="fill:#000000; fill-opacity:0.0; 
stroke:#000000; stroke-width:39.3701; stroke-opacity:1; 
stroke-linecap:round; stroke-linejoin:round;">
</g>
<g style="fill:#000000; fill-opacity:0.0; 
stroke:#000000; stroke-width:118.11; stroke-opacity:1; 
stroke-linecap:round; stroke-linejoin:round;">
<text x="103544" y="76321.7"
textLength="2336.9" font-size="787.402" lengthAdjust="spacingAndGlyphs"
text-anchor="start" opacity="0">Rev: </text>
<path d="M104099 76293
L103902 76012
" />
<path d="M103761 76293
L103761 75703
L103986 75703
L104042 75731
L104070 75759
L104099 75815
L104099 75899
L104070 75956
L104042 75984
L103986 76012
L103761 76012
" />
<path d="M104577 76265
L104520 76293
L104408 76293
L104352 76265
L104323 76209
L104323 75984
L104352 75928
L104408 75899
L104520 75899
L104577 75928
L104605 75984
L104605 76040
L104323 76096
" />
<path d="M104802 75899
L104942 76293
L105083 75899
" />
<path d="M105308 76237
L105336 76265
L105308 76293
L105280 76265
L105308 76237
L105308 76293
" />
<path d="M105308 75928
L105336 75956
L105308 75984
L105280 75956
L105308 75928
L105308 75984
" />
</g>
<g style="fill:#000000; fill-opacity:0.0; 
stroke:#000000; stroke-width:39.3701; stroke-opacity:1; 
stroke-linecap:round; stroke-linejoin:round;">
</g>
<g style="fill:#000000; fill-opacity:0.0; 
stroke:#000000; stroke-width:59.0551; stroke-opacity:1; 
stroke-linecap:round; stroke-linejoin:round;">
<text x="70079.6" y="76321.7"
textLength="3781.21" font-size="787.402" lengthAdjust="spacingAndGlyphs"
text-anchor="start" opacity="0">Size: A4</text>
<path d="M70221 76265
L70305 76293
L70446 76293
L70502 76265
L70530 76237
L70559 76181
L70559 76124
L70530 76068
L70502 76040
L70446 76012
L70334 75984
L70277 75956
L70249 75928
L70221 75871
L70221 75815
L70249 75759
L70277 75731
L70334 75703
L70474 75703
L70559 75731
" />
<path d="M70812 76293
L70812 75899
" />
<path d="M70812 75703
L70784 75731
L70812 75759
L70840 75731
L70812 75703
L70812 75759
" />
<path d="M71037 75899
L71346 75899
L71037 76293
L71346 76293
" />
<path d="M71796 76265
L71740 76293
L71627 76293
L71571 76265
L71543 76209
L71543 75984
L71571 75928
L71627 75899
L71740 75899
L71796 75928
L71824 75984
L71824 76040
L71543 76096
" />
<path d="M72077 76237
L72105 76265
L72077 76293
L72049 76265
L72077 76237
L72077 76293
" />
<path d="M72077 75928
L72105 75956
L72077 75984
L72049 75956
L72077 75928
L72077 75984
" />
<path d="M72780 76124
L73061 76124
" />
<path d="M72724 76293
L72921 75703
L73118 76293
" />
<path d="M73568 75899
L73568 76293
" />
<path d="M73427 75674
L73286 76096
L73652 76096
" />
</g>
<g style="fill:#000000; fill-opacity:0.0; 
stroke:#000000; stroke-width:39.3701; stroke-opacity:1; 
stroke-linecap:round; stroke-linejoin:round;">
</g>
<g style="fill:#000000; fill-opacity:0.0; 
stroke:#000000; stroke-width:59.0551; stroke-opacity:1; 
stroke-linecap:round; stroke-linejoin:round;">
<text x="103544" y="77424.1"
textLength="3349.27" font-size="787.402" lengthAdjust="spacingAndGlyphs"
text-anchor="start" opacity="0">Id: 1/1</text>
<path d="M103714 77395
L103714 76805
" />
<path d="M104248 77395
L104248 76805
" />
<path d="M104248 77367
L104192 77395
L104079 77395
L104023 77367
L103995 77339
L103967 77283
L103967 77114
L103995 77058
L104023 77030
L104079 77002
L104192 77002
L104248 77030
" />
<path d="M104529 77339
L104557 77367
L104529 77395
L104501 77367
L104529 77339
L104529 77395
" />
<path d="M104529 77030
L104557 77058
L104529 77086
L104501 77058
L104529 77030
L104529 77086
" />
<path d="M105570 77395
L105232 77395
" />
<path d="M105401 77395
L105401 76805
L105345 76889
L105289 76946
L105232 76974
" />
<path d="M106245 76777
L105739 77536
" />
<path d="M106751 77395
L106413 77395
" />
<path d="M106582 77395
L106582 76805
L106526 76889
L106470 76946
L106413 76974
" />
</g>
<g style="fill:#000000; fill-opacity:0.0; 
stroke:#000000; stroke-width:39.3701; stroke-opacity:1; 
stroke-linecap:round; stroke-linejoin:round;">
</g>
<g style="fill:#000000; fill-opacity:0.0; 
stroke:#000000; stroke-width:59.0551; stroke-opacity:1; 
stroke-linecap:round; stroke-linejoin:round;">
<path d="M69685 73821
L112205 73821
" />
</g>
<g style="fill:#000000; fill-opacity:0.0; 
stroke:#000000; stroke-width:39.3701; stroke-opacity:1; 
stroke-linecap:round; stroke-linejoin:round;">
</g>
<g style="fill:#000000; fill-opacity:0.0; 
stroke:#000000; stroke-width:157.48; stroke-opacity:1; 
stroke-linecap:round; stroke-linejoin:round;">
<text x="70079.6" y="74924.1"
textLength="3701.14" font-size="1049.87" lengthAdjust="spacingAndGlyphs"
text-anchor="start" opacity="0">Title: </text>
<path d="M70360 74099
L70810 74099
" />
<path d="M70486 74886
L70585 74099
" />
<path d="M70974 74886
L71039 74361
" />
<path d="M71072 74099
L71030 74136
L71063 74174
L71105 74136
L71072 74099
L71063 74174
" />
<path d="M71302 74361
L71602 74361
" />
<path d="M71447 74099
L71363 74774
L71391 74849
L71461 74886
L71536 74886
" />
<path d="M71911 74886
L71841 74849
L71813 74774
L71897 74099
" />
<path d="M72516 74849
L72436 74886
L72286 74886
L72216 74849
L72187 74774
L72225 74474
L72272 74399
L72352 74361
L72501 74361
L72572 74399
L72600 74474
L72591 74549
L72206 74624
" />
<path d="M72895 74811
L72928 74849
L72886 74886
L72853 74849
L72895 74811
L72886 74886
" />
<path d="M72947 74399
L72980 74436
L72937 74474
L72905 74436
L72947 74399
L72937 74474
" />
</g>
<g style="fill:#000000; fill-opacity:0.0; 
stroke:#000000; stroke-width:39.3701; stroke-opacity:1; 
stroke-linecap:round; stroke-linejoin:round;">
</g>
<g style="fill:#000000; fill-opacity:0.0; 
stroke:#000000; stroke-width:59.0551; stroke-opacity:1; 
stroke-linecap:round; stroke-linejoin:round;">
<text x="70079.6" y="73408.3"
textLength="14602.9" font-size="787.402" lengthAdjust="spacingAndGlyphs"
text-anchor="start" opacity="0">File: pfm2_topSurface.kicad_pcb</text>
<path d="M70446 73070
L70249 73070
" />
<path d="M70249 73380
L70249 72789
L70530 72789
" />
<path d="M70755 73380
L70755 72986
" />
<path d="M70755 72789
L70727 72817
L70755 72845
L70784 72817
L70755 72789
L70755 72845
" />
<path d="M71121 73380
L71065 73352
L71037 73295
L71037 72789
" />
<path d="M71571 73352
L71515 73380
L71402 73380
L71346 73352
L71318 73295
L71318 73070
L71346 73014
L71402 72986
L71515 72986
L71571 73014
L71599 73070
L71599 73127
L71318 73183
" />
<path d="M71852 73323
L71880 73352
L71852 73380
L71824 73352
L71852 73323
L71852 73380
" />
<path d="M71852 73014
L71880 73042
L71852 73070
L71824 73042
L71852 73014
L71852 73070
" />
<path d="M72583 72986
L72583 73577
" />
<path d="M72583 73014
L72640 72986
L72752 72986
L72808 73014
L72836 73042
L72865 73099
L72865 73267
L72836 73323
L72808 73352
L72752 73380
L72640 73380
L72583 73352
" />
<path d="M73033 72986
L73258 72986
" />
<path d="M73118 73380
L73118 72874
L73146 72817
L73202 72789
L73258 72789
" />
<path d="M73455 73380
L73455 72986
" />
<path d="M73455 73042
L73483 73014
L73539 72986
L73624 72986
L73680 73014
L73708 73070
L73708 73380
" />
<path d="M73708 73070
L73736 73014
L73793 72986
L73877 72986
L73933 73014
L73961 73070
L73961 73380
" />
<path d="M74214 72845
L74242 72817
L74299 72789
L74439 72789
L74496 72817
L74524 72845
L74552 72902
L74552 72958
L74524 73042
L74186 73380
L74552 73380
" />
<path d="M74664 73436
L75114 73436
" />
<path d="M75171 72986
L75395 72986
" />
<path d="M75255 72789
L75255 73295
L75283 73352
L75339 73380
L75395 73380
" />
<path d="M75677 73380
L75620 73352
L75592 73323
L75564 73267
L75564 73099
L75592 73042
L75620 73014
L75677 72986
L75761 72986
L75817 73014
L75845 73042
L75874 73099
L75874 73267
L75845 73323
L75817 73352
L75761 73380
L75677 73380
" />
<path d="M76127 72986
L76127 73577
" />
<path d="M76127 73014
L76183 72986
L76295 72986
L76352 73014
L76380 73042
L76408 73099
L76408 73267
L76380 73323
L76352 73352
L76295 73380
L76183 73380
L76127 73352
" />
<path d="M76633 73352
L76717 73380
L76858 73380
L76914 73352
L76942 73323
L76970 73267
L76970 73211
L76942 73155
L76914 73127
L76858 73099
L76745 73070
L76689 73042
L76661 73014
L76633 72958
L76633 72902
L76661 72845
L76689 72817
L76745 72789
L76886 72789
L76970 72817
" />
<path d="M77476 72986
L77476 73380
" />
<path d="M77223 72986
L77223 73295
L77251 73352
L77308 73380
L77392 73380
L77448 73352
L77476 73323
" />
<path d="M77758 73380
L77758 72986
" />
<path d="M77758 73099
L77786 73042
L77814 73014
L77870 72986
L77926 72986
" />
<path d="M78039 72986
L78264 72986
" />
<path d="M78123 73380
L78123 72874
L78151 72817
L78208 72789
L78264 72789
" />
<path d="M78714 73380
L78714 73070
L78686 73014
L78629 72986
L78517 72986
L78461 73014
" />
<path d="M78714 73352
L78658 73380
L78517 73380
L78461 73352
L78433 73295
L78433 73239
L78461 73183
L78517 73155
L78658 73155
L78714 73127
" />
<path d="M79248 73352
L79192 73380
L79079 73380
L79023 73352
L78995 73323
L78967 73267
L78967 73099
L78995 73042
L79023 73014
L79079 72986
L79192 72986
L79248 73014
" />
<path d="M79726 73352
L79670 73380
L79557 73380
L79501 73352
L79473 73295
L79473 73070
L79501 73014
L79557 72986
L79670 72986
L79726 73014
L79754 73070
L79754 73127
L79473 73183
" />
<path d="M80007 73323
L80036 73352
L80007 73380
L79979 73352
L80007 73323
L80007 73380
" />
<path d="M80289 73380
L80289 72789
" />
<path d="M80345 73155
L80514 73380
" />
<path d="M80514 72986
L80289 73211
" />
<path d="M80767 73380
L80767 72986
" />
<path d="M80767 72789
L80739 72817
L80767 72845
L80795 72817
L80767 72789
L80767 72845
" />
<path d="M81301 73352
L81245 73380
L81132 73380
L81076 73352
L81048 73323
L81020 73267
L81020 73099
L81048 73042
L81076 73014
L81132 72986
L81245 72986
L81301 73014
" />
<path d="M81807 73380
L81807 73070
L81779 73014
L81723 72986
L81610 72986
L81554 73014
" />
<path d="M81807 73352
L81751 73380
L81610 73380
L81554 73352
L81526 73295
L81526 73239
L81554 73183
L81610 73155
L81751 73155
L81807 73127
" />
<path d="M82341 73380
L82341 72789
" />
<path d="M82341 73352
L82285 73380
L82173 73380
L82117 73352
L82088 73323
L82060 73267
L82060 73099
L82088 73042
L82117 73014
L82173 72986
L82285 72986
L82341 73014
" />
<path d="M82482 73436
L82932 73436
" />
<path d="M83073 72986
L83073 73577
" />
<path d="M83073 73014
L83129 72986
L83241 72986
L83298 73014
L83326 73042
L83354 73099
L83354 73267
L83326 73323
L83298 73352
L83241 73380
L83129 73380
L83073 73352
" />
<path d="M83860 73352
L83804 73380
L83691 73380
L83635 73352
L83607 73323
L83579 73267
L83579 73099
L83607 73042
L83635 73014
L83691 72986
L83804 72986
L83860 73014
" />
<path d="M84113 73380
L84113 72789
" />
<path d="M84113 73014
L84169 72986
L84282 72986
L84338 73014
L84366 73042
L84394 73099
L84394 73267
L84366 73323
L84338 73352
L84282 73380
L84169 73380
L84113 73352
" />
</g>
<g style="fill:#000000; fill-opacity:0.0; 
stroke:#000000; stroke-width:39.3701; stroke-opacity:1; 
stroke-linecap:round; stroke-linejoin:round;">
</g>
<g style="fill:#000000; fill-opacity:0.0; 
stroke:#000000; stroke-width:59.0551; stroke-opacity:1; 
stroke-linecap:round; stroke-linejoin:round;">
<path d="M69685 71459
L112205 71459
" />
</g>
<g style="fill:#000000; fill-opacity:0.0; 
stroke:#000000; stroke-width:39.3701; stroke-opacity:1; 
stroke-linecap:round; stroke-linejoin:round;">
</g>
<g style="fill:#000000; fill-opacity:0.0; 
stroke:#000000; stroke-width:59.0551; stroke-opacity:1; 
stroke-linecap:round; stroke-linejoin:round;">
<text x="70079.6" y="72345.4"
textLength="3236.78" font-size="787.402" lengthAdjust="spacingAndGlyphs"
text-anchor="start" opacity="0">Sheet: </text>
<path d="M70221 72289
L70305 72317
L70446 72317
L70502 72289
L70530 72260
L70559 72204
L70559 72148
L70530 72092
L70502 72064
L70446 72036
L70334 72007
L70277 71979
L70249 71951
L70221 71895
L70221 71839
L70249 71782
L70277 71754
L70334 71726
L70474 71726
L70559 71754
" />
<path d="M70812 72317
L70812 71726
" />
<path d="M71065 72317
L71065 72007
L71037 71951
L70980 71923
L70896 71923
L70840 71951
L70812 71979
" />
<path d="M71571 72289
L71515 72317
L71402 72317
L71346 72289
L71318 72232
L71318 72007
L71346 71951
L71402 71923
L71515 71923
L71571 71951
L71599 72007
L71599 72064
L71318 72120
" />
<path d="M72077 72289
L72021 72317
L71908 72317
L71852 72289
L71824 72232
L71824 72007
L71852 71951
L71908 71923
L72021 71923
L72077 71951
L72105 72007
L72105 72064
L71824 72120
" />
<path d="M72274 71923
L72499 71923
" />
<path d="M72358 71726
L72358 72232
L72386 72289
L72443 72317
L72499 72317
" />
<path d="M72696 72260
L72724 72289
L72696 72317
L72668 72289
L72696 72260
L72696 72317
" />
<path d="M72696 71951
L72724 71979
L72696 72007
L72668 71979
L72696 71951
L72696 72007
" />
</g>
<g style="fill:#000000; fill-opacity:0.0; 
stroke:#000000; stroke-width:39.3701; stroke-opacity:1; 
stroke-linecap:round; stroke-linejoin:round;">
</g>
<g style="fill:#000000; fill-opacity:0.0; 
stroke:#000000; stroke-width:59.0551; stroke-opacity:1; 
stroke-linecap:round; stroke-linejoin:round;">
<path d="M77559 75396
L77559 76577
" />
</g>
<g style="fill:#000000; fill-opacity:0.0; 
stroke:#000000; stroke-width:39.3701; stroke-opacity:1; 
stroke-linecap:round; stroke-linejoin:round;">
</g>
<g style="fill:#000000; fill-opacity:0.0; 
stroke:#000000; stroke-width:59.0551; stroke-opacity:1; 
stroke-linecap:round; stroke-linejoin:round;">
<path d="M102756 75396
L102756 77955
" />
</g>
<g style="fill:#000000; fill-opacity:0.0; 
stroke:#000000; stroke-width:118.11; stroke-opacity:1; 
stroke-linecap:round; stroke-linejoin:round;">
<text x="71500" y="39118.7"
textLength="2608.74" font-size="1049.87" lengthAdjust="spacingAndGlyphs"
text-anchor="middle" opacity="0">INST</text>
<path d="M70412 39081
L70412 38293
" />
<path d="M70787 39081
L70787 38293
L71237 39081
L71237 38293
" />
<path d="M71574 39043
L71687 39081
L71874 39081
L71949 39043
L71987 39006
L72024 38931
L72024 38856
L71987 38781
L71949 38743
L71874 38706
L71724 38668
L71649 38631
L71612 38593
L71574 38518
L71574 38443
L71612 38368
L71649 38331
L71724 38293
L71912 38293
L72024 38331
" />
<path d="M72249 38293
L72699 38293
" />
<path d="M72474 39081
L72474 38293
" />
</g>
<g style="fill:#000000; fill-opacity:0.0; 
stroke:#000000; stroke-width:98.4252; stroke-opacity:1; 
stroke-linecap:round; stroke-linejoin:round;">
<path d="M69300 49000 A200 200 0.0 0 0 69500 48800" />
<path d="M69500 48200 A200 200 0.0 0 0 69300 48000" />
<path d="M22800 54000
L21750 54000
" />
<path d="M23100 53700
L23100 51550
" />
<path d="M22800 54000 A300 300 0.0 0 0 23100 53700" />
</g>
<g style="fill:#000000; fill-opacity:0.0; 
stroke:#000000; stroke-width:59.0551; stroke-opacity:1; 
stroke-linecap:round; stroke-linejoin:round;">
<text x="23400" y="52218.5"
textLength="1435.88" font-size="629.921" lengthAdjust="spacingAndGlyphs"
text-anchor="start" opacity="0">LFO</text>
<path d="M23775 52196
L23550 52196
L23550 51723
" />
<path d="M24090 51948
L23933 51948
" />
<path d="M23933 52196
L23933 51723
L24158 51723
" />
<path d="M24428 51723
L24518 51723
L24563 51746
L24608 51791
L24630 51881
L24630 52038
L24608 52128
L24563 52173
L24518 52196
L24428 52196
L24383 52173
L24338 52128
L24315 52038
L24315 51881
L24338 51791
L24383 51746
L24428 51723
" />
<text x="23400" y="52986.2"
textLength="1404.11" font-size="629.921" lengthAdjust="spacingAndGlyphs"
text-anchor="start" opacity="0">ENV</text>
<path d="M23550 52716
L23708 52716
" />
<path d="M23775 52963
L23550 52963
L23550 52491
L23775 52491
" />
<path d="M23978 52963
L23978 52491
L24248 52963
L24248 52491
" />
<path d="M24405 52491
L24563 52963
L24720 52491
" />
<text x="23400" y="53753.9"
textLength="1449.1" font-size="629.921" lengthAdjust="spacingAndGlyphs"
text-anchor="start" opacity="0">SEQ</text>
<path d="M23528 53708
L23595 53731
L23708 53731
L23753 53708
L23775 53686
L23798 53641
L23798 53596
L23775 53551
L23753 53528
L23708 53506
L23618 53483
L23573 53461
L23550 53438
L23528 53393
L23528 53348
L23550 53303
L23573 53281
L23618 53258
L23730 53258
L23798 53281
" />
<path d="M24000 53483
L24158 53483
" />
<path d="M24225 53731
L24000 53731
L24000 53258
L24225 53258
" />
<path d="M24743 53776
L24698 53753
L24653 53708
L24585 53641
L24540 53618
L24495 53618
" />
<path d="M24518 53731
L24473 53708
L24428 53663
L24405 53573
L24405 53416
L24428 53326
L24473 53281
L24518 53258
L24608 53258
L24653 53281
L24698 53326
L24720 53416
L24720 53573
L24698 53663
L24653 53708
L24608 53731
L24518 53731
" />
<text x="23400" y="34984.6"
textLength="841.676" font-size="629.921" lengthAdjust="spacingAndGlyphs"
text-anchor="start" opacity="0">IM</text>
<path d="M23550 34962
L23550 34489
" />
<path d="M23775 34962
L23775 34489
L23933 34827
L24090 34489
L24090 34962
" />
<text x="23400" y="35752.4"
textLength="1291.62" font-size="629.921" lengthAdjust="spacingAndGlyphs"
text-anchor="start" opacity="0">MIX</text>
<path d="M23550 35729
L23550 35257
L23708 35594
L23865 35257
L23865 35729
" />
<path d="M24090 35729
L24090 35257
" />
<path d="M24270 35257
L24585 35729
" />
<path d="M24585 35257
L24270 35729
" />
<text x="23400" y="36520.1"
textLength="1426.6" font-size="629.921" lengthAdjust="spacingAndGlyphs"
text-anchor="start" opacity="0">ARP</text>
<path d="M23528 36362
L23753 36362
" />
<path d="M23483 36497
L23640 36025
L23798 36497
" />
<path d="M24225 36497
L24068 36272
" />
<path d="M23955 36497
L23955 36025
L24135 36025
L24180 36047
L24203 36070
L24225 36115
L24225 36182
L24203 36227
L24180 36250
L24135 36272
L23955 36272
" />
<path d="M24428 36497
L24428 36025
L24608 36025
L24653 36047
L24675 36070
L24698 36115
L24698 36182
L24675 36227
L24653 36250
L24608 36272
L24428 36272
" />
<text x="23400" y="37287.8"
textLength="2348.99" font-size="629.921" lengthAdjust="spacingAndGlyphs"
text-anchor="start" opacity="0">FILTER</text>
<path d="M23708 37017
L23550 37017
" />
<path d="M23550 37265
L23550 36792
L23775 36792
" />
<path d="M23955 37265
L23955 36792
" />
<path d="M24405 37265
L24180 37265
L24180 36792
" />
<path d="M24495 36792
L24765 36792
" />
<path d="M24630 37265
L24630 36792
" />
<path d="M24923 37017
L25080 37017
" />
<path d="M25148 37265
L24923 37265
L24923 36792
L25148 36792
" />
<path d="M25620 37265
L25463 37040
" />
<path d="M25350 37265
L25350 36792
L25530 36792
L25575 36815
L25598 36837
L25620 36882
L25620 36950
L25598 36995
L25575 37017
L25530 37040
L25350 37040
" />
</g>
<g style="fill:#000000; fill-opacity:0.0; 
stroke:#000000; stroke-width:98.4252; stroke-opacity:1; 
stroke-linecap:round; stroke-linejoin:round;">
<path d="M23100 34250 A300 300 0.0 0 0 22800 33950" />
<path d="M22800 33950
L21750 33950
" />
<path d="M23100 37700
L23100 34250
" />
<path d="M17750 47450 A300 300 0.0 0 0 18050 47750" />
<path d="M18050 39000 A300 300 0.0 0 0 17750 39300" />
<path d="M18050 47750
L18700 47750
" />
</g>
<g style="fill:#000000; fill-opacity:0.0; 
stroke:#000000; stroke-width:196.85; stroke-opacity:1; 
stroke-linecap:round; stroke-linejoin:round;">
<path d="M20750 43750
L20900 43750
" />
<path d="M20750 44250
L20600 44100
" />
<path d="M20250 44400
L20250 44250
" />
<path d="M20600 43400
L20750 43250
" />
<path d="M19600 43750
L19750 43750
" />
<path d="M20250 43250
L20250 43100
" />
<path d="M19900 43400
L19750 43250
" />
<path d="M19750 44250
L19900 44100
" />
<circle cx="20250" cy="43750" r="400" /> 
</g>
<g style="fill:#000000; fill-opacity:0.0; 
stroke:#000000; stroke-width:98.4252; stroke-opacity:1; 
stroke-linecap:round; stroke-linejoin:round;">
<path d="M17750 39300
L17750 47450
" />
<path d="M18850 39000
L18050 39000
" />
</g>
<g style="fill:#000000; fill-opacity:0.0; 
stroke:#000000; stroke-width:39.3701; stroke-opacity:1; 
stroke-linecap:round; stroke-linejoin:round;">
</g>
<g style="fill:#000000; fill-opacity:1.0; 
stroke:#000000; stroke-width:39.3701; stroke-opacity:1; 
stroke-linecap:round; stroke-linejoin:round;">
<path style="fill:#000000; fill-opacity:1.0; 
stroke:#000000; stroke-width:39.3701; stroke-opacity:1; 
stroke-linecap:round; stroke-linejoin:round;fill-rule:evenodd;"
d="M 69000,48250
68750,48000
69000,47750
Z" /> 
</g>
<g style="fill:#000000; fill-opacity:1.0; 
stroke:#000000; stroke-width:98.4252; stroke-opacity:1; 
stroke-linecap:round; stroke-linejoin:round;">
</g>
<g style="fill:#000000; fill-opacity:0.0; 
stroke:#000000; stroke-width:98.4252; stroke-opacity:1; 
stroke-linecap:round; stroke-linejoin:round;">
<path d="M69300 48000
L69000 48000
" />
<path d="M69500 48800
L69500 48200
" />
<path d="M69000 49000
L69300 49000
" />
</g>
<g style="fill:#000000; fill-opacity:0.0; 
stroke:#000000; stroke-width:59.0551; stroke-opacity:1; 
stroke-linecap:round; stroke-linejoin:round;">
<text x="69250" y="55795.3"
textLength="639.201" font-size="787.402" lengthAdjust="spacingAndGlyphs"
text-anchor="middle" opacity="0">0</text>
<path d="M69221 55176
L69278 55176
L69334 55204
L69362 55232
L69390 55289
L69418 55401
L69418 55542
L69390 55654
L69362 55710
L69334 55739
L69278 55767
L69221 55767
L69165 55739
L69137 55710
L69109 55654
L69081 55542
L69081 55401
L69109 55289
L69137 55232
L69165 55204
L69221 55176
" />
<text x="68750" y="50795.3"
textLength="1679.7" font-size="787.402" lengthAdjust="spacingAndGlyphs"
text-anchor="middle" opacity="0">x10</text>
<path d="M68032 50767
L68342 50373
" />
<path d="M68032 50373
L68342 50767
" />
<path d="M68876 50767
L68539 50767
" />
<path d="M68707 50767
L68707 50176
L68651 50260
L68595 50317
L68539 50345
" />
<path d="M69242 50176
L69298 50176
L69354 50204
L69382 50232
L69410 50289
L69438 50401
L69438 50542
L69410 50654
L69382 50710
L69354 50739
L69298 50767
L69242 50767
L69185 50739
L69157 50710
L69129 50654
L69101 50542
L69101 50401
L69129 50289
L69157 50232
L69185 50204
L69242 50176
" />
</g>
<g style="fill:#000000; fill-opacity:0.0; 
stroke:#000000; stroke-width:118.11; stroke-opacity:1; 
stroke-linecap:round; stroke-linejoin:round;">
<text x="71750" y="48893.7"
textLength="2626.45" font-size="1049.87" lengthAdjust="spacingAndGlyphs"
text-anchor="middle" opacity="0">INST</text>
<path d="M70662 48856
L70662 48068
" />
<path d="M71037 48856
L71037 48068
L71487 48856
L71487 48068
" />
<path d="M71824 48818
L71937 48856
L72124 48856
L72199 48818
L72237 48781
L72274 48706
L72274 48631
L72237 48556
L72199 48518
L72124 48481
L71974 48443
L71899 48406
L71862 48368
L71824 48293
L71824 48218
L71862 48143
L71899 48106
L71974 48068
L72162 48068
L72274 48106
" />
<path d="M72499 48068
L72949 48068
" />
<path d="M72724 48856
L72724 48068
" />
<text x="71750" y="53893.7"
textLength="3415.64" font-size="1049.87" lengthAdjust="spacingAndGlyphs"
text-anchor="middle" opacity="0">MENU</text>
<path d="M70306 53856
L70306 53068
L70568 53631
L70831 53068
L70831 53856
" />
<path d="M71206 53443
L71468 53443
" />
<path d="M71581 53856
L71206 53856
L71206 53068
L71581 53068
" />
<path d="M71918 53856
L71918 53068
L72368 53856
L72368 53068
" />
<path d="M72743 53068
L72743 53706
L72781 53781
L72818 53818
L72893 53856
L73043 53856
L73118 53818
L73156 53781
L73193 53706
L73193 53068
" />
<text x="46000" y="60604.3"
textLength="2819.46" font-size="944.882" lengthAdjust="spacingAndGlyphs"
text-anchor="middle" opacity="0">PERF</text>
<path d="M44835 60570
L44835 59861
L45105 59861
L45173 59895
L45206 59929
L45240 59996
L45240 60098
L45206 60165
L45173 60199
L45105 60233
L44835 60233
" />
<path d="M45544 60199
L45780 60199
" />
<path d="M45881 60570
L45544 60570
L45544 59861
L45881 59861
" />
<path d="M46590 60570
L46354 60233
" />
<path d="M46185 60570
L46185 59861
L46455 59861
L46523 59895
L46556 59929
L46590 59996
L46590 60098
L46556 60165
L46523 60199
L46455 60233
L46185 60233
" />
<path d="M47130 60199
L46894 60199
" />
<path d="M46894 60570
L46894 59861
L47231 59861
" />
<text x="20250" y="54393.7"
textLength="2665.73" font-size="1049.87" lengthAdjust="spacingAndGlyphs"
text-anchor="middle" opacity="0">MOD</text>
<path d="M19181 54356
L19181 53568
L19443 54131
L19706 53568
L19706 54356
" />
<path d="M20231 53568
L20381 53568
L20456 53606
L20531 53681
L20568 53831
L20568 54093
L20531 54243
L20456 54318
L20381 54356
L20231 54356
L20156 54318
L20081 54243
L20043 54093
L20043 53831
L20081 53681
L20156 53606
L20231 53568
" />
<path d="M20906 54356
L20906 53568
L21093 53568
L21206 53606
L21281 53681
L21318 53756
L21356 53906
L21356 54018
L21318 54168
L21281 54243
L21206 54318
L21093 54356
L20906 54356
" />
<text x="20250" y="49393.7"
textLength="3190.66" font-size="1049.87" lengthAdjust="spacingAndGlyphs"
text-anchor="middle" opacity="0">MTRX</text>
<path d="M18918 49356
L18918 48568
L19181 49131
L19443 48568
L19443 49356
" />
<path d="M19706 48568
L20156 48568
" />
<path d="M19931 49356
L19931 48568
" />
<path d="M20868 49356
L20606 48981
" />
<path d="M20418 49356
L20418 48568
L20718 48568
L20793 48606
L20831 48643
L20868 48718
L20868 48831
L20831 48906
L20793 48943
L20718 48981
L20418 48981
" />
<path d="M21131 48568
L21656 49356
" />
<path d="M21656 48568
L21131 49356
" />
<text x="20250" y="39393.7"
textLength="2553.24" font-size="1049.87" lengthAdjust="spacingAndGlyphs"
text-anchor="middle" opacity="0">OP#</text>
<path d="M19387 38568
L19537 38568
L19612 38606
L19687 38681
L19725 38831
L19725 39093
L19687 39243
L19612 39318
L19537 39356
L19387 39356
L19312 39318
L19237 39243
L19200 39093
L19200 38831
L19237 38681
L19312 38606
L19387 38568
" />
<path d="M20062 39356
L20062 38568
L20362 38568
L20437 38606
L20474 38643
L20512 38718
L20512 38831
L20474 38906
L20437 38943
L20362 38981
L20062 38981
" />
<path d="M20812 38831
L21374 38831
" />
<path d="M21037 38493
L20812 39506
" />
<path d="M21299 39168
L20737 39168
" />
<path d="M21074 39506
L21299 38493
" />
<text x="20250" y="34393.7"
textLength="2478.25" font-size="1049.87" lengthAdjust="spacingAndGlyphs"
text-anchor="middle" opacity="0">ENG</text>
<path d="M19275 33943
L19537 33943
" />
<path d="M19650 34356
L19275 34356
L19275 33568
L19650 33568
" />
<path d="M19987 34356
L19987 33568
L20437 34356
L20437 33568
" />
<path d="M21224 33606
L21149 33568
L21037 33568
L20924 33606
L20849 33681
L20812 33756
L20774 33906
L20774 34018
L20812 34168
L20849 34243
L20924 34318
L21037 34356
L21112 34356
L21224 34318
L21262 34281
L21262 34018
L21112 34018
" />
</g>
<g style="fill:#000000; fill-opacity:0.0; 
stroke:#000000; stroke-width:98.4252; stroke-opacity:1; 
stroke-linecap:round; stroke-linejoin:round;">
<path d="M71750 58500
L71750 56750
" />
<path d="M20250 58500
L20250 57250
" />
<path d="M20250 58500 A750 750 0.0 0 0 21000 59250" />
<path d="M71000 59250 A750 750 0.0 0 0 71750 58500" />
<path d="M66500 59250
L71000 59250
" />
<path d="M54000 59250
L62750 59250
" />
<path d="M41500 59250
L50500 59250
" />
<path d="M29000 59250
L38000 59250
" />
</g>
<g style="fill:#000000; fill-opacity:0.0; 
stroke:#000000; stroke-width:47.2441; stroke-opacity:1; 
stroke-linecap:round; stroke-linejoin:round;">
<path d="M25500 59250
L25250 59250
" />
</g>
<g style="fill:#000000; fill-opacity:0.0; 
stroke:#000000; stroke-width:98.4252; stroke-opacity:1; 
stroke-linecap:round; stroke-linejoin:round;">
<path d="M21000 59250
L25500 59250
" />
</g>
<g style="fill:#000000; fill-opacity:0.0; 
stroke:#000000; stroke-width:137.795; stroke-opacity:1; 
stroke-linecap:round; stroke-linejoin:round;">
<text x="46216.5" y="49925.2"
textLength="16970.2" font-size="1364.83" lengthAdjust="spacingAndGlyphs"
text-anchor="middle" opacity="0">Frequency Modulation</text>
<path d="M38393 49340
L38051 49340
" />
<path d="M38051 49876
L38051 48852
L38539 48852
" />
<path d="M38929 49876
L38929 49194
" />
<path d="M38929 49389
L38978 49291
L39026 49242
L39124 49194
L39221 49194
" />
<path d="M39952 49827
L39855 49876
L39660 49876
L39562 49827
L39514 49730
L39514 49340
L39562 49242
L39660 49194
L39855 49194
L39952 49242
L40001 49340
L40001 49437
L39514 49535
" />
<path d="M40879 49194
L40879 50217
" />
<path d="M40879 49827
L40781 49876
L40586 49876
L40489 49827
L40440 49778
L40391 49681
L40391 49389
L40440 49291
L40489 49242
L40586 49194
L40781 49194
L40879 49242
" />
<path d="M41805 49194
L41805 49876
" />
<path d="M41366 49194
L41366 49730
L41415 49827
L41512 49876
L41658 49876
L41756 49827
L41805 49778
" />
<path d="M42682 49827
L42585 49876
L42390 49876
L42292 49827
L42243 49730
L42243 49340
L42292 49242
L42390 49194
L42585 49194
L42682 49242
L42731 49340
L42731 49437
L42243 49535
" />
<path d="M43170 49194
L43170 49876
" />
<path d="M43170 49291
L43218 49242
L43316 49194
L43462 49194
L43559 49242
L43608 49340
L43608 49876
" />
<path d="M44534 49827
L44437 49876
L44242 49876
L44144 49827
L44096 49778
L44047 49681
L44047 49389
L44096 49291
L44144 49242
L44242 49194
L44437 49194
L44534 49242
" />
<path d="M44876 49194
L45119 49876
" />
<path d="M45363 49194
L45119 49876
L45022 50120
L44973 50168
L44876 50217
" />
<path d="M46533 49876
L46533 48852
L46874 49583
L47215 48852
L47215 49876
" />
<path d="M47849 49876
L47751 49827
L47703 49778
L47654 49681
L47654 49389
L47703 49291
L47751 49242
L47849 49194
L47995 49194
L48093 49242
L48141 49291
L48190 49389
L48190 49681
L48141 49778
L48093 49827
L47995 49876
L47849 49876
" />
<path d="M49068 49876
L49068 48852
" />
<path d="M49068 49827
L48970 49876
L48775 49876
L48678 49827
L48629 49778
L48580 49681
L48580 49389
L48629 49291
L48678 49242
L48775 49194
L48970 49194
L49068 49242
" />
<path d="M49994 49194
L49994 49876
" />
<path d="M49555 49194
L49555 49730
L49604 49827
L49701 49876
L49847 49876
L49945 49827
L49994 49778
" />
<path d="M50627 49876
L50530 49827
L50481 49730
L50481 48852
" />
<path d="M51456 49876
L51456 49340
L51407 49242
L51310 49194
L51115 49194
L51017 49242
" />
<path d="M51456 49827
L51359 49876
L51115 49876
L51017 49827
L50969 49730
L50969 49632
L51017 49535
L51115 49486
L51359 49486
L51456 49437
" />
<path d="M51797 49194
L52187 49194
" />
<path d="M51943 48852
L51943 49730
L51992 49827
L52090 49876
L52187 49876
" />
<path d="M52528 49876
L52528 49194
" />
<path d="M52528 48852
L52480 48901
L52528 48950
L52577 48901
L52528 48852
L52528 48950
" />
<path d="M53162 49876
L53065 49827
L53016 49778
L52967 49681
L52967 49389
L53016 49291
L53065 49242
L53162 49194
L53308 49194
L53406 49242
L53455 49291
L53503 49389
L53503 49681
L53455 49778
L53406 49827
L53308 49876
L53162 49876
" />
<path d="M53942 49194
L53942 49876
" />
<path d="M53942 49291
L53991 49242
L54088 49194
L54234 49194
L54332 49242
L54381 49340
L54381 49876
" />
<text x="46216.5" y="51598.4"
textLength="13047.5" font-size="1364.83" lengthAdjust="spacingAndGlyphs"
text-anchor="middle" opacity="0">Sound Generator</text>
<path d="M39977 51500
L40123 51549
L40367 51549
L40464 51500
L40513 51452
L40562 51354
L40562 51257
L40513 51159
L40464 51110
L40367 51062
L40172 51013
L40074 50964
L40026 50916
L39977 50818
L39977 50721
L40026 50623
L40074 50574
L40172 50526
L40416 50526
L40562 50574
" />
<path d="M41147 51549
L41049 51500
L41000 51452
L40952 51354
L40952 51062
L41000 50964
L41049 50916
L41147 50867
L41293 50867
L41390 50916
L41439 50964
L41488 51062
L41488 51354
L41439 51452
L41390 51500
L41293 51549
L41147 51549
" />
<path d="M42365 50867
L42365 51549
" />
<path d="M41927 50867
L41927 51403
L41975 51500
L42073 51549
L42219 51549
L42317 51500
L42365 51452
" />
<path d="M42853 50867
L42853 51549
" />
<path d="M42853 50964
L42901 50916
L42999 50867
L43145 50867
L43243 50916
L43291 51013
L43291 51549
" />
<path d="M44218 51549
L44218 50526
" />
<path d="M44218 51500
L44120 51549
L43925 51549
L43828 51500
L43779 51452
L43730 51354
L43730 51062
L43779 50964
L43828 50916
L43925 50867
L44120 50867
L44218 50916
" />
<path d="M46021 50574
L45924 50526
L45777 50526
L45631 50574
L45534 50672
L45485 50769
L45436 50964
L45436 51110
L45485 51305
L45534 51403
L45631 51500
L45777 51549
L45875 51549
L46021 51500
L46070 51452
L46070 51110
L45875 51110
" />
<path d="M46898 51500
L46801 51549
L46606 51549
L46508 51500
L46460 51403
L46460 51013
L46508 50916
L46606 50867
L46801 50867
L46898 50916
L46947 51013
L46947 51110
L46460 51208
" />
<path d="M47386 50867
L47386 51549
" />
<path d="M47386 50964
L47435 50916
L47532 50867
L47678 50867
L47776 50916
L47825 51013
L47825 51549
" />
<path d="M48702 51500
L48604 51549
L48410 51549
L48312 51500
L48263 51403
L48263 51013
L48312 50916
L48410 50867
L48604 50867
L48702 50916
L48751 51013
L48751 51110
L48263 51208
" />
<path d="M49189 51549
L49189 50867
" />
<path d="M49189 51062
L49238 50964
L49287 50916
L49384 50867
L49482 50867
" />
<path d="M50262 51549
L50262 51013
L50213 50916
L50116 50867
L49921 50867
L49823 50916
" />
<path d="M50262 51500
L50164 51549
L49921 51549
L49823 51500
L49774 51403
L49774 51305
L49823 51208
L49921 51159
L50164 51159
L50262 51110
" />
<path d="M50603 50867
L50993 50867
" />
<path d="M50749 50526
L50749 51403
L50798 51500
L50895 51549
L50993 51549
" />
<path d="M51480 51549
L51383 51500
L51334 51452
L51285 51354
L51285 51062
L51334 50964
L51383 50916
L51480 50867
L51627 50867
L51724 50916
L51773 50964
L51822 51062
L51822 51354
L51773 51452
L51724 51500
L51627 51549
L51480 51549
" />
<path d="M52260 51549
L52260 50867
" />
<path d="M52260 51062
L52309 50964
L52358 50916
L52455 50867
L52553 50867
" />
</g>
<g style="fill:#000000; fill-opacity:0.0; 
stroke:#000000; stroke-width:314.961; stroke-opacity:1; 
stroke-linecap:round; stroke-linejoin:round;">
<text x="50948.8" y="29783.5"
textLength="6928.29" font-size="3149.61" lengthAdjust="spacingAndGlyphs"
text-anchor="middle" opacity="0">fm2</text>
<path d="M47799 28096
L48699 28096
" />
<path d="M48136 29670
L48136 27646
L48249 27421
L48474 27308
L48699 27308
" />
<path d="M49486 29670
L49486 28096
" />
<path d="M49486 28321
L49598 28208
L49823 28096
L50161 28096
L50386 28208
L50498 28433
L50498 29670
" />
<path d="M50498 28433
L50611 28208
L50836 28096
L51173 28096
L51398 28208
L51511 28433
L51511 29670
" />
<path d="M52523 27533
L52636 27421
L52861 27308
L53423 27308
L53648 27421
L53760 27533
L53873 27758
L53873 27983
L53760 28321
L52411 29670
L53873 29670
" />
</g>
<g style="fill:#000000; fill-opacity:0.0; 
stroke:#000000; stroke-width:157.48; stroke-opacity:1; 
stroke-linecap:round; stroke-linejoin:round;">
<text x="46047.2" y="29763.8"
textLength="16944.9" font-size="3149.61" lengthAdjust="spacingAndGlyphs"
text-anchor="middle" opacity="0">preenfm2</text>
<path d="M38341 28076
L38341 30438
" />
<path d="M38341 28188
L38566 28076
L39016 28076
L39241 28188
L39354 28301
L39466 28526
L39466 29201
L39354 29426
L39241 29538
L39016 29651
L38566 29651
L38341 29538
" />
<path d="M40479 29651
L40479 28076
" />
<path d="M40479 28526
L40591 28301
L40704 28188
L40929 28076
L41154 28076
" />
<path d="M42841 29538
L42616 29651
L42166 29651
L41941 29538
L41829 29313
L41829 28413
L41941 28188
L42166 28076
L42616 28076
L42841 28188
L42953 28413
L42953 28638
L41829 28863
" />
<path d="M44866 29538
L44641 29651
L44191 29651
L43966 29538
L43853 29313
L43853 28413
L43966 28188
L44191 28076
L44641 28076
L44866 28188
L44978 28413
L44978 28638
L43853 28863
" />
<path d="M45991 28076
L45991 29651
" />
<path d="M45991 28301
L46103 28188
L46328 28076
L46665 28076
L46890 28188
L47003 28413
L47003 29651
" />
<path d="M47790 28076
L48690 28076
" />
<path d="M48128 29651
L48128 27626
L48240 27401
L48465 27289
L48690 27289
" />
<path d="M49478 29651
L49478 28076
" />
<path d="M49478 28301
L49590 28188
L49815 28076
L50152 28076
L50377 28188
L50490 28413
L50490 29651
" />
<path d="M50490 28413
L50602 28188
L50827 28076
L51165 28076
L51390 28188
L51502 28413
L51502 29651
" />
<path d="M52515 27514
L52627 27401
L52852 27289
L53415 27289
L53640 27401
L53752 27514
L53865 27739
L53865 27964
L53752 28301
L52402 29651
L53865 29651
" />
</g>
<g style="fill:#000000; fill-opacity:1.0; 
stroke:#000000; stroke-width:3.93701; stroke-opacity:1; 
stroke-linecap:round; stroke-linejoin:round;">
<path style="fill:#000000; fill-opacity:1.0; 
stroke:#000000; stroke-width:3.93701; stroke-opacity:1; 
stroke-linecap:round; stroke-linejoin:round;fill-rule:evenodd;"
d="M 46133,53147
46195.9,53147.9
46250.7,53149.8
46300.6,53152.9
46348.7,53157.4
46398.2,53163.6
46452.2,53171.6
46480.5,53176.2
46665.2,53213.6
46845.6,53264.4
47021.1,53328
47190.9,53404.1
47354.5,53492.2
47511.2,53591.7
47660.3,53702.4
47801.3,53823.6
47933.4,53954.9
48056,54095.9
48168.5,54246.1
48270.3,54405.1
48313.9,54482.1
48398.1,54651.8
48469,54826.1
48526.6,55004.3
48570.8,55185.6
48601.6,55369.3
48618.9,55554.7
48622.7,55740.9
48612.9,55927.2
48589.5,56112.8
48552.5,56297.1
48501.7,56479.1
48457.1,56607.1
48436,56659.2
48409.5,56719.3
48379.1,56784.2
48346.4,56850.8
48313.1,56915.7
48280.6,56975.9
48250.6,57028.1
48232.5,57057.4
48127.2,57210.5
48016.3,57351.5
47898.4,57481.9
47772.1,57603
47662.6,57695.6
47508,57810.4
47347,57912.4
47179.7,58001.5
47006.5,58077.8
46827.4,58141
46642.6,58191.2
46452.3,58228.3
46373.3,58239.6
46332.2,58243.7
46279.9,58247.3
46219.5,58250.2
46154.1,58252.3
46086.9,58253.7
46020.8,58254.3
45959.1,58253.9
45904.8,58252.6
45861.1,58250.2
45853.9,58249.6
45663.2,58225.6
45475.9,58187.9
45292.8,58136.7
45114.5,58072.5
44941.6,57995.3
44774.8,57905.4
44614.5,57803.1
44466.2,57692.4
44321.9,57567.4
44187.9,57432.6
44064.7,57288.7
43952.7,57136
43852.2,56975.2
43782.3,56844.7
43705.8,56678.9
43642.7,56513.8
43592.2,56347.4
43553.9,56177.4
43527,56001.6
43516.6,55897.8
43508.6,55715.4
43511.4,55628.4
43803.5,55628.4
43804.7,55805.7
43819.6,55983
43848.3,56159.3
43849.3,56164.1
43891.3,56333.5
43946.8,56499.4
44015.4,56660.7
44096.6,56816.6
44190,56966.3
44295,57108.8
44411.2,57243.4
44466,57300.2
44599.1,57423.4
44739.8,57534.6
44887.7,57633.6
45042.5,57720.2
45203.8,57794.2
45371.2,57855.5
45544.4,57903.9
45723.1,57939.3
45856,57956.7
45900,57959.9
45955,57961.6
46017.9,57962.2
46085.6,57961.5
46154.9,57959.7
46222.7,57956.8
46285.8,57953
46341,57948.3
46384.1,57943.1
46565.9,57908.5
46741.4,57861.2
46910.4,57801.3
47072.7,57728.8
47228.1,57643.9
47376.4,57546.7
47517.4,57437.2
47650.9,57315.7
47666.3,57300.3
47788.1,57168.5
47898.6,57028.7
47997.3,56881.6
48084,56728
48158.1,56568.7
48219.3,56404.4
48267.1,56235.8
48283.4,56162.5
48295.9,56099.5
48305.7,56044.4
48313.2,55993.9
48318.8,55944.9
48322.5,55894.4
48324.9,55839
48326.1,55775.8
48326.4,55701.5
48326.4,55700
48326.2,55630.6
48325.4,55573.1
48323.9,55525.4
48321.7,55484.9
48318.7,55449.5
48314.7,55416.8
48313.8,55410.7
48289.2,55266.2
48258.8,55131.8
48221.6,55004.1
48176.7,54879.8
48122.9,54755.4
48098,54703.6
48049,54608.4
47999.8,54522.3
47947.4,54440.4
47888.9,54357.8
47876,54340.4
47763,54201.8
47640.6,54073.5
47509.4,53955.9
47370,53849.3
47223.3,53754.1
47069.9,53670.6
46910.5,53599.2
46745.8,53540.3
46576.6,53494.1
46403.5,53461.1
46227.2,53441.6
46066.2,53435.8
45888.5,53442.8
45713.5,53463.5
45542.1,53497.4
45374.8,53544.2
45212.3,53603.4
45055.3,53674.7
44904.3,53757.5
44760.1,53851.5
44623.2,53956.2
44494.4,54071.3
44374.3,54196.2
44263.6,54330.7
44162.8,54474.2
44072.7,54626.3
43998.8,54775.5
43933.2,54938.3
43880.8,55106
43841.7,55277.5
43815.8,55452
43803.5,55628.4
43511.4,55628.4
43514.4,55531.9
43533.7,55348.7
43566.3,55166.8
43611.7,54987.5
43669.7,54811.8
43740.1,54641.1
43822.4,54476.4
43916.4,54319
43929.5,54299
44034.8,54150.7
44145.7,54014.3
44264.1,53887.8
44391.6,53769.5
44476.9,53698.6
44630.4,53585.4
44791.2,53484.4
44958.7,53395.8
45132.3,53320
45311.4,53257.1
45495.6,53207.5
45594.8,53186.7
45660.1,53174.9
45718.9,53165.6
45774.4,53158.5
45829.8,53153.4
45888.4,53149.9
45953.5,53147.9
46028.4,53147
46059.1,53146.8
Z" /> 
<path style="fill:#000000; fill-opacity:1.0; 
stroke:#000000; stroke-width:3.93701; stroke-opacity:1; 
stroke-linecap:round; stroke-linejoin:round;fill-rule:evenodd;"
d="M 45138.4,54119.9
45175.2,54134.4
45204.5,54155.5
45206.9,54158.1
45216,54168.3
45223.5,54178.5
45229.5,54189.9
45234.3,54204.1
45238,54222.4
45240.7,54246.3
45242.5,54277.1
45243.7,54316.2
45244.4,54365.2
45244.7,54425.3
45244.8,54498
45244.8,54514.1
45244.8,54800
46887.6,54800
46887.6,54514.1
46887.7,54438.7
46887.9,54376.2
46888.5,54325.1
46889.6,54284.1
46891.3,54251.8
46893.8,54226.6
46897.3,54207.3
46901.8,54192.5
46907.6,54180.6
46914.8,54170.3
46923.5,54160.2
46925.5,54158.1
46954.5,54135.7
46991,54121
47030.4,54114.8
47068.1,54118.1
47089.8,54125.8
47123.7,54148.5
47152.7,54178.1
47165.1,54196.4
47168,54203.2
47170.5,54212.7
47172.6,54226.1
47174.2,54245
47175.5,54270.5
47176.6,54304.2
47177.4,54347.4
47178.1,54401.3
47178.7,54467.5
47179.1,54508.9
47181.2,54800
47644.8,54800
47644.8,55249.2
47644.7,55351.2
47644.4,55440.2
47643.9,55517.5
47643.2,55584.4
47642,55642.3
47640.5,55692.4
47638.5,55736.1
47635.9,55774.6
47632.8,55809.2
47629.1,55841.3
47624.7,55872.2
47619.5,55903.1
47615.7,55924
47582.3,56064.1
47535.7,56200.1
47476.6,56331.3
47405.8,56456.5
47323.9,56575.1
47231.8,56685.9
47130,56788.2
47019.5,56881
46900.8,56963.4
46774.8,57034.4
46697,57070.8
46557.5,57123.4
46412.4,57163
46296.7,57184.5
46212.6,57197.1
46209.1,57403.9
46207.9,57467.1
46206.6,57517.7
46205,57557.5
46202.6,57588.1
46199.4,57611.2
46194.9,57628.7
46188.8,57642
46181,57653.1
46171,57663.6
46165,57669.3
46133.6,57690.2
46095.5,57703.1
46055.8,57706.8
46019.4,57700.3
46016.4,57699.2
45987.1,57682.8
45959.7,57659.7
45940.1,57634.7
45939.4,57633.6
45935.7,57625.2
45932.7,57614.2
45930.3,57598.7
45928.4,57577.1
45926.8,57547.7
45925.5,57508.9
45924.4,57459
45923.3,57403.9
45919.8,57197
45841.2,57185.1
45694.1,57155.9
45552.3,57113.9
45416.4,57059.8
45287,56994
45165,56917.4
45050.8,56830.4
44945.2,56733.6
44848.9,56627.6
44762.5,56513.1
44686.7,56390.6
44622.1,56260.8
44569.4,56124.1
44537.5,56015
44529.3,55982.3
44522.1,55953
44515.9,55925.9
44510.7,55899.6
44506.3,55873
44503,55847.9
45066.4,55847.9
45067.2,55866.5
45070.7,55884
45078.1,55903.3
45090.6,55927.1
45109.5,55958.3
45122.1,55978.2
45189.6,56076.5
45257.8,56160.6
45327,56230.6
45397.1,56286.7
45468.4,56328.8
45541,56357
45615.1,56371.6
45690.8,56372.5
45768.3,56359.8
45769.1,56359.6
45816.9,56343.6
45870.3,56318.8
45925.2,56287.3
45977.7,56251.2
45996.1,56235.9
46022.8,56212
46056.2,56180.8
46094.8,56143.9
46136.9,56102.8
46181,56059.1
46216.2,56023.6
46275.1,55964.3
46325.5,55914.7
46368.6,55873.9
46405.4,55840.9
46437,55814.9
46464.4,55794.9
46488.9,55780.1
46511.4,55769.5
46522.6,55765.3
46559.4,55757.8
46596.2,55760.5
46634.1,55774.1
46674,55799.1
46717,55836
46764.2,55885.5
46777.1,55900.2
46805.5,55932.2
46827.7,55954.8
46846.1,55969.9
46862.9,55979.7
46869.5,55982.4
46912,55991.8
46953.5,55988.4
46991.6,55973.8
47024,55949.3
47048.4,55916.4
47062.6,55876.5
47064.7,55861
47064,55830.5
47056.2,55800.1
47040.1,55767.6
47014.7,55730.9
46978.9,55687.8
46978.7,55687.6
46912.2,55618.2
46846.3,55562.5
46780.1,55519.9
46712.7,55489.9
46643.3,55472
46591.2,55466.2
46522.4,55467.7
46455.8,55480.2
46389.4,55504.2
46321,55540.5
46286.9,55562.5
46249.6,55589.3
46210.6,55620.6
46168.4,55657.8
46121.5,55702.1
46068.6,55754.9
46009.1,55816.6
45951.3,55876.6
45901.7,55926.6
45859,55967.7
45822,56000.8
45789.7,56026.8
45760.9,56046.6
45734.3,56061.4
45709,56071.9
45697.2,56075.6
45661.9,56081.4
45626.4,56077.6
45590,56063.7
45552.1,56039.3
45511.8,56003.7
45468.6,55956.4
45421.6,55896.9
45370.4,55824.7
45366.2,55818.6
45337.1,55777.4
45312.4,55747.3
45290.2,55726.3
45268.5,55712.9
45245.2,55705.2
45234.8,55703.3
45192,55703.6
45152.1,55716.2
45117.3,55739.3
45089.9,55770.7
45072.2,55808.8
45066.4,55847.9
44503,55847.9
44502.6,55844.8
44499.6,55813.7
44497.2,55778.4
44495.3,55737.8
44493.9,55690.6
44492.7,55635.5
44491.8,55571.3
44491.1,55496.7
44490.5,55410.5
44489.9,55311.4
44489.8,55298.2
44486.7,54800
44951.9,54800
44951.9,54532.5
44952.1,54455.5
44952.8,54387.9
44953.9,54330.6
44955.4,54284.7
44957.2,54251
44959.4,54230.5
44959.8,54228.4
44975.3,54187.8
45001.5,54154.3
45036,54129.8
45076.2,54116.4
45099.8,54114.4
Z" /> 
<g >
</g>
</g>
<g style="fill:#000000; fill-opacity:1.0; 
stroke:#000000; stroke-width:3.93701; stroke-opacity:1; 
stroke-linecap:round; stroke-linejoin:round;">
</g>
<g style="fill:#000000; fill-opacity:0.0; 
stroke:#000000; stroke-width:19.685; stroke-opacity:1; 
stroke-linecap:round; stroke-linejoin:round;">
<path d="M15250 62850 A800 800 0.0 0 0 16050 63650" />
<path d="M75850 63650 A800 800 0.0 0 0 76650 62850" />
<path d="M76650 26050 A800 800 0.0 0 0 75850 25250" />
<path d="M16050 25250 A800 800 0.0 0 0 15250 26050" />
<path d="M64811 47318
L64811 31665
" />
<path d="M26437 31665
L64811 31665
" />
<path d="M26437 47318
L64811 47318
" />
<path d="M26437 47318
L26437 31665
" />
<circle cx="71500" cy="42750" r="1581.14" /> 
<circle cx="64750" cy="59250" r="1581.14" /> 
<circle cx="52250" cy="59250" r="1581.14" /> 
<circle cx="39750" cy="59250" r="1581.14" /> 
<circle cx="27250" cy="59250" r="1581.14" /> 
<path d="M69750 51650
L69750 49350
" />
<path d="M69750 49350
L73750 49350
" />
<path d="M73750 51650
L69750 51650
" />
<path d="M73750 49350
L73750 51650
" />
<path d="M73750 56650
L69750 56650
" />
<path d="M69750 54350
L73750 54350
" />
<path d="M73750 54350
L73750 56650
" />
<path d="M69750 56650
L69750 54350
" />
<path d="M22250 34850
L22250 37150
" />
<path d="M22250 37150
L18250 37150
" />
<path d="M18250 37150
L18250 34850
" />
<path d="M18250 34850
L22250 34850
" />
<path d="M22250 39850
L22250 42150
" />
<path d="M18250 42150
L18250 39850
" />
<path d="M18250 39850
L22250 39850
" />
<path d="M22250 42150
L18250 42150
" />
<path d="M18250 47150
L18250 44850
" />
<path d="M18250 44850
L22250 44850
" />
<path d="M22250 44850
L22250 47150
" />
<path d="M22250 47150
L18250 47150
" />
<path d="M22250 52150
L18250 52150
" />
<path d="M18250 49850
L22250 49850
" />
<path d="M22250 49850
L22250 52150
" />
<path d="M18250 52150
L18250 49850
" />
<path d="M18250 57150
L18250 54850
" />
<path d="M22250 57150
L18250 57150
" />
<path d="M22250 54850
L22250 57150
" />
<path d="M18250 54850
L22250 54850
" />
<path d="M71000 27000
L71000 25750
" />
<path d="M73750 25750
L73750 27000
" />
<path d="M71000 25750
L73750 25750
" />
<path d="M73750 27000
L71000 27000
" />
<path d="M76650 62850
L76650 46150
" />
<path d="M47400 63650
L75850 63650
" />
<path d="M15250 62850
L15250 46150
" />
<path d="M44600 63650
L16050 63650
" />
<path d="M76650 26050
L76650 43350
" />
<path d="M15250 26050
L15250 43350
" />
<path d="M75850 25250
L16050 25250
" />
<path d="M47400 62400
L47400 63650
" />
<path d="M44600 63650
L44600 62400
" />
<path d="M44600 62400
L47400 62400
" />
<path d="M75400 46150
L75400 43350
" />
<path d="M75400 43350
L76650 43350
" />
<path d="M76650 46150
L75400 46150
" />
<path d="M16600 46150
L15250 46150
" />
<path d="M15250 43350
L16600 43350
" />
<path d="M16600 43350
L16600 46150
" />
<path d="M21000 27000
L18250 27000
" />
<path d="M21000 25750
L21000 27000
" />
<path d="M18250 25750
L21000 25750
" />
<path d="M18250 27000
L18250 25750
" />
<g >
</g>
<g >
</g>
<g >
</g>
<g >
</g>
<g >
</g>
<g >
</g>
<g >
</g>
</g> 
</svg>
