%
M48
M72
T01C0.0160
T02C0.0400
%
T01
X6340Y2300
X7740Y2860
X8140Y3100
X9100Y3340
X9420Y3100
X10480Y2980
X9340Y2580
X9540Y2300
X9900Y2260
X8780Y2460
X8580Y2140
X8020Y2140
X11740Y2060
X14860Y3000
X15980Y3220
X14180Y4280
X15580Y4320
X17320Y4320
X12880Y3380
X10380Y4140
X10020Y3980
X10420Y4500
X10820Y4500
X10780Y4860
X10700Y5580
X8700Y5500
X8060Y5500
X6700Y5660
X4540Y6460
X4780Y4860
X5900Y4860
X7700Y4740
T02
X900Y900
X1900Y900
X2900Y900
X3900Y900
X4900Y900
X5900Y900
X6900Y900
X7900Y900
X8900Y900
X9900Y900
X10900Y900
X11900Y900
X12900Y900
X13900Y900
X14900Y900
X15900Y900
X16900Y900
X17900Y900
X18900Y900
X19900Y900
X19900Y6900
X18900Y6900
X17900Y6900
X16900Y6900
X15900Y6900
X14900Y6900
X13900Y6900
X12900Y6900
X11900Y6900
X10900Y6900
X9900Y6900
X8900Y6900
X7900Y6900
X6900Y6900
X5900Y6900
X4900Y6900
X3900Y6900
X2900Y6900
X1900Y6900
X900Y6900
M30
