G75*
%MOIN*%
%OFA0B0*%
%FSLAX24Y24*%
%IPPOS*%
%LPD*%
%AMOC8*
5,1,8,0,0,1.08239X$1,22.5*
%
%ADD10C,0.0050*%
%ADD11C,0.0060*%
%ADD12C,0.0040*%
D10*
X000300Y000300D02*
X000300Y007500D01*
X020500Y007500D01*
X020500Y000300D01*
X000300Y000300D01*
X004685Y001460D02*
X005035Y001460D01*
X005035Y001635D01*
X004977Y001694D01*
X004860Y001694D01*
X004802Y001635D01*
X004802Y001460D01*
X004860Y001828D02*
X004860Y002062D01*
X004919Y002062D02*
X004685Y002062D01*
X004919Y002062D02*
X005035Y001945D01*
X004919Y001828D01*
X004685Y001828D01*
X004685Y002197D02*
X004743Y002197D01*
X004977Y002430D01*
X005035Y002430D01*
X005035Y002197D01*
X005685Y002255D02*
X005685Y002372D01*
X005743Y002430D01*
X005802Y002430D01*
X005860Y002372D01*
X005860Y002197D01*
X005743Y002197D01*
X005685Y002255D01*
X005860Y002197D02*
X005977Y002313D01*
X006035Y002430D01*
X005919Y002062D02*
X005685Y002062D01*
X005860Y002062D02*
X005860Y001828D01*
X005919Y001828D02*
X005685Y001828D01*
X005919Y001828D02*
X006035Y001945D01*
X005919Y002062D01*
X005977Y001694D02*
X005860Y001694D01*
X005802Y001635D01*
X005802Y001460D01*
X005685Y001460D02*
X006035Y001460D01*
X006035Y001635D01*
X005977Y001694D01*
X009685Y001828D02*
X009685Y002004D01*
X009743Y002062D01*
X009802Y002062D01*
X009860Y002004D01*
X009860Y001828D01*
X009685Y001828D02*
X010035Y001828D01*
X010035Y002004D01*
X009977Y002062D01*
X009919Y002062D01*
X009860Y002004D01*
X009860Y002197D02*
X009860Y002430D01*
X009685Y002372D02*
X010035Y002372D01*
X009860Y002197D01*
X010685Y002255D02*
X010685Y002372D01*
X010743Y002430D01*
X010977Y002430D01*
X011035Y002372D01*
X011035Y002255D01*
X010977Y002197D01*
X010919Y002197D01*
X010860Y002255D01*
X010860Y002430D01*
X010685Y002255D02*
X010743Y002197D01*
X010743Y002062D02*
X010685Y002004D01*
X010685Y001828D01*
X011035Y001828D01*
X011035Y002004D01*
X010977Y002062D01*
X010919Y002062D01*
X010860Y002004D01*
X010860Y001828D01*
X010860Y001694D02*
X010802Y001635D01*
X010802Y001460D01*
X010685Y001460D02*
X011035Y001460D01*
X011035Y001635D01*
X010977Y001694D01*
X010860Y001694D01*
X010860Y002004D02*
X010802Y002062D01*
X010743Y002062D01*
X011685Y002004D02*
X011685Y001828D01*
X012035Y001828D01*
X012035Y002004D01*
X011977Y002062D01*
X011919Y002062D01*
X011860Y002004D01*
X011860Y001828D01*
X011860Y001694D02*
X011802Y001635D01*
X011802Y001460D01*
X011685Y001460D02*
X012035Y001460D01*
X012035Y001635D01*
X011977Y001694D01*
X011860Y001694D01*
X011860Y002004D02*
X011802Y002062D01*
X011743Y002062D01*
X011685Y002004D01*
X011743Y002197D02*
X011685Y002255D01*
X011685Y002372D01*
X011743Y002430D01*
X011802Y002430D01*
X011860Y002372D01*
X011860Y002313D01*
X011860Y002372D02*
X011919Y002430D01*
X011977Y002430D01*
X012035Y002372D01*
X012035Y002255D01*
X011977Y002197D01*
X012685Y002197D02*
X012919Y002430D01*
X012977Y002430D01*
X013035Y002372D01*
X013035Y002255D01*
X012977Y002197D01*
X012685Y002197D02*
X012685Y002430D01*
X012743Y002062D02*
X012977Y002062D01*
X013035Y002004D01*
X013035Y001828D01*
X012685Y001828D01*
X012685Y002004D01*
X012743Y002062D01*
X012860Y001694D02*
X012802Y001635D01*
X012802Y001460D01*
X012685Y001460D02*
X013035Y001460D01*
X013035Y001635D01*
X012977Y001694D01*
X012860Y001694D01*
X010035Y001635D02*
X010035Y001460D01*
X009685Y001460D01*
X009802Y001460D02*
X009802Y001635D01*
X009860Y001694D01*
X009977Y001694D01*
X010035Y001635D01*
X007550Y003328D02*
X007492Y003328D01*
X007433Y003387D01*
X007433Y003679D01*
X007667Y003679D02*
X007667Y003503D01*
X007608Y003445D01*
X007433Y003445D01*
X007801Y003503D02*
X007860Y003445D01*
X008035Y003445D01*
X008035Y003795D01*
X008035Y003679D02*
X007860Y003679D01*
X007801Y003620D01*
X007801Y003503D01*
X006930Y003503D02*
X006872Y003445D01*
X006755Y003445D01*
X006697Y003503D01*
X006697Y003620D01*
X006813Y003620D01*
X006697Y003737D02*
X006755Y003795D01*
X006872Y003795D01*
X006930Y003737D01*
X006930Y003503D01*
X006562Y003445D02*
X006562Y003795D01*
X006328Y003795D02*
X006328Y003445D01*
X006193Y003445D02*
X006077Y003445D01*
X006135Y003445D02*
X006135Y003795D01*
X006193Y003795D02*
X006077Y003795D01*
X006328Y003620D02*
X006562Y003620D01*
X006503Y004045D02*
X006562Y004103D01*
X006562Y004220D01*
X006503Y004279D01*
X006328Y004279D01*
X006697Y004220D02*
X006697Y004162D01*
X006930Y004162D01*
X006930Y004220D02*
X006872Y004279D01*
X006755Y004279D01*
X006697Y004220D01*
X006755Y004045D02*
X006872Y004045D01*
X006930Y004103D01*
X006930Y004220D01*
X007065Y004279D02*
X007240Y004279D01*
X007298Y004220D01*
X007240Y004162D01*
X007123Y004162D01*
X007065Y004103D01*
X007123Y004045D01*
X007298Y004045D01*
X007433Y004045D02*
X007608Y004045D01*
X007667Y004103D01*
X007608Y004162D01*
X007433Y004162D01*
X007433Y004220D02*
X007433Y004045D01*
X007433Y004220D02*
X007492Y004279D01*
X007608Y004279D01*
X007801Y004279D02*
X007860Y004220D01*
X008035Y004220D01*
X007860Y004220D02*
X007801Y004162D01*
X007801Y004103D01*
X007860Y004045D01*
X008035Y004045D01*
X008035Y004395D01*
X007860Y004395D01*
X007801Y004337D01*
X007801Y004279D01*
X006503Y004045D02*
X006328Y004045D01*
X006328Y004395D01*
X005825Y004220D02*
X005825Y004103D01*
X005767Y004045D01*
X005650Y004045D01*
X005592Y004103D01*
X005592Y004220D01*
X005650Y004279D01*
X005767Y004279D01*
X005825Y004220D01*
X005457Y004279D02*
X005457Y004045D01*
X005223Y004045D02*
X005223Y004220D01*
X005282Y004279D01*
X005457Y004279D01*
X004720Y004220D02*
X004603Y004220D01*
X004352Y004220D02*
X004235Y004220D01*
X004352Y004045D02*
X004118Y004045D01*
X003984Y004045D02*
X003984Y004103D01*
X003750Y004337D01*
X003750Y004395D01*
X003984Y004395D01*
X004118Y004395D02*
X004352Y004395D01*
X004352Y004045D01*
X004720Y004045D02*
X004720Y004395D01*
X004487Y004395D01*
X003984Y004045D02*
X003750Y004045D01*
X003247Y004103D02*
X003189Y004045D01*
X003072Y004045D01*
X003013Y004103D01*
X002879Y004045D02*
X002645Y004045D01*
X002510Y004045D02*
X002510Y004395D01*
X002335Y004395D01*
X002277Y004337D01*
X002277Y004220D01*
X002335Y004162D01*
X002510Y004162D01*
X002394Y004162D02*
X002277Y004045D01*
X002142Y004045D02*
X001967Y004045D01*
X001908Y004103D01*
X001908Y004162D01*
X001967Y004220D01*
X002142Y004220D01*
X001967Y004220D02*
X001908Y004279D01*
X001908Y004337D01*
X001967Y004395D01*
X002142Y004395D01*
X002142Y004045D01*
X001774Y004220D02*
X001540Y004220D01*
X001405Y004103D02*
X001172Y004337D01*
X001172Y004103D01*
X001230Y004045D01*
X001347Y004045D01*
X001405Y004103D01*
X001405Y004337D01*
X001347Y004395D01*
X001230Y004395D01*
X001172Y004337D01*
X001599Y004395D02*
X001774Y004220D01*
X001599Y004045D02*
X001599Y004395D01*
X002645Y004395D02*
X002879Y004395D01*
X002879Y004045D01*
X002879Y004220D02*
X002762Y004220D01*
X003013Y004337D02*
X003072Y004395D01*
X003189Y004395D01*
X003247Y004337D01*
X003247Y004103D01*
X002882Y003854D02*
X002882Y003795D01*
X002882Y003679D02*
X002882Y003445D01*
X002940Y003445D02*
X002823Y003445D01*
X002694Y003503D02*
X002636Y003445D01*
X002461Y003445D01*
X002326Y003445D02*
X002151Y003445D01*
X002093Y003503D01*
X002151Y003562D01*
X002268Y003562D01*
X002326Y003620D01*
X002268Y003679D01*
X002093Y003679D01*
X002461Y003679D02*
X002636Y003679D01*
X002694Y003620D01*
X002694Y003503D01*
X002882Y003679D02*
X002940Y003679D01*
X003075Y003620D02*
X003075Y003445D01*
X003308Y003445D02*
X003308Y003679D01*
X003133Y003679D01*
X003075Y003620D01*
X003443Y003620D02*
X003443Y003503D01*
X003501Y003445D01*
X003618Y003445D01*
X003677Y003503D01*
X003677Y003620D01*
X003618Y003679D01*
X003501Y003679D01*
X003443Y003620D01*
X003808Y003679D02*
X003867Y003679D01*
X003984Y003562D01*
X003984Y003445D02*
X003984Y003679D01*
X004112Y003679D02*
X004229Y003679D01*
X004171Y003737D02*
X004171Y003503D01*
X004112Y003445D01*
X004364Y003445D02*
X004539Y003445D01*
X004597Y003503D01*
X004597Y003620D01*
X004539Y003679D01*
X004364Y003679D01*
X004732Y003620D02*
X004732Y003562D01*
X004966Y003562D01*
X004966Y003620D02*
X004966Y003503D01*
X004907Y003445D01*
X004791Y003445D01*
X005094Y003445D02*
X005211Y003445D01*
X005153Y003445D02*
X005153Y003795D01*
X005211Y003795D01*
X005346Y003795D02*
X005580Y003795D01*
X005580Y003445D01*
X005346Y003445D01*
X005463Y003620D02*
X005580Y003620D01*
X004966Y003620D02*
X004907Y003679D01*
X004791Y003679D01*
X004732Y003620D01*
X004765Y005405D02*
X005115Y005405D01*
X005115Y005580D01*
X005057Y005639D01*
X004940Y005639D01*
X004882Y005580D01*
X004882Y005405D01*
X004115Y005405D02*
X004115Y005580D01*
X004057Y005639D01*
X003940Y005639D01*
X003882Y005580D01*
X003882Y005405D01*
X003765Y005405D02*
X004115Y005405D01*
X004057Y005773D02*
X003823Y005773D01*
X003765Y005832D01*
X003765Y005948D01*
X003823Y006007D01*
X004057Y006007D02*
X004115Y005948D01*
X004115Y005832D01*
X004057Y005773D01*
X004765Y005832D02*
X004823Y005773D01*
X005057Y005773D01*
X005115Y005832D01*
X005115Y005948D01*
X005057Y006007D01*
X004940Y006142D02*
X004823Y006142D01*
X004765Y006200D01*
X004765Y006317D01*
X004823Y006375D01*
X004882Y006375D01*
X004940Y006317D01*
X004940Y006142D01*
X005057Y006258D01*
X005115Y006375D01*
X004823Y006007D02*
X004765Y005948D01*
X004765Y005832D01*
X004115Y006142D02*
X004115Y006375D01*
X004057Y006375D01*
X003823Y006142D01*
X003765Y006142D01*
X002940Y006047D02*
X002940Y005813D01*
X002823Y005679D02*
X003057Y005679D01*
X003115Y005620D01*
X003115Y005445D01*
X002765Y005445D01*
X002765Y005620D01*
X002823Y005679D01*
X002115Y005620D02*
X002115Y005445D01*
X001765Y005445D01*
X001765Y005620D01*
X001823Y005679D01*
X002057Y005679D01*
X002115Y005620D01*
X001940Y005813D02*
X001940Y006047D01*
X002057Y005930D02*
X001823Y005930D01*
X001075Y005872D02*
X001017Y005813D01*
X000783Y005813D01*
X000725Y005872D01*
X000725Y005988D01*
X000783Y006047D01*
X000783Y006182D02*
X000842Y006182D01*
X000900Y006240D01*
X000900Y006357D01*
X000842Y006415D01*
X000783Y006415D01*
X000725Y006357D01*
X000725Y006240D01*
X000783Y006182D01*
X000900Y006240D02*
X000959Y006182D01*
X001017Y006182D01*
X001075Y006240D01*
X001075Y006357D01*
X001017Y006415D01*
X000959Y006415D01*
X000900Y006357D01*
X001017Y006047D02*
X001075Y005988D01*
X001075Y005872D01*
X001017Y005679D02*
X000900Y005679D01*
X000842Y005620D01*
X000842Y005445D01*
X000725Y005445D02*
X001075Y005445D01*
X001075Y005620D01*
X001017Y005679D01*
X009765Y005693D02*
X009999Y005693D01*
X010115Y005810D01*
X009999Y005927D01*
X009765Y005927D01*
X009940Y005927D02*
X009940Y005693D01*
X009940Y005559D02*
X009882Y005500D01*
X009882Y005325D01*
X009765Y005325D02*
X010115Y005325D01*
X010115Y005500D01*
X010057Y005559D01*
X009940Y005559D01*
X010765Y005693D02*
X010999Y005693D01*
X011115Y005810D01*
X010999Y005927D01*
X010765Y005927D01*
X010940Y005927D02*
X010940Y005693D01*
X010940Y005559D02*
X010882Y005500D01*
X010882Y005325D01*
X010765Y005325D02*
X011115Y005325D01*
X011115Y005500D01*
X011057Y005559D01*
X010940Y005559D01*
X011765Y005693D02*
X011999Y005693D01*
X012115Y005810D01*
X011999Y005927D01*
X011765Y005927D01*
X011940Y005927D02*
X011940Y005693D01*
X011940Y005559D02*
X011882Y005500D01*
X011882Y005325D01*
X011765Y005325D02*
X012115Y005325D01*
X012115Y005500D01*
X012057Y005559D01*
X011940Y005559D01*
X012765Y005693D02*
X012999Y005693D01*
X013115Y005810D01*
X012999Y005927D01*
X012765Y005927D01*
X012940Y005927D02*
X012940Y005693D01*
X012940Y005559D02*
X012882Y005500D01*
X012882Y005325D01*
X012765Y005325D02*
X013115Y005325D01*
X013115Y005500D01*
X013057Y005559D01*
X012940Y005559D01*
X013765Y005693D02*
X013999Y005693D01*
X014115Y005810D01*
X013999Y005927D01*
X013765Y005927D01*
X013940Y005927D02*
X013940Y005693D01*
X013940Y005559D02*
X013882Y005500D01*
X013882Y005325D01*
X013765Y005325D02*
X014115Y005325D01*
X014115Y005500D01*
X014057Y005559D01*
X013940Y005559D01*
X014765Y005693D02*
X014999Y005693D01*
X015115Y005810D01*
X014999Y005927D01*
X014765Y005927D01*
X014940Y005927D02*
X014940Y005693D01*
X014940Y005559D02*
X014882Y005500D01*
X014882Y005325D01*
X014765Y005325D02*
X015115Y005325D01*
X015115Y005500D01*
X015057Y005559D01*
X014940Y005559D01*
X015765Y005752D02*
X015765Y005868D01*
X015823Y005927D01*
X016057Y005927D02*
X016115Y005868D01*
X016115Y005752D01*
X016057Y005693D01*
X015823Y005693D01*
X015765Y005752D01*
X015940Y005559D02*
X015882Y005500D01*
X015882Y005325D01*
X015765Y005325D02*
X016115Y005325D01*
X016115Y005500D01*
X016057Y005559D01*
X015940Y005559D01*
X016765Y005752D02*
X016765Y005868D01*
X016823Y005927D01*
X017057Y005927D02*
X017115Y005868D01*
X017115Y005752D01*
X017057Y005693D01*
X016823Y005693D01*
X016765Y005752D01*
X016940Y005559D02*
X016882Y005500D01*
X016882Y005325D01*
X016765Y005325D02*
X017115Y005325D01*
X017115Y005500D01*
X017057Y005559D01*
X016940Y005559D01*
X017765Y005752D02*
X017765Y005868D01*
X017823Y005927D01*
X017765Y006062D02*
X017765Y006295D01*
X017765Y006178D02*
X018115Y006178D01*
X017999Y006062D01*
X018057Y005927D02*
X018115Y005868D01*
X018115Y005752D01*
X018057Y005693D01*
X017823Y005693D01*
X017765Y005752D01*
X017940Y005559D02*
X017882Y005500D01*
X017882Y005325D01*
X017765Y005325D02*
X018115Y005325D01*
X018115Y005500D01*
X018057Y005559D01*
X017940Y005559D01*
X018765Y005752D02*
X018765Y005868D01*
X018823Y005927D01*
X019057Y005927D02*
X019115Y005868D01*
X019115Y005752D01*
X019057Y005693D01*
X018823Y005693D01*
X018765Y005752D01*
X018940Y005559D02*
X018882Y005500D01*
X018882Y005325D01*
X018765Y005325D02*
X019115Y005325D01*
X019115Y005500D01*
X019057Y005559D01*
X018940Y005559D01*
X018823Y006062D02*
X019057Y006295D01*
X018823Y006295D01*
X018765Y006237D01*
X018765Y006120D01*
X018823Y006062D01*
X019057Y006062D01*
X019115Y006120D01*
X019115Y006237D01*
X019057Y006295D01*
X017115Y006237D02*
X017115Y006120D01*
X017057Y006062D01*
X017115Y006237D02*
X017057Y006295D01*
X016999Y006295D01*
X016765Y006062D01*
X016765Y006295D01*
X016115Y006237D02*
X016115Y006120D01*
X016057Y006062D01*
X015940Y006178D02*
X015940Y006237D01*
X015882Y006295D01*
X015823Y006295D01*
X015765Y006237D01*
X015765Y006120D01*
X015823Y006062D01*
X015940Y006237D02*
X015999Y006295D01*
X016057Y006295D01*
X016115Y006237D01*
X015115Y006237D02*
X015115Y006120D01*
X015057Y006062D01*
X014823Y006062D01*
X015057Y006295D01*
X014823Y006295D01*
X014765Y006237D01*
X014765Y006120D01*
X014823Y006062D01*
X015057Y006295D02*
X015115Y006237D01*
X014115Y006178D02*
X013765Y006178D01*
X013765Y006062D02*
X013765Y006295D01*
X013999Y006062D02*
X014115Y006178D01*
X013115Y006120D02*
X013057Y006062D01*
X013115Y006120D02*
X013115Y006237D01*
X013057Y006295D01*
X012999Y006295D01*
X012765Y006062D01*
X012765Y006295D01*
X012115Y006237D02*
X012115Y006120D01*
X012057Y006062D01*
X011940Y006178D02*
X011940Y006237D01*
X011882Y006295D01*
X011823Y006295D01*
X011765Y006237D01*
X011765Y006120D01*
X011823Y006062D01*
X011940Y006237D02*
X011999Y006295D01*
X012057Y006295D01*
X012115Y006237D01*
X011115Y006237D02*
X010940Y006062D01*
X010940Y006295D01*
X010765Y006237D02*
X011115Y006237D01*
X010115Y006295D02*
X010115Y006062D01*
X009940Y006062D01*
X009999Y006178D01*
X009999Y006237D01*
X009940Y006295D01*
X009823Y006295D01*
X009765Y006237D01*
X009765Y006120D01*
X009823Y006062D01*
X014647Y003755D02*
X014647Y003405D01*
X014513Y003463D02*
X014454Y003405D01*
X014337Y003405D01*
X014279Y003463D01*
X014279Y003580D01*
X014337Y003639D01*
X014454Y003639D01*
X014513Y003580D01*
X014513Y003463D01*
X014647Y003580D02*
X014881Y003580D01*
X014881Y003405D02*
X014881Y003755D01*
X015381Y003639D02*
X015439Y003639D01*
X015556Y003522D01*
X015556Y003405D02*
X015556Y003639D01*
X015691Y003580D02*
X015691Y003522D01*
X015925Y003522D01*
X015925Y003580D02*
X015925Y003463D01*
X015866Y003405D01*
X015749Y003405D01*
X016053Y003405D02*
X016170Y003405D01*
X016112Y003405D02*
X016112Y003639D01*
X016170Y003639D01*
X016112Y003755D02*
X016112Y003814D01*
X016305Y003639D02*
X016422Y003405D01*
X016538Y003639D01*
X016673Y003580D02*
X016673Y003405D01*
X016848Y003405D01*
X016907Y003463D01*
X016848Y003522D01*
X016673Y003522D01*
X016673Y003580D02*
X016732Y003639D01*
X016848Y003639D01*
X017041Y003755D02*
X017275Y003405D01*
X017041Y003405D02*
X017275Y003755D01*
X015925Y003580D02*
X015866Y003639D01*
X015749Y003639D01*
X015691Y003580D01*
X014144Y003580D02*
X014086Y003522D01*
X013969Y003522D01*
X013911Y003463D01*
X013969Y003405D01*
X014144Y003405D01*
X014144Y003580D02*
X014086Y003639D01*
X013911Y003639D01*
X013776Y003639D02*
X013542Y003405D01*
X013408Y003463D02*
X013408Y003580D01*
X013349Y003639D01*
X013233Y003639D01*
X013174Y003580D01*
X013174Y003522D01*
X013408Y003522D01*
X013408Y003463D02*
X013349Y003405D01*
X013233Y003405D01*
X013542Y003639D02*
X013776Y003405D01*
X015925Y002372D02*
X015925Y002255D01*
X015983Y002197D01*
X016042Y002197D01*
X016100Y002255D01*
X016100Y002372D01*
X016042Y002430D01*
X015983Y002430D01*
X015925Y002372D01*
X016100Y002372D02*
X016159Y002430D01*
X016217Y002430D01*
X016275Y002372D01*
X016275Y002255D01*
X016217Y002197D01*
X016159Y002197D01*
X016100Y002255D01*
X016042Y002062D02*
X015983Y002062D01*
X015925Y002004D01*
X015925Y001828D01*
X016275Y001828D01*
X016275Y002004D01*
X016217Y002062D01*
X016159Y002062D01*
X016100Y002004D01*
X016100Y001828D01*
X016100Y001694D02*
X016042Y001635D01*
X016042Y001460D01*
X015925Y001460D02*
X016275Y001460D01*
X016275Y001635D01*
X016217Y001694D01*
X016100Y001694D01*
X016100Y002004D02*
X016042Y002062D01*
X017685Y002004D02*
X017685Y001828D01*
X018035Y001828D01*
X018035Y002004D01*
X017977Y002062D01*
X017919Y002062D01*
X017860Y002004D01*
X017860Y001828D01*
X017860Y001694D02*
X017802Y001635D01*
X017802Y001460D01*
X017685Y001460D02*
X018035Y001460D01*
X018035Y001635D01*
X017977Y001694D01*
X017860Y001694D01*
X017860Y002004D02*
X017802Y002062D01*
X017743Y002062D01*
X017685Y002004D01*
X017685Y002197D02*
X017743Y002197D01*
X017977Y002430D01*
X018035Y002430D01*
X018035Y002197D01*
X018685Y002255D02*
X018685Y002372D01*
X018743Y002430D01*
X018802Y002430D01*
X018860Y002372D01*
X018860Y002197D01*
X018743Y002197D01*
X018685Y002255D01*
X018860Y002197D02*
X018977Y002313D01*
X019035Y002430D01*
X019685Y002372D02*
X019685Y002255D01*
X019743Y002197D01*
X019860Y002197D02*
X019919Y002313D01*
X019919Y002372D01*
X019860Y002430D01*
X019743Y002430D01*
X019685Y002372D01*
X019860Y002197D02*
X020035Y002197D01*
X020035Y002430D01*
X019977Y002062D02*
X019919Y002062D01*
X019860Y002004D01*
X019860Y001828D01*
X019685Y001828D02*
X019685Y002004D01*
X019743Y002062D01*
X019802Y002062D01*
X019860Y002004D01*
X019977Y002062D02*
X020035Y002004D01*
X020035Y001828D01*
X019685Y001828D01*
X019860Y001694D02*
X019802Y001635D01*
X019802Y001460D01*
X019685Y001460D02*
X020035Y001460D01*
X020035Y001635D01*
X019977Y001694D01*
X019860Y001694D01*
X019035Y001635D02*
X019035Y001460D01*
X018685Y001460D01*
X018802Y001460D02*
X018802Y001635D01*
X018860Y001694D01*
X018977Y001694D01*
X019035Y001635D01*
X019035Y001828D02*
X018685Y001828D01*
X018685Y002004D01*
X018743Y002062D01*
X018802Y002062D01*
X018860Y002004D01*
X018860Y001828D01*
X019035Y001828D02*
X019035Y002004D01*
X018977Y002062D01*
X018919Y002062D01*
X018860Y002004D01*
D11*
X017590Y004130D02*
X017590Y004570D01*
X017370Y004570D01*
X017296Y004497D01*
X017296Y004350D01*
X017370Y004277D01*
X017590Y004277D01*
X017130Y004277D02*
X016983Y004424D01*
X016909Y004424D01*
X016746Y004350D02*
X016673Y004424D01*
X016526Y004424D01*
X016452Y004350D01*
X016452Y004277D01*
X016746Y004277D01*
X016746Y004350D02*
X016746Y004203D01*
X016673Y004130D01*
X016526Y004130D01*
X016286Y004203D02*
X016286Y004350D01*
X016212Y004424D01*
X016065Y004424D01*
X015992Y004350D01*
X015992Y004277D01*
X016286Y004277D01*
X016286Y004203D02*
X016212Y004130D01*
X016065Y004130D01*
X015825Y004130D02*
X015825Y004424D01*
X015605Y004424D01*
X015532Y004350D01*
X015532Y004130D01*
X015365Y004130D02*
X015365Y004570D01*
X015071Y004570D01*
X014904Y004350D02*
X014684Y004570D01*
X014684Y004130D01*
X014444Y004203D02*
X014150Y004497D01*
X014150Y004203D01*
X014224Y004130D01*
X014371Y004130D01*
X014444Y004203D01*
X014444Y004497D01*
X014371Y004570D01*
X014224Y004570D01*
X014150Y004497D01*
X013984Y004570D02*
X013984Y004350D01*
X013837Y004424D01*
X013763Y004424D01*
X013690Y004350D01*
X013690Y004203D01*
X013763Y004130D01*
X013910Y004130D01*
X013984Y004203D01*
X014611Y004350D02*
X014904Y004350D01*
X015218Y004350D02*
X015365Y004350D01*
X013984Y004570D02*
X013690Y004570D01*
X013063Y004424D02*
X012916Y004130D01*
X012769Y004424D01*
X012602Y004424D02*
X012456Y004570D01*
X012456Y004130D01*
X012602Y004130D02*
X012309Y004130D01*
X012142Y004130D02*
X012142Y004203D01*
X012069Y004203D01*
X012069Y004130D01*
X012142Y004130D01*
X011912Y004130D02*
X011618Y004130D01*
X011572Y004103D02*
X011124Y004103D01*
X011119Y004110D02*
X011269Y003860D01*
X011169Y003560D01*
X011069Y003460D01*
X011219Y003060D01*
X011319Y003110D01*
X011519Y002960D01*
X011669Y003110D01*
X011519Y003360D01*
X011619Y003610D01*
X011919Y003710D01*
X011919Y003660D01*
X011919Y003910D01*
X011619Y003960D01*
X011519Y004260D01*
X011719Y004460D01*
X011569Y004610D01*
X011269Y004460D01*
X010969Y004610D01*
X011019Y004610D01*
X010969Y004860D01*
X010719Y004860D01*
X010719Y004560D01*
X010419Y004460D01*
X010169Y004610D01*
X010019Y004510D01*
X010169Y004210D01*
X010069Y003960D01*
X009769Y003910D01*
X009769Y003660D01*
X010069Y003660D01*
X010169Y003310D01*
X010019Y003110D01*
X010169Y002960D01*
X010369Y003110D01*
X010469Y003060D01*
X010669Y003460D01*
X010469Y003660D01*
X010469Y003910D01*
X010619Y004160D01*
X010869Y004210D01*
X011169Y004110D01*
X011119Y004110D01*
X011159Y004044D02*
X011591Y004044D01*
X011611Y003986D02*
X011194Y003986D01*
X011229Y003927D02*
X011817Y003927D01*
X011919Y003869D02*
X011264Y003869D01*
X011252Y003810D02*
X011919Y003810D01*
X011919Y003752D02*
X011233Y003752D01*
X011213Y003693D02*
X011868Y003693D01*
X011969Y003660D02*
X011669Y003610D01*
X011693Y003635D02*
X011194Y003635D01*
X011174Y003576D02*
X011605Y003576D01*
X011582Y003518D02*
X011127Y003518D01*
X011069Y003459D02*
X011559Y003459D01*
X011535Y003401D02*
X011091Y003401D01*
X011113Y003342D02*
X011530Y003342D01*
X011569Y003340D02*
X011729Y003100D01*
X011549Y002910D01*
X011309Y003080D01*
X011209Y003020D01*
X011009Y003470D01*
X010689Y003470D02*
X010499Y003020D01*
X010399Y003080D01*
X010159Y002910D01*
X009969Y003100D01*
X010139Y003340D01*
X010160Y003342D02*
X010610Y003342D01*
X010581Y003284D02*
X010149Y003284D01*
X010105Y003225D02*
X010552Y003225D01*
X010522Y003167D02*
X010061Y003167D01*
X010021Y003108D02*
X010366Y003108D01*
X010373Y003108D02*
X010493Y003108D01*
X010288Y003050D02*
X010080Y003050D01*
X010138Y002991D02*
X010210Y002991D01*
X010143Y003401D02*
X010639Y003401D01*
X010669Y003459D02*
X010126Y003459D01*
X010110Y003518D02*
X010612Y003518D01*
X010553Y003576D02*
X010093Y003576D01*
X010076Y003635D02*
X010495Y003635D01*
X010469Y003693D02*
X009769Y003693D01*
X009739Y003660D02*
X010039Y003610D01*
X009739Y003660D02*
X009739Y003920D01*
X010039Y003980D01*
X010079Y003986D02*
X010514Y003986D01*
X010549Y004044D02*
X010103Y004044D01*
X010126Y004103D02*
X010585Y004103D01*
X010624Y004161D02*
X010149Y004161D01*
X010164Y004220D02*
X011533Y004220D01*
X011559Y004230D02*
X011739Y004490D01*
X011549Y004670D01*
X011289Y004490D01*
X011373Y004512D02*
X011667Y004512D01*
X011713Y004454D02*
X010047Y004454D01*
X010022Y004512D02*
X010332Y004512D01*
X010419Y004490D02*
X010159Y004670D01*
X009969Y004490D01*
X010149Y004230D01*
X010135Y004278D02*
X011537Y004278D01*
X011596Y004337D02*
X010106Y004337D01*
X010077Y004395D02*
X011654Y004395D01*
X011765Y004570D02*
X011912Y004424D01*
X011765Y004570D02*
X011765Y004130D01*
X011552Y004161D02*
X011016Y004161D01*
X010479Y003927D02*
X009871Y003927D01*
X009769Y003869D02*
X010469Y003869D01*
X010469Y003810D02*
X009769Y003810D01*
X009769Y003752D02*
X010469Y003752D01*
X010040Y003980D02*
X010055Y004032D01*
X010074Y004083D01*
X010096Y004133D01*
X010121Y004181D01*
X010150Y004228D01*
X010575Y004512D02*
X011165Y004512D01*
X011048Y004571D02*
X010719Y004571D01*
X010669Y004590D02*
X010719Y004910D01*
X010989Y004910D01*
X011039Y004590D01*
X011015Y004629D02*
X010719Y004629D01*
X010719Y004688D02*
X011004Y004688D01*
X010992Y004746D02*
X010719Y004746D01*
X010719Y004805D02*
X010980Y004805D01*
X011490Y004571D02*
X011608Y004571D01*
X010235Y004571D02*
X010110Y004571D01*
X011669Y003980D02*
X011969Y003920D01*
X011969Y003660D01*
X011565Y003284D02*
X011135Y003284D01*
X011157Y003225D02*
X011600Y003225D01*
X011635Y003167D02*
X011179Y003167D01*
X011201Y003108D02*
X011315Y003108D01*
X011322Y003108D02*
X011667Y003108D01*
X011609Y003050D02*
X011400Y003050D01*
X011478Y002991D02*
X011550Y002991D01*
X010139Y003340D02*
X010116Y003381D01*
X010095Y003424D01*
X010077Y003469D01*
X010062Y003514D01*
X010049Y003560D01*
X010039Y003607D01*
X010415Y004491D02*
X010462Y004518D01*
X010511Y004541D01*
X010561Y004561D01*
X010612Y004578D01*
X010664Y004592D01*
X010689Y003480D02*
X010656Y003498D01*
X010626Y003519D01*
X010597Y003543D01*
X010571Y003570D01*
X010549Y003599D01*
X010529Y003631D01*
X010512Y003664D01*
X010499Y003699D01*
X010490Y003735D01*
X010484Y003772D01*
X010482Y003809D01*
X010484Y003846D01*
X010489Y003883D01*
X010499Y003919D01*
X010511Y003954D01*
X010528Y003988D01*
X010547Y004019D01*
X010570Y004049D01*
X010596Y004076D01*
X010624Y004100D01*
X010655Y004121D01*
X010687Y004139D01*
X010721Y004154D01*
X010757Y004165D01*
X010793Y004173D01*
X010830Y004177D01*
X010868Y004177D01*
X010905Y004173D01*
X010941Y004165D01*
X010977Y004154D01*
X011011Y004139D01*
X011043Y004121D01*
X011074Y004100D01*
X011102Y004076D01*
X011128Y004049D01*
X011151Y004019D01*
X011170Y003988D01*
X011187Y003954D01*
X011199Y003919D01*
X011209Y003883D01*
X011214Y003846D01*
X011216Y003809D01*
X011214Y003772D01*
X011208Y003735D01*
X011199Y003699D01*
X011186Y003664D01*
X011169Y003631D01*
X011149Y003599D01*
X011127Y003570D01*
X011101Y003543D01*
X011072Y003519D01*
X011042Y003498D01*
X011009Y003480D01*
X011565Y003343D02*
X011593Y003393D01*
X011617Y003445D01*
X011638Y003498D01*
X011655Y003553D01*
X011668Y003609D01*
X011286Y004493D02*
X011241Y004518D01*
X011194Y004541D01*
X011146Y004560D01*
X011097Y004577D01*
X011047Y004590D01*
X011558Y004225D02*
X011585Y004178D01*
X011609Y004131D01*
X011630Y004082D01*
X011648Y004031D01*
X011662Y003980D01*
X017130Y004130D02*
X017130Y004424D01*
D12*
X019760Y005320D02*
X020040Y005320D01*
X020040Y005460D01*
X019994Y005507D01*
X019900Y005507D01*
X019853Y005460D01*
X019853Y005320D01*
X019853Y005413D02*
X019760Y005507D01*
X019760Y005615D02*
X019760Y005801D01*
X019900Y005708D02*
X019900Y005615D01*
X020040Y005615D02*
X019760Y005615D01*
X020040Y005615D02*
X020040Y005801D01*
X019994Y005909D02*
X019947Y005909D01*
X019900Y005956D01*
X019900Y006049D01*
X019853Y006096D01*
X019807Y006096D01*
X019760Y006049D01*
X019760Y005956D01*
X019807Y005909D01*
X019994Y005909D02*
X020040Y005956D01*
X020040Y006049D01*
X019994Y006096D01*
X020040Y006204D02*
X020040Y006391D01*
X020040Y006297D02*
X019760Y006297D01*
X016994Y002452D02*
X016900Y002452D01*
X016853Y002405D01*
X016853Y002265D01*
X016760Y002265D02*
X017040Y002265D01*
X017040Y002405D01*
X016994Y002452D01*
X016853Y002359D02*
X016760Y002452D01*
X016807Y002158D02*
X016994Y002158D01*
X017040Y002111D01*
X017040Y001971D01*
X016760Y001971D01*
X016760Y002111D01*
X016807Y002158D01*
X016807Y001863D02*
X016760Y001816D01*
X016760Y001723D01*
X016807Y001676D01*
X016994Y001676D01*
X017040Y001723D01*
X017040Y001816D01*
X016994Y001863D01*
X016807Y001863D01*
X016760Y001568D02*
X016760Y001381D01*
X017040Y001381D01*
X015040Y001381D02*
X015040Y001522D01*
X014994Y001568D01*
X014900Y001568D01*
X014853Y001522D01*
X014853Y001381D01*
X014760Y001381D02*
X015040Y001381D01*
X014994Y001676D02*
X014807Y001676D01*
X014760Y001723D01*
X014760Y001816D01*
X014807Y001863D01*
X014994Y001863D02*
X015040Y001816D01*
X015040Y001723D01*
X014994Y001676D01*
X014947Y001971D02*
X015040Y002064D01*
X014760Y002064D01*
X014760Y001971D02*
X014760Y002158D01*
X014807Y002265D02*
X014760Y002312D01*
X014760Y002405D01*
X014807Y002452D01*
X014853Y002452D01*
X014900Y002405D01*
X014900Y002359D01*
X014900Y002405D02*
X014947Y002452D01*
X014994Y002452D01*
X015040Y002405D01*
X015040Y002312D01*
X014994Y002265D01*
X014040Y002312D02*
X013994Y002265D01*
X014040Y002312D02*
X014040Y002405D01*
X013994Y002452D01*
X013947Y002452D01*
X013760Y002265D01*
X013760Y002452D01*
X013760Y002158D02*
X013760Y001971D01*
X013760Y002064D02*
X014040Y002064D01*
X013947Y001971D01*
X013994Y001863D02*
X014040Y001816D01*
X014040Y001723D01*
X013994Y001676D01*
X013807Y001676D01*
X013760Y001723D01*
X013760Y001816D01*
X013807Y001863D01*
X013900Y001568D02*
X013853Y001522D01*
X013853Y001381D01*
X013760Y001381D02*
X014040Y001381D01*
X014040Y001522D01*
X013994Y001568D01*
X013900Y001568D01*
X009040Y001522D02*
X009040Y001381D01*
X008760Y001381D01*
X008853Y001381D02*
X008853Y001522D01*
X008900Y001568D01*
X008994Y001568D01*
X009040Y001522D01*
X008994Y001676D02*
X008807Y001676D01*
X008760Y001723D01*
X008760Y001816D01*
X008807Y001863D01*
X008994Y001863D02*
X009040Y001816D01*
X009040Y001723D01*
X008994Y001676D01*
X008947Y001971D02*
X009040Y002064D01*
X008760Y002064D01*
X008760Y001971D02*
X008760Y002158D01*
X008760Y002265D02*
X008760Y002452D01*
X008760Y002359D02*
X009040Y002359D01*
X008947Y002265D01*
X008040Y002405D02*
X007900Y002265D01*
X007900Y002452D01*
X007760Y002405D02*
X008040Y002405D01*
X007760Y002158D02*
X007760Y001971D01*
X007760Y002064D02*
X008040Y002064D01*
X007947Y001971D01*
X007947Y001863D02*
X007760Y001863D01*
X007900Y001863D02*
X007900Y001676D01*
X007947Y001676D02*
X008040Y001769D01*
X007947Y001863D01*
X007947Y001676D02*
X007760Y001676D01*
X007900Y001568D02*
X007853Y001522D01*
X007853Y001381D01*
X007760Y001381D02*
X008040Y001381D01*
X008040Y001522D01*
X007994Y001568D01*
X007900Y001568D01*
X007040Y001522D02*
X007040Y001381D01*
X006760Y001381D01*
X006853Y001381D02*
X006853Y001522D01*
X006900Y001568D01*
X006994Y001568D01*
X007040Y001522D01*
X006994Y001676D02*
X006807Y001676D01*
X006760Y001723D01*
X006760Y001816D01*
X006807Y001863D01*
X006994Y001863D02*
X007040Y001816D01*
X007040Y001723D01*
X006994Y001676D01*
X006947Y001971D02*
X007040Y002064D01*
X006760Y002064D01*
X006760Y001971D02*
X006760Y002158D01*
X006807Y002265D02*
X006994Y002452D01*
X006807Y002452D01*
X006760Y002405D01*
X006760Y002312D01*
X006807Y002265D01*
X006994Y002265D01*
X007040Y002312D01*
X007040Y002405D01*
X006994Y002452D01*
X004040Y002405D02*
X004040Y002312D01*
X003994Y002265D01*
X003807Y002265D02*
X003760Y002312D01*
X003760Y002405D01*
X003807Y002452D01*
X003853Y002452D01*
X003900Y002405D01*
X003900Y002359D01*
X003900Y002405D02*
X003947Y002452D01*
X003994Y002452D01*
X004040Y002405D01*
X003760Y002158D02*
X003760Y001971D01*
X003760Y002064D02*
X004040Y002064D01*
X003947Y001971D01*
X003947Y001863D02*
X003760Y001863D01*
X003900Y001863D02*
X003900Y001676D01*
X003947Y001676D02*
X004040Y001769D01*
X003947Y001863D01*
X003947Y001676D02*
X003760Y001676D01*
X003900Y001568D02*
X003853Y001522D01*
X003853Y001381D01*
X003760Y001381D02*
X004040Y001381D01*
X004040Y001522D01*
X003994Y001568D01*
X003900Y001568D01*
X003040Y001616D02*
X003040Y001476D01*
X002760Y001476D01*
X002853Y001476D02*
X002853Y001616D01*
X002900Y001663D01*
X002994Y001663D01*
X003040Y001616D01*
X002947Y001771D02*
X002760Y001771D01*
X002900Y001771D02*
X002900Y001958D01*
X002947Y001958D02*
X002760Y001958D01*
X002947Y001958D02*
X003040Y001864D01*
X002947Y001771D01*
X002947Y002065D02*
X002900Y002112D01*
X002900Y002205D01*
X002853Y002252D01*
X002807Y002252D01*
X002760Y002205D01*
X002760Y002112D01*
X002807Y002065D01*
X002853Y002065D01*
X002900Y002112D01*
X002947Y002065D02*
X002994Y002065D01*
X003040Y002112D01*
X003040Y002205D01*
X002994Y002252D01*
X002947Y002252D01*
X002900Y002205D01*
X002040Y002125D02*
X002040Y001985D01*
X001760Y001985D01*
X001760Y002125D01*
X001807Y002172D01*
X001994Y002172D01*
X002040Y002125D01*
X002040Y001878D02*
X001760Y001878D01*
X002040Y001691D01*
X001760Y001691D01*
X001807Y001583D02*
X001900Y001583D01*
X001900Y001489D01*
X001807Y001396D02*
X001760Y001443D01*
X001760Y001536D01*
X001807Y001583D01*
X001994Y001583D02*
X002040Y001536D01*
X002040Y001443D01*
X001994Y001396D01*
X001807Y001396D01*
X001040Y001415D02*
X000994Y001369D01*
X001040Y001415D02*
X001040Y001509D01*
X000994Y001556D01*
X000947Y001556D01*
X000900Y001509D01*
X000853Y001556D01*
X000807Y001556D01*
X000760Y001509D01*
X000760Y001415D01*
X000807Y001369D01*
X000900Y001462D02*
X000900Y001509D01*
X000807Y001663D02*
X000807Y001710D01*
X000760Y001710D01*
X000760Y001663D01*
X000807Y001663D01*
X000807Y001811D02*
X000760Y001857D01*
X000760Y001951D01*
X000807Y001998D01*
X000853Y001998D01*
X000900Y001951D01*
X000900Y001904D01*
X000900Y001951D02*
X000947Y001998D01*
X000994Y001998D01*
X001040Y001951D01*
X001040Y001857D01*
X000994Y001811D01*
X001040Y002105D02*
X000853Y002105D01*
X000760Y002199D01*
X000853Y002292D01*
X001040Y002292D01*
X005760Y005320D02*
X006040Y005320D01*
X006040Y005460D01*
X005994Y005507D01*
X005900Y005507D01*
X005853Y005460D01*
X005853Y005320D01*
X005900Y005615D02*
X005900Y005755D01*
X005853Y005801D01*
X005807Y005801D01*
X005760Y005755D01*
X005760Y005615D01*
X006040Y005615D01*
X006040Y005755D01*
X005994Y005801D01*
X005947Y005801D01*
X005900Y005755D01*
X005947Y005909D02*
X006040Y006003D01*
X005760Y006003D01*
X005760Y006096D02*
X005760Y005909D01*
X005807Y006204D02*
X005760Y006251D01*
X005760Y006344D01*
X005807Y006391D01*
X005900Y006391D01*
X005947Y006344D01*
X005947Y006297D01*
X005900Y006204D01*
X006040Y006204D01*
X006040Y006391D01*
X006760Y006344D02*
X007040Y006344D01*
X006900Y006204D01*
X006900Y006391D01*
X006760Y006096D02*
X006760Y005909D01*
X006760Y006003D02*
X007040Y006003D01*
X006947Y005909D01*
X006947Y005801D02*
X006900Y005755D01*
X006900Y005615D01*
X006900Y005507D02*
X006853Y005460D01*
X006853Y005320D01*
X006760Y005320D02*
X007040Y005320D01*
X007040Y005460D01*
X006994Y005507D01*
X006900Y005507D01*
X006760Y005615D02*
X006760Y005755D01*
X006807Y005801D01*
X006853Y005801D01*
X006900Y005755D01*
X006947Y005801D02*
X006994Y005801D01*
X007040Y005755D01*
X007040Y005615D01*
X006760Y005615D01*
X007760Y005615D02*
X007760Y005755D01*
X007807Y005801D01*
X007853Y005801D01*
X007900Y005755D01*
X007900Y005615D01*
X007900Y005507D02*
X007853Y005460D01*
X007853Y005320D01*
X007760Y005320D02*
X008040Y005320D01*
X008040Y005460D01*
X007994Y005507D01*
X007900Y005507D01*
X007760Y005615D02*
X008040Y005615D01*
X008040Y005755D01*
X007994Y005801D01*
X007947Y005801D01*
X007900Y005755D01*
X007947Y005909D02*
X008040Y006003D01*
X007760Y006003D01*
X007760Y006096D02*
X007760Y005909D01*
X007760Y006204D02*
X007760Y006391D01*
X007760Y006297D02*
X008040Y006297D01*
X007947Y006204D01*
X008760Y006251D02*
X008807Y006204D01*
X008994Y006391D01*
X008807Y006391D01*
X008760Y006344D01*
X008760Y006251D01*
X008807Y006204D02*
X008994Y006204D01*
X009040Y006251D01*
X009040Y006344D01*
X008994Y006391D01*
X008760Y006096D02*
X008760Y005909D01*
X008760Y006003D02*
X009040Y006003D01*
X008947Y005909D01*
X008947Y005801D02*
X008900Y005755D01*
X008900Y005615D01*
X008900Y005507D02*
X008853Y005460D01*
X008853Y005320D01*
X008760Y005320D02*
X009040Y005320D01*
X009040Y005460D01*
X008994Y005507D01*
X008900Y005507D01*
X008760Y005615D02*
X008760Y005755D01*
X008807Y005801D01*
X008853Y005801D01*
X008900Y005755D01*
X008947Y005801D02*
X008994Y005801D01*
X009040Y005755D01*
X009040Y005615D01*
X008760Y005615D01*
M02*
