G75*
%MOIN*%
%OFA0B0*%
%FSLAX24Y24*%
%IPPOS*%
%LPD*%
%AMOC8*
5,1,8,0,0,1.08239X$1,22.5*
%
%ADD10R,0.0591X0.0098*%
%ADD11R,0.0098X0.0591*%
%ADD12R,0.0512X0.0630*%
%ADD13R,0.0630X0.0512*%
%ADD14R,0.0394X0.0433*%
%ADD15R,0.0433X0.0394*%
%ADD16R,0.0413X0.0425*%
%ADD17R,0.2000X0.0700*%
%ADD18R,0.0787X0.0866*%
%ADD19OC8,0.0600*%
%ADD20C,0.0080*%
%ADD21C,0.0260*%
%ADD22C,0.0160*%
D10*
X007099Y002402D03*
X007099Y002598D03*
X007099Y002795D03*
X007099Y002992D03*
X007099Y003189D03*
X007099Y003386D03*
X007099Y003583D03*
X007099Y003779D03*
X007099Y003976D03*
X007099Y004173D03*
X007099Y004370D03*
X007099Y004567D03*
X007099Y004764D03*
X007099Y004961D03*
X007099Y005157D03*
X007099Y005354D03*
X011626Y005354D03*
X011626Y005157D03*
X011626Y004961D03*
X011626Y004764D03*
X011626Y004567D03*
X011626Y004370D03*
X011626Y004173D03*
X011626Y003976D03*
X011626Y003779D03*
X011626Y003583D03*
X011626Y003386D03*
X011626Y003189D03*
X011626Y002992D03*
X011626Y002795D03*
X011626Y002598D03*
X011626Y002402D03*
D11*
X010839Y001614D03*
X010642Y001614D03*
X010445Y001614D03*
X010248Y001614D03*
X010051Y001614D03*
X009854Y001614D03*
X009658Y001614D03*
X009461Y001614D03*
X009264Y001614D03*
X009067Y001614D03*
X008870Y001614D03*
X008673Y001614D03*
X008476Y001614D03*
X008280Y001614D03*
X008083Y001614D03*
X007886Y001614D03*
X007886Y006142D03*
X008083Y006142D03*
X008280Y006142D03*
X008476Y006142D03*
X008673Y006142D03*
X008870Y006142D03*
X009067Y006142D03*
X009264Y006142D03*
X009461Y006142D03*
X009658Y006142D03*
X009854Y006142D03*
X010051Y006142D03*
X010248Y006142D03*
X010445Y006142D03*
X010642Y006142D03*
X010839Y006142D03*
D12*
X005769Y002550D03*
X004982Y002550D03*
D13*
X005331Y005291D03*
X005331Y006078D03*
D14*
X005610Y003690D03*
X004941Y003690D03*
X014865Y003890D03*
X015535Y003890D03*
D15*
X019940Y002371D03*
X019940Y001701D03*
X004503Y005335D03*
X004503Y006005D03*
X002750Y004915D03*
X001840Y004925D03*
X001840Y004255D03*
X002750Y004245D03*
D16*
X006681Y006110D03*
X007370Y006110D03*
X011350Y006070D03*
X012039Y006070D03*
X013526Y003856D03*
X014214Y003856D03*
X016612Y003877D03*
X017301Y003877D03*
X012084Y001680D03*
X011396Y001680D03*
X007304Y001734D03*
X006616Y001734D03*
D17*
X013397Y002657D03*
X017197Y002657D03*
D18*
X002411Y002280D03*
X001229Y002280D03*
D19*
X000900Y000900D03*
X001900Y000900D03*
X002900Y000900D03*
X003900Y000900D03*
X004900Y000900D03*
X005900Y000900D03*
X006900Y000900D03*
X007900Y000900D03*
X008900Y000900D03*
X009900Y000900D03*
X010900Y000900D03*
X011900Y000900D03*
X012900Y000900D03*
X013900Y000900D03*
X014900Y000900D03*
X015900Y000900D03*
X016900Y000900D03*
X017900Y000900D03*
X018900Y000900D03*
X019900Y000900D03*
X019900Y006900D03*
X018900Y006900D03*
X017900Y006900D03*
X016900Y006900D03*
X015900Y006900D03*
X014900Y006900D03*
X013900Y006900D03*
X012900Y006900D03*
X011900Y006900D03*
X010900Y006900D03*
X009900Y006900D03*
X008900Y006900D03*
X007900Y006900D03*
X006900Y006900D03*
X005900Y006900D03*
X004900Y006900D03*
X003900Y006900D03*
X002900Y006900D03*
X001900Y006900D03*
X000900Y006900D03*
D20*
X000460Y007340D02*
X000460Y000460D01*
X007114Y000460D01*
X007084Y000490D01*
X007074Y000480D01*
X006726Y000480D01*
X006480Y000726D01*
X006480Y001074D01*
X006726Y001320D01*
X007074Y001320D01*
X007320Y001074D01*
X007320Y000726D01*
X007310Y000716D01*
X007396Y000630D01*
X007576Y000630D01*
X007480Y000726D01*
X007480Y001074D01*
X007717Y001311D01*
X007717Y001959D01*
X007787Y002029D01*
X007795Y002029D01*
X007770Y002090D01*
X007770Y002190D01*
X007808Y002282D01*
X007878Y002352D01*
X007970Y002390D01*
X008044Y002390D01*
X008554Y002900D01*
X008966Y002900D01*
X009060Y002806D01*
X009136Y002730D01*
X009198Y002792D01*
X009290Y002830D01*
X009390Y002830D01*
X009482Y002792D01*
X009552Y002722D01*
X009590Y002630D01*
X009590Y002550D01*
X009682Y002512D01*
X009740Y002454D01*
X009758Y002472D01*
X009850Y002510D01*
X009950Y002510D01*
X010042Y002472D01*
X010112Y002402D01*
X010142Y002328D01*
X010320Y002506D01*
X010320Y002786D01*
X010268Y002838D01*
X010230Y002930D01*
X010230Y003030D01*
X010268Y003122D01*
X010338Y003192D01*
X010430Y003230D01*
X010530Y003230D01*
X010622Y003192D01*
X010692Y003122D01*
X010730Y003030D01*
X010730Y002930D01*
X010692Y002838D01*
X010640Y002786D01*
X010640Y002374D01*
X010546Y002280D01*
X010296Y002029D01*
X010483Y002029D01*
X010660Y002206D01*
X010754Y002300D01*
X011213Y002300D01*
X011211Y002303D01*
X011211Y003423D01*
X010423Y003423D01*
X010357Y003422D01*
X010357Y003423D01*
X010356Y003423D01*
X010310Y003469D01*
X010046Y003730D01*
X009970Y003730D01*
X009878Y003768D01*
X009808Y003838D01*
X009770Y003930D01*
X009770Y004030D01*
X009808Y004122D01*
X009878Y004192D01*
X009970Y004230D01*
X010070Y004230D01*
X010135Y004203D01*
X010168Y004282D01*
X010226Y004340D01*
X010208Y004358D01*
X010170Y004450D01*
X010170Y004550D01*
X010208Y004642D01*
X010278Y004712D01*
X010370Y004750D01*
X010470Y004750D01*
X010562Y004712D01*
X010620Y004654D01*
X010626Y004660D01*
X010568Y004718D01*
X010530Y004810D01*
X010530Y004910D01*
X010568Y005002D01*
X010638Y005072D01*
X010730Y005110D01*
X010830Y005110D01*
X010922Y005072D01*
X010992Y005002D01*
X011030Y004910D01*
X011030Y004867D01*
X011191Y004741D01*
X011191Y004764D01*
X011626Y004764D01*
X011626Y004764D01*
X011191Y004764D01*
X011191Y004831D01*
X011200Y004867D01*
X011211Y004885D01*
X011211Y005453D01*
X011281Y005524D01*
X011857Y005524D01*
X012079Y005745D01*
X012079Y006030D01*
X012079Y006110D01*
X012385Y006110D01*
X012385Y006301D01*
X012376Y006337D01*
X012357Y006369D01*
X012331Y006395D01*
X012299Y006413D01*
X012264Y006423D01*
X012079Y006423D01*
X012079Y006110D01*
X011999Y006110D01*
X011999Y006423D01*
X011814Y006423D01*
X011778Y006413D01*
X011746Y006395D01*
X011720Y006369D01*
X011702Y006337D01*
X011692Y006301D01*
X011692Y006110D01*
X011999Y006110D01*
X011999Y006030D01*
X012079Y006030D01*
X012364Y006030D01*
X012700Y006366D01*
X012700Y006506D01*
X012480Y006726D01*
X012480Y007074D01*
X012726Y007320D01*
X013074Y007320D01*
X013320Y007074D01*
X013320Y006746D01*
X013480Y006906D01*
X013480Y007074D01*
X013726Y007320D01*
X014074Y007320D01*
X014320Y007074D01*
X014320Y006786D01*
X014460Y006926D01*
X014480Y006946D01*
X014480Y007074D01*
X014726Y007320D01*
X015074Y007320D01*
X015320Y007074D01*
X015320Y006726D01*
X015214Y006620D01*
X015394Y006620D01*
X015490Y006716D01*
X015480Y006726D01*
X015480Y007074D01*
X015726Y007320D01*
X016074Y007320D01*
X016320Y007074D01*
X016320Y006726D01*
X016074Y006480D01*
X015726Y006480D01*
X015716Y006490D01*
X015526Y006300D01*
X014526Y006300D01*
X014366Y006140D01*
X013646Y006140D01*
X012220Y004714D01*
X012220Y004394D01*
X012126Y004300D01*
X012041Y004215D01*
X012041Y003540D01*
X012686Y003540D01*
X012738Y003592D01*
X012830Y003630D01*
X012930Y003630D01*
X013022Y003592D01*
X013092Y003522D01*
X013130Y003430D01*
X013130Y003330D01*
X013092Y003238D01*
X013022Y003168D01*
X012930Y003130D01*
X012830Y003130D01*
X012738Y003168D01*
X012686Y003220D01*
X012406Y003220D01*
X012499Y003127D01*
X013237Y003127D01*
X013237Y003555D01*
X013199Y003593D01*
X013199Y004118D01*
X013269Y004188D01*
X013782Y004188D01*
X013852Y004118D01*
X013852Y003593D01*
X013782Y003523D01*
X013557Y003523D01*
X013557Y003127D01*
X014446Y003127D01*
X014517Y003057D01*
X014517Y002258D01*
X014446Y002187D01*
X012439Y002187D01*
X012766Y001860D01*
X014066Y001860D01*
X014160Y001766D01*
X014666Y001260D01*
X014726Y001320D01*
X015074Y001320D01*
X015320Y001074D01*
X015320Y000726D01*
X015214Y000620D01*
X015394Y000620D01*
X015490Y000716D01*
X015480Y000726D01*
X015480Y001074D01*
X015726Y001320D01*
X016074Y001320D01*
X016320Y001074D01*
X016320Y000726D01*
X016074Y000480D01*
X015726Y000480D01*
X015716Y000490D01*
X015686Y000460D01*
X020340Y000460D01*
X020340Y007340D01*
X003406Y007340D01*
X003540Y007206D01*
X003540Y007134D01*
X003726Y007320D01*
X004074Y007320D01*
X004320Y007074D01*
X004320Y006726D01*
X004074Y006480D01*
X004060Y006480D01*
X004060Y005366D01*
X004166Y005260D01*
X004166Y005582D01*
X004237Y005652D01*
X004769Y005652D01*
X004840Y005582D01*
X004840Y005106D01*
X004897Y005082D01*
X004897Y005596D01*
X004967Y005666D01*
X005696Y005666D01*
X005766Y005596D01*
X005766Y005082D01*
X005771Y005077D01*
X005850Y005110D01*
X005950Y005110D01*
X006042Y005072D01*
X006112Y005002D01*
X006150Y004910D01*
X006150Y004810D01*
X006112Y004718D01*
X006042Y004648D01*
X005950Y004610D01*
X005850Y004610D01*
X005758Y004648D01*
X005706Y004700D01*
X005696Y004700D01*
X005481Y004915D01*
X005028Y004915D01*
X005030Y004910D01*
X005030Y004810D01*
X004992Y004718D01*
X004922Y004648D01*
X004830Y004610D01*
X004816Y004610D01*
X004896Y004530D01*
X006683Y004530D01*
X006683Y004604D01*
X006650Y004604D01*
X005980Y005274D01*
X005980Y006480D01*
X005726Y006480D01*
X005480Y006726D01*
X005480Y007074D01*
X005726Y007320D01*
X006074Y007320D01*
X006320Y007074D01*
X006320Y006786D01*
X006480Y006946D01*
X006480Y007074D01*
X006726Y007320D01*
X007074Y007320D01*
X007320Y007074D01*
X007320Y006726D01*
X007074Y006480D01*
X006726Y006480D01*
X006596Y006610D01*
X006460Y006474D01*
X006460Y006443D01*
X006938Y006443D01*
X007008Y006372D01*
X007008Y005848D01*
X006938Y005777D01*
X006922Y005777D01*
X006950Y005710D01*
X006950Y005610D01*
X006914Y005524D01*
X007443Y005524D01*
X007514Y005453D01*
X007514Y004907D01*
X007558Y004952D01*
X007650Y004990D01*
X007750Y004990D01*
X007842Y004952D01*
X007912Y004882D01*
X007950Y004790D01*
X007950Y004690D01*
X007912Y004598D01*
X007842Y004528D01*
X007750Y004490D01*
X007716Y004490D01*
X007687Y004461D01*
X007653Y004417D01*
X007642Y004415D01*
X007633Y004407D01*
X007577Y004407D01*
X007522Y004400D01*
X007514Y004406D01*
X007514Y003939D01*
X007527Y003939D01*
X008116Y003350D01*
X008190Y003350D01*
X008282Y003312D01*
X008352Y003242D01*
X008390Y003150D01*
X008390Y003050D01*
X008352Y002958D01*
X008282Y002888D01*
X008190Y002850D01*
X008090Y002850D01*
X007998Y002888D01*
X007990Y002896D01*
X007990Y002810D01*
X007952Y002718D01*
X007882Y002648D01*
X007790Y002610D01*
X007690Y002610D01*
X007629Y002635D01*
X007514Y002635D01*
X007514Y002523D01*
X007524Y002505D01*
X007534Y002469D01*
X007534Y002402D01*
X007099Y002402D01*
X007099Y002402D01*
X007534Y002402D01*
X007534Y002334D01*
X007524Y002298D01*
X007506Y002266D01*
X007480Y002240D01*
X007448Y002222D01*
X007412Y002212D01*
X007099Y002212D01*
X007099Y002402D01*
X007098Y002402D01*
X007098Y002402D01*
X006663Y002402D01*
X006663Y002438D01*
X006553Y002438D01*
X006590Y002350D01*
X006590Y002261D01*
X006765Y002067D01*
X006872Y002067D01*
X006942Y001997D01*
X006942Y001472D01*
X006872Y001402D01*
X006359Y001402D01*
X006289Y001472D01*
X006289Y001997D01*
X006342Y002050D01*
X006290Y002050D01*
X006198Y002088D01*
X006128Y002158D01*
X006125Y002165D01*
X006075Y002115D01*
X005464Y002115D01*
X005394Y002185D01*
X005394Y002832D01*
X005358Y002832D01*
X005358Y002185D01*
X005288Y002115D01*
X004676Y002115D01*
X004606Y002185D01*
X004606Y002340D01*
X002924Y002340D01*
X002924Y001797D01*
X002854Y001727D01*
X002611Y001727D01*
X002611Y001328D01*
X002320Y001037D01*
X002320Y000726D01*
X002074Y000480D01*
X001726Y000480D01*
X001480Y000726D01*
X001480Y001074D01*
X001726Y001320D01*
X002037Y001320D01*
X002211Y001493D01*
X002211Y001727D01*
X001967Y001727D01*
X001897Y001797D01*
X001897Y002763D01*
X001967Y002833D01*
X002854Y002833D01*
X002924Y002763D01*
X002924Y002660D01*
X004606Y002660D01*
X004606Y002832D01*
X003037Y002832D01*
X001931Y003939D01*
X001574Y003939D01*
X001503Y004009D01*
X001503Y004502D01*
X001574Y004572D01*
X002106Y004572D01*
X002177Y004502D01*
X002177Y004145D01*
X003170Y003152D01*
X003617Y003152D01*
X002841Y003929D01*
X002484Y003929D01*
X002413Y003999D01*
X002413Y004492D01*
X002484Y004562D01*
X003016Y004562D01*
X003087Y004492D01*
X003087Y004135D01*
X003873Y003349D01*
X004680Y003349D01*
X004658Y003361D01*
X004632Y003388D01*
X004614Y003419D01*
X004604Y003455D01*
X004604Y003650D01*
X004901Y003650D01*
X004901Y003730D01*
X004604Y003730D01*
X004604Y003925D01*
X004614Y003961D01*
X004632Y003992D01*
X004653Y004013D01*
X004441Y004013D01*
X003314Y005140D01*
X003220Y005234D01*
X003220Y006626D01*
X003074Y006480D01*
X002910Y006480D01*
X002910Y005231D01*
X003016Y005231D01*
X003087Y005161D01*
X003087Y004668D01*
X003016Y004598D01*
X002484Y004598D01*
X002413Y004668D01*
X002413Y005161D01*
X002484Y005231D01*
X002590Y005231D01*
X002590Y006616D01*
X002480Y006726D01*
X002480Y007074D01*
X002586Y007180D01*
X002214Y007180D01*
X002320Y007074D01*
X002320Y006726D01*
X002074Y006480D01*
X002000Y006480D01*
X002000Y005241D01*
X002106Y005241D01*
X002177Y005171D01*
X002177Y004678D01*
X002106Y004608D01*
X001574Y004608D01*
X001503Y004678D01*
X001503Y005171D01*
X001574Y005241D01*
X001680Y005241D01*
X001680Y006526D01*
X001480Y006726D01*
X001480Y007074D01*
X001586Y007180D01*
X001214Y007180D01*
X001320Y007074D01*
X001320Y006726D01*
X001074Y006480D01*
X000726Y006480D01*
X000480Y006726D01*
X000480Y007074D01*
X000726Y007320D01*
X000774Y007320D01*
X000794Y007340D01*
X000460Y007340D01*
X000460Y007287D02*
X000693Y007287D01*
X000614Y007208D02*
X000460Y007208D01*
X000460Y007130D02*
X000536Y007130D01*
X000480Y007051D02*
X000460Y007051D01*
X000460Y006973D02*
X000480Y006973D01*
X000480Y006894D02*
X000460Y006894D01*
X000460Y006816D02*
X000480Y006816D01*
X000480Y006737D02*
X000460Y006737D01*
X000460Y006659D02*
X000548Y006659D01*
X000626Y006580D02*
X000460Y006580D01*
X000460Y006502D02*
X000705Y006502D01*
X000460Y006423D02*
X001680Y006423D01*
X001680Y006345D02*
X000460Y006345D01*
X000460Y006266D02*
X001680Y006266D01*
X001680Y006188D02*
X000460Y006188D01*
X000460Y006109D02*
X001680Y006109D01*
X001680Y006031D02*
X000460Y006031D01*
X000460Y005952D02*
X001680Y005952D01*
X001680Y005874D02*
X000460Y005874D01*
X000460Y005795D02*
X001680Y005795D01*
X001680Y005717D02*
X000460Y005717D01*
X000460Y005638D02*
X001680Y005638D01*
X001680Y005560D02*
X000460Y005560D01*
X000460Y005481D02*
X001680Y005481D01*
X001680Y005403D02*
X000460Y005403D01*
X000460Y005324D02*
X001680Y005324D01*
X001680Y005246D02*
X000460Y005246D01*
X000460Y005167D02*
X001503Y005167D01*
X001503Y005089D02*
X000460Y005089D01*
X000460Y005010D02*
X001503Y005010D01*
X001503Y004932D02*
X000460Y004932D01*
X000460Y004853D02*
X001503Y004853D01*
X001503Y004775D02*
X000460Y004775D01*
X000460Y004696D02*
X001503Y004696D01*
X001564Y004618D02*
X000460Y004618D01*
X000460Y004539D02*
X001541Y004539D01*
X001503Y004461D02*
X000460Y004461D01*
X000460Y004382D02*
X001503Y004382D01*
X001503Y004304D02*
X000460Y004304D01*
X000460Y004225D02*
X001503Y004225D01*
X001503Y004147D02*
X000460Y004147D01*
X000460Y004068D02*
X001503Y004068D01*
X001523Y003990D02*
X000460Y003990D01*
X000460Y003911D02*
X001958Y003911D01*
X002037Y003833D02*
X000460Y003833D01*
X000460Y003754D02*
X002115Y003754D01*
X002194Y003676D02*
X000460Y003676D01*
X000460Y003597D02*
X002272Y003597D01*
X002351Y003519D02*
X000460Y003519D01*
X000460Y003440D02*
X002429Y003440D01*
X002508Y003362D02*
X000460Y003362D01*
X000460Y003283D02*
X002586Y003283D01*
X002665Y003205D02*
X000460Y003205D01*
X000460Y003126D02*
X002743Y003126D01*
X002822Y003048D02*
X000460Y003048D01*
X000460Y002969D02*
X002900Y002969D01*
X002979Y002891D02*
X000460Y002891D01*
X000460Y002812D02*
X000737Y002812D01*
X000750Y002825D02*
X000724Y002799D01*
X000705Y002767D01*
X000696Y002732D01*
X000696Y002320D01*
X001189Y002320D01*
X001189Y002240D01*
X000696Y002240D01*
X000696Y001828D01*
X000705Y001793D01*
X000724Y001761D01*
X000750Y001735D01*
X000782Y001716D01*
X000817Y001707D01*
X001189Y001707D01*
X001189Y002240D01*
X001269Y002240D01*
X001269Y001707D01*
X001642Y001707D01*
X001677Y001716D01*
X001709Y001735D01*
X001735Y001761D01*
X001754Y001793D01*
X001763Y001828D01*
X001763Y002240D01*
X001269Y002240D01*
X001269Y002320D01*
X001189Y002320D01*
X001189Y002853D01*
X000817Y002853D01*
X000782Y002844D01*
X000750Y002825D01*
X000696Y002734D02*
X000460Y002734D01*
X000460Y002655D02*
X000696Y002655D01*
X000696Y002577D02*
X000460Y002577D01*
X000460Y002498D02*
X000696Y002498D01*
X000696Y002420D02*
X000460Y002420D01*
X000460Y002341D02*
X000696Y002341D01*
X000460Y002263D02*
X001189Y002263D01*
X001189Y002341D02*
X001269Y002341D01*
X001269Y002320D02*
X001269Y002853D01*
X001642Y002853D01*
X001677Y002844D01*
X001709Y002825D01*
X001735Y002799D01*
X001754Y002767D01*
X001763Y002732D01*
X001763Y002320D01*
X001269Y002320D01*
X001269Y002263D02*
X001897Y002263D01*
X001897Y002341D02*
X001763Y002341D01*
X001763Y002420D02*
X001897Y002420D01*
X001897Y002498D02*
X001763Y002498D01*
X001763Y002577D02*
X001897Y002577D01*
X001897Y002655D02*
X001763Y002655D01*
X001763Y002734D02*
X001897Y002734D01*
X001946Y002812D02*
X001722Y002812D01*
X001269Y002812D02*
X001189Y002812D01*
X001189Y002734D02*
X001269Y002734D01*
X001269Y002655D02*
X001189Y002655D01*
X001189Y002577D02*
X001269Y002577D01*
X001269Y002498D02*
X001189Y002498D01*
X001189Y002420D02*
X001269Y002420D01*
X001269Y002184D02*
X001189Y002184D01*
X001189Y002106D02*
X001269Y002106D01*
X001269Y002027D02*
X001189Y002027D01*
X001189Y001949D02*
X001269Y001949D01*
X001269Y001870D02*
X001189Y001870D01*
X001189Y001792D02*
X001269Y001792D01*
X001269Y001713D02*
X001189Y001713D01*
X000795Y001713D02*
X000460Y001713D01*
X000460Y001635D02*
X002211Y001635D01*
X002211Y001713D02*
X001664Y001713D01*
X001753Y001792D02*
X001903Y001792D01*
X001897Y001870D02*
X001763Y001870D01*
X001763Y001949D02*
X001897Y001949D01*
X001897Y002027D02*
X001763Y002027D01*
X001763Y002106D02*
X001897Y002106D01*
X001897Y002184D02*
X001763Y002184D01*
X002411Y002280D02*
X002411Y002451D01*
X002413Y002464D01*
X002418Y002476D01*
X002425Y002486D01*
X002436Y002493D01*
X002447Y002498D01*
X002460Y002500D01*
X004932Y002500D01*
X004945Y002502D01*
X004957Y002507D01*
X004967Y002515D01*
X004975Y002525D01*
X004980Y002537D01*
X004982Y002550D01*
X005358Y002577D02*
X005394Y002577D01*
X005394Y002655D02*
X005358Y002655D01*
X005358Y002734D02*
X005394Y002734D01*
X005394Y002812D02*
X005358Y002812D01*
X005818Y002598D02*
X007099Y002598D01*
X007099Y002795D02*
X007675Y002795D01*
X007740Y002860D01*
X007990Y002891D02*
X007996Y002891D01*
X007990Y002812D02*
X008466Y002812D01*
X008544Y002891D02*
X008284Y002891D01*
X008356Y002969D02*
X009204Y002969D01*
X009208Y002958D02*
X009278Y002888D01*
X009370Y002850D01*
X009470Y002850D01*
X009562Y002888D01*
X009632Y002958D01*
X009670Y003050D01*
X009670Y003150D01*
X009632Y003242D01*
X009580Y003294D01*
X009580Y003486D01*
X009420Y003646D01*
X009420Y005034D01*
X009921Y005534D01*
X010014Y005628D01*
X010014Y005726D01*
X010324Y005726D01*
X010342Y005716D01*
X010377Y005706D01*
X010445Y005706D01*
X010482Y005706D01*
X010450Y005630D01*
X010450Y005530D01*
X010488Y005438D01*
X010558Y005368D01*
X010650Y005330D01*
X010750Y005330D01*
X010842Y005368D01*
X010912Y005438D01*
X010938Y005502D01*
X011233Y005737D01*
X011606Y005737D01*
X011676Y005808D01*
X011676Y006332D01*
X011606Y006403D01*
X011349Y006403D01*
X011576Y006630D01*
X011726Y006480D01*
X012074Y006480D01*
X012320Y006726D01*
X012320Y007074D01*
X012074Y007320D01*
X011726Y007320D01*
X011480Y007074D01*
X011480Y006986D01*
X011420Y006926D01*
X011320Y006826D01*
X011320Y007074D01*
X011074Y007320D01*
X010726Y007320D01*
X010480Y007074D01*
X010480Y006860D01*
X010320Y006860D01*
X010320Y007074D01*
X010074Y007320D01*
X009726Y007320D01*
X009480Y007074D01*
X009480Y006726D01*
X009649Y006557D01*
X009151Y006557D01*
X009320Y006726D01*
X009320Y007074D01*
X009074Y007320D01*
X008726Y007320D01*
X008480Y007074D01*
X008480Y006726D01*
X008490Y006716D01*
X008400Y006626D01*
X008310Y006716D01*
X008320Y006726D01*
X008320Y007074D01*
X008074Y007320D01*
X007726Y007320D01*
X007480Y007074D01*
X007480Y006726D01*
X007709Y006497D01*
X007706Y006491D01*
X007697Y006455D01*
X007697Y006395D01*
X007689Y006409D01*
X007663Y006435D01*
X007631Y006453D01*
X007595Y006463D01*
X007410Y006463D01*
X007410Y006150D01*
X007330Y006150D01*
X007330Y006070D01*
X007024Y006070D01*
X007024Y005879D01*
X007033Y005843D01*
X007052Y005811D01*
X007078Y005785D01*
X007110Y005767D01*
X007145Y005757D01*
X007330Y005757D01*
X007330Y006070D01*
X007410Y006070D01*
X007410Y005757D01*
X007595Y005757D01*
X007631Y005767D01*
X007663Y005785D01*
X007689Y005811D01*
X007697Y005826D01*
X007706Y005792D01*
X007725Y005760D01*
X007751Y005734D01*
X007783Y005716D01*
X007818Y005706D01*
X007886Y005706D01*
X007913Y005706D01*
X007848Y005642D01*
X007810Y005550D01*
X007810Y005450D01*
X007848Y005358D01*
X007918Y005288D01*
X008010Y005250D01*
X008110Y005250D01*
X008202Y005288D01*
X008272Y005358D01*
X008310Y005450D01*
X008310Y005550D01*
X008272Y005642D01*
X008243Y005671D01*
X008243Y005726D01*
X008513Y005726D01*
X008513Y005667D01*
X008488Y005642D01*
X008450Y005550D01*
X008450Y005450D01*
X008488Y005358D01*
X008558Y005288D01*
X008650Y005250D01*
X008750Y005250D01*
X008842Y005288D01*
X008912Y005358D01*
X008950Y005450D01*
X008950Y005550D01*
X008912Y005642D01*
X008842Y005712D01*
X008833Y005715D01*
X008833Y005726D01*
X009420Y005726D01*
X008940Y005246D01*
X008940Y003534D01*
X008888Y003482D01*
X008850Y003390D01*
X008850Y003290D01*
X008888Y003198D01*
X008958Y003128D01*
X009050Y003090D01*
X009150Y003090D01*
X009170Y003098D01*
X009170Y003050D01*
X009208Y002958D01*
X009276Y002891D02*
X008976Y002891D01*
X009054Y002812D02*
X009247Y002812D01*
X009140Y002734D02*
X009133Y002734D01*
X009060Y002580D02*
X008900Y002740D01*
X008620Y002740D01*
X008020Y002140D01*
X007800Y002263D02*
X007502Y002263D01*
X007534Y002341D02*
X007867Y002341D01*
X008073Y002420D02*
X007534Y002420D01*
X007526Y002498D02*
X008152Y002498D01*
X008230Y002577D02*
X007514Y002577D01*
X007889Y002655D02*
X008309Y002655D01*
X008387Y002734D02*
X007958Y002734D01*
X008389Y003048D02*
X009171Y003048D01*
X008963Y003126D02*
X008390Y003126D01*
X008367Y003205D02*
X008886Y003205D01*
X008853Y003283D02*
X008311Y003283D01*
X008105Y003362D02*
X008850Y003362D01*
X008871Y003440D02*
X008026Y003440D01*
X007948Y003519D02*
X008925Y003519D01*
X008940Y003597D02*
X007869Y003597D01*
X007791Y003676D02*
X008940Y003676D01*
X008940Y003754D02*
X007712Y003754D01*
X007634Y003833D02*
X008940Y003833D01*
X008940Y003911D02*
X007555Y003911D01*
X007514Y003990D02*
X008940Y003990D01*
X008940Y004068D02*
X007514Y004068D01*
X007514Y004147D02*
X008940Y004147D01*
X008940Y004225D02*
X007514Y004225D01*
X007514Y004304D02*
X008940Y004304D01*
X008940Y004382D02*
X007514Y004382D01*
X007687Y004461D02*
X008940Y004461D01*
X008940Y004539D02*
X007853Y004539D01*
X007920Y004618D02*
X008940Y004618D01*
X008940Y004696D02*
X007950Y004696D01*
X007950Y004775D02*
X008940Y004775D01*
X008940Y004853D02*
X007924Y004853D01*
X007862Y004932D02*
X008940Y004932D01*
X008940Y005010D02*
X007514Y005010D01*
X007514Y004932D02*
X007538Y004932D01*
X007514Y005089D02*
X008940Y005089D01*
X008940Y005167D02*
X007514Y005167D01*
X007514Y005246D02*
X008940Y005246D01*
X008878Y005324D02*
X009018Y005324D01*
X009096Y005403D02*
X008930Y005403D01*
X008950Y005481D02*
X009175Y005481D01*
X009253Y005560D02*
X008946Y005560D01*
X008913Y005638D02*
X009332Y005638D01*
X009410Y005717D02*
X008833Y005717D01*
X008673Y005527D02*
X008700Y005500D01*
X008673Y005527D02*
X008673Y006142D01*
X008476Y006142D02*
X008476Y006476D01*
X008900Y006900D01*
X009320Y006894D02*
X009480Y006894D01*
X009480Y006816D02*
X009320Y006816D01*
X009320Y006737D02*
X009480Y006737D01*
X009548Y006659D02*
X009252Y006659D01*
X009174Y006580D02*
X009626Y006580D01*
X009900Y006900D02*
X010051Y006749D01*
X010051Y006142D01*
X009854Y006142D02*
X009854Y005694D01*
X009260Y005100D01*
X009260Y003580D01*
X009420Y003420D01*
X009420Y003100D01*
X009647Y003205D02*
X010369Y003205D01*
X010272Y003126D02*
X009670Y003126D01*
X009669Y003048D02*
X010237Y003048D01*
X010230Y002969D02*
X009636Y002969D01*
X009564Y002891D02*
X010246Y002891D01*
X010294Y002812D02*
X009433Y002812D01*
X009540Y002734D02*
X010320Y002734D01*
X010320Y002655D02*
X009580Y002655D01*
X009590Y002577D02*
X010320Y002577D01*
X010312Y002498D02*
X009979Y002498D01*
X010094Y002420D02*
X010233Y002420D01*
X010155Y002341D02*
X010137Y002341D01*
X009900Y002260D02*
X009854Y002214D01*
X009854Y001614D01*
X009658Y001614D02*
X009658Y002182D01*
X009540Y002300D01*
X009696Y002498D02*
X009821Y002498D01*
X009340Y002580D02*
X009260Y002500D01*
X009260Y002140D01*
X009461Y001939D01*
X009461Y001614D01*
X009264Y001614D02*
X009264Y001256D01*
X009420Y001100D01*
X009700Y001100D01*
X009900Y000900D01*
X010248Y001152D02*
X010420Y000980D01*
X010420Y000700D01*
X010660Y000460D01*
X015460Y000460D01*
X015900Y000900D01*
X016320Y000928D02*
X016480Y000928D01*
X016480Y000850D02*
X016320Y000850D01*
X016320Y000771D02*
X016480Y000771D01*
X016480Y000726D02*
X016726Y000480D01*
X017074Y000480D01*
X017320Y000726D01*
X017320Y001074D01*
X017074Y001320D01*
X016726Y001320D01*
X016720Y001314D01*
X015110Y002972D01*
X015110Y003050D01*
X015072Y003142D01*
X015025Y003188D01*
X015025Y003553D01*
X015112Y003553D01*
X015182Y003624D01*
X015182Y004156D01*
X015112Y004227D01*
X014619Y004227D01*
X014549Y004156D01*
X014549Y003624D01*
X014619Y003553D01*
X014705Y003553D01*
X014705Y003199D01*
X014648Y003142D01*
X014610Y003050D01*
X014610Y002950D01*
X014648Y002858D01*
X014718Y002788D01*
X014810Y002750D01*
X014880Y002750D01*
X016494Y001088D01*
X016480Y001074D01*
X016480Y000726D01*
X016514Y000693D02*
X016286Y000693D01*
X016208Y000614D02*
X016592Y000614D01*
X016671Y000536D02*
X016129Y000536D01*
X015466Y000693D02*
X015286Y000693D01*
X015320Y000771D02*
X015480Y000771D01*
X015480Y000850D02*
X015320Y000850D01*
X015320Y000928D02*
X015480Y000928D01*
X015480Y001007D02*
X015320Y001007D01*
X015309Y001085D02*
X015491Y001085D01*
X015570Y001164D02*
X015230Y001164D01*
X015152Y001242D02*
X015648Y001242D01*
X016152Y001242D02*
X016345Y001242D01*
X016421Y001164D02*
X016230Y001164D01*
X016309Y001085D02*
X016491Y001085D01*
X016480Y001007D02*
X016320Y001007D01*
X016900Y000900D02*
X014860Y003000D01*
X014865Y003005D01*
X014865Y003890D01*
X014900Y003855D01*
X014549Y003833D02*
X014541Y003833D01*
X014541Y003911D02*
X014549Y003911D01*
X014541Y003990D02*
X014549Y003990D01*
X014541Y004068D02*
X014549Y004068D01*
X014541Y004118D02*
X014471Y004188D01*
X014413Y004188D01*
X014430Y004230D01*
X014430Y004330D01*
X014392Y004422D01*
X014322Y004492D01*
X014230Y004530D01*
X014130Y004530D01*
X014038Y004492D01*
X013968Y004422D01*
X013930Y004330D01*
X013930Y004230D01*
X013951Y004181D01*
X013888Y004118D01*
X013888Y003593D01*
X013958Y003523D01*
X014471Y003523D01*
X014541Y003593D01*
X014541Y004118D01*
X014549Y004147D02*
X014513Y004147D01*
X014428Y004225D02*
X014617Y004225D01*
X014430Y004304D02*
X015330Y004304D01*
X015330Y004270D02*
X015348Y004227D01*
X015288Y004227D01*
X015218Y004156D01*
X015218Y003624D01*
X015288Y003553D01*
X015781Y003553D01*
X015851Y003624D01*
X015851Y004156D01*
X015803Y004205D01*
X015830Y004270D01*
X015830Y004370D01*
X015792Y004462D01*
X015722Y004532D01*
X015630Y004570D01*
X015530Y004570D01*
X015438Y004532D01*
X015368Y004462D01*
X015330Y004370D01*
X015330Y004270D01*
X015287Y004225D02*
X015113Y004225D01*
X015182Y004147D02*
X015218Y004147D01*
X015218Y004068D02*
X015182Y004068D01*
X015182Y003990D02*
X015218Y003990D01*
X015218Y003911D02*
X015182Y003911D01*
X015182Y003833D02*
X015218Y003833D01*
X015218Y003754D02*
X015182Y003754D01*
X015182Y003676D02*
X015218Y003676D01*
X015245Y003597D02*
X015155Y003597D01*
X015025Y003519D02*
X016440Y003519D01*
X016440Y003544D02*
X016355Y003544D01*
X016285Y003615D01*
X016285Y004139D01*
X016355Y004209D01*
X016868Y004209D01*
X016939Y004139D01*
X016939Y003615D01*
X016868Y003544D01*
X016760Y003544D01*
X016760Y003127D01*
X018246Y003127D01*
X018317Y003057D01*
X018317Y002258D01*
X018246Y002187D01*
X016147Y002187D01*
X016077Y002258D01*
X016077Y002897D01*
X016004Y002970D01*
X015930Y002970D01*
X015838Y003008D01*
X015768Y003078D01*
X015730Y003170D01*
X015730Y003270D01*
X015768Y003362D01*
X015838Y003432D01*
X015930Y003470D01*
X016030Y003470D01*
X016122Y003432D01*
X016192Y003362D01*
X016230Y003270D01*
X016230Y003196D01*
X016299Y003127D01*
X016440Y003127D01*
X016440Y003544D01*
X016303Y003597D02*
X015825Y003597D01*
X015851Y003676D02*
X016285Y003676D01*
X016285Y003754D02*
X015851Y003754D01*
X015851Y003833D02*
X016285Y003833D01*
X016285Y003911D02*
X015851Y003911D01*
X015851Y003990D02*
X016285Y003990D01*
X016285Y004068D02*
X015851Y004068D01*
X015851Y004147D02*
X016292Y004147D01*
X015811Y004225D02*
X017089Y004225D01*
X017095Y004209D02*
X017044Y004209D01*
X016974Y004139D01*
X016974Y003615D01*
X017044Y003544D01*
X017557Y003544D01*
X017627Y003615D01*
X017627Y004139D01*
X017557Y004209D01*
X017545Y004209D01*
X017570Y004270D01*
X017570Y004370D01*
X017532Y004462D01*
X017462Y004532D01*
X017370Y004570D01*
X017270Y004570D01*
X017178Y004532D01*
X017108Y004462D01*
X017070Y004370D01*
X017070Y004270D01*
X017095Y004209D01*
X017070Y004304D02*
X015830Y004304D01*
X015825Y004382D02*
X017075Y004382D01*
X017108Y004461D02*
X015792Y004461D01*
X015705Y004539D02*
X017195Y004539D01*
X017445Y004539D02*
X020340Y004539D01*
X020340Y004461D02*
X017532Y004461D01*
X017565Y004382D02*
X020340Y004382D01*
X020340Y004304D02*
X017570Y004304D01*
X017551Y004225D02*
X020340Y004225D01*
X020340Y004147D02*
X017620Y004147D01*
X017627Y004068D02*
X020340Y004068D01*
X020340Y003990D02*
X017627Y003990D01*
X017627Y003911D02*
X020340Y003911D01*
X020340Y003833D02*
X017627Y003833D01*
X017627Y003754D02*
X020340Y003754D01*
X020340Y003676D02*
X017627Y003676D01*
X017610Y003597D02*
X020340Y003597D01*
X020340Y003519D02*
X016760Y003519D01*
X016760Y003440D02*
X020340Y003440D01*
X020340Y003362D02*
X016760Y003362D01*
X016760Y003283D02*
X020340Y003283D01*
X020340Y003205D02*
X016760Y003205D01*
X016440Y003205D02*
X016230Y003205D01*
X016224Y003283D02*
X016440Y003283D01*
X016440Y003362D02*
X016192Y003362D01*
X016102Y003440D02*
X016440Y003440D01*
X016921Y003597D02*
X016992Y003597D01*
X016974Y003676D02*
X016939Y003676D01*
X016939Y003754D02*
X016974Y003754D01*
X016974Y003833D02*
X016939Y003833D01*
X016939Y003911D02*
X016974Y003911D01*
X016974Y003990D02*
X016939Y003990D01*
X016939Y004068D02*
X016974Y004068D01*
X016981Y004147D02*
X016931Y004147D01*
X016612Y003877D02*
X016600Y003865D01*
X016600Y002600D01*
X015980Y003220D01*
X015768Y003362D02*
X015025Y003362D01*
X015025Y003440D02*
X015858Y003440D01*
X015736Y003283D02*
X015025Y003283D01*
X015025Y003205D02*
X015730Y003205D01*
X015748Y003126D02*
X015078Y003126D01*
X015110Y003048D02*
X015799Y003048D01*
X016005Y002969D02*
X015113Y002969D01*
X015189Y002891D02*
X016077Y002891D01*
X016077Y002812D02*
X015266Y002812D01*
X015342Y002734D02*
X016077Y002734D01*
X016077Y002655D02*
X015418Y002655D01*
X015494Y002577D02*
X016077Y002577D01*
X016077Y002498D02*
X015571Y002498D01*
X015647Y002420D02*
X016077Y002420D01*
X016077Y002341D02*
X015723Y002341D01*
X015799Y002263D02*
X016077Y002263D01*
X015876Y002184D02*
X019583Y002184D01*
X019583Y002155D02*
X019593Y002120D01*
X019611Y002088D01*
X019637Y002062D01*
X019669Y002043D01*
X019705Y002034D01*
X019900Y002034D01*
X019900Y002331D01*
X019583Y002331D01*
X019583Y002155D01*
X019601Y002106D02*
X015952Y002106D01*
X016028Y002027D02*
X020340Y002027D01*
X020340Y001949D02*
X020276Y001949D01*
X020276Y001948D02*
X020206Y002018D01*
X019673Y002018D01*
X019603Y001948D01*
X019603Y001455D01*
X019673Y001384D01*
X019780Y001384D01*
X019780Y001320D01*
X019726Y001320D01*
X019480Y001074D01*
X019480Y000726D01*
X019726Y000480D01*
X020074Y000480D01*
X020320Y000726D01*
X020320Y001074D01*
X020100Y001294D01*
X020100Y001384D01*
X020206Y001384D01*
X020276Y001455D01*
X020276Y001948D01*
X020276Y001870D02*
X020340Y001870D01*
X020340Y001792D02*
X020276Y001792D01*
X020276Y001713D02*
X020340Y001713D01*
X020340Y001635D02*
X020276Y001635D01*
X020276Y001556D02*
X020340Y001556D01*
X020340Y001478D02*
X020276Y001478D01*
X020220Y001399D02*
X020340Y001399D01*
X020340Y001321D02*
X020100Y001321D01*
X020152Y001242D02*
X020340Y001242D01*
X020340Y001164D02*
X020230Y001164D01*
X020309Y001085D02*
X020340Y001085D01*
X020340Y001007D02*
X020320Y001007D01*
X020320Y000928D02*
X020340Y000928D01*
X020340Y000850D02*
X020320Y000850D01*
X020320Y000771D02*
X020340Y000771D01*
X020340Y000693D02*
X020286Y000693D01*
X020340Y000614D02*
X020208Y000614D01*
X020129Y000536D02*
X020340Y000536D01*
X019671Y000536D02*
X019129Y000536D01*
X019074Y000480D02*
X019320Y000726D01*
X019320Y001074D01*
X019074Y001320D01*
X018726Y001320D01*
X018480Y001074D01*
X018480Y000726D01*
X018726Y000480D01*
X019074Y000480D01*
X019208Y000614D02*
X019592Y000614D01*
X019514Y000693D02*
X019286Y000693D01*
X019320Y000771D02*
X019480Y000771D01*
X019480Y000850D02*
X019320Y000850D01*
X019320Y000928D02*
X019480Y000928D01*
X019480Y001007D02*
X019320Y001007D01*
X019309Y001085D02*
X019491Y001085D01*
X019570Y001164D02*
X019230Y001164D01*
X019152Y001242D02*
X019648Y001242D01*
X019780Y001321D02*
X016715Y001321D01*
X016638Y001399D02*
X019659Y001399D01*
X019603Y001478D02*
X016562Y001478D01*
X016486Y001556D02*
X019603Y001556D01*
X019603Y001635D02*
X016410Y001635D01*
X016333Y001713D02*
X019603Y001713D01*
X019603Y001792D02*
X016257Y001792D01*
X016181Y001870D02*
X019603Y001870D01*
X019604Y001949D02*
X016105Y001949D01*
X015811Y001792D02*
X014135Y001792D01*
X014213Y001713D02*
X015887Y001713D01*
X015963Y001635D02*
X014292Y001635D01*
X014370Y001556D02*
X016040Y001556D01*
X016116Y001478D02*
X014449Y001478D01*
X014527Y001399D02*
X016192Y001399D01*
X016268Y001321D02*
X014606Y001321D01*
X014310Y001164D02*
X014230Y001164D01*
X014232Y001242D02*
X014152Y001242D01*
X014153Y001321D02*
X011028Y001321D01*
X011028Y001320D02*
X011028Y001614D01*
X010839Y001614D01*
X010839Y001614D01*
X011028Y001614D01*
X011028Y001928D01*
X011018Y001963D01*
X011009Y001980D01*
X011078Y001980D01*
X011077Y001979D01*
X011058Y001947D01*
X011049Y001911D01*
X011049Y001720D01*
X011356Y001720D01*
X011356Y001640D01*
X011436Y001640D01*
X011436Y001720D01*
X011742Y001720D01*
X011742Y001810D01*
X011758Y001810D01*
X011758Y001418D01*
X011828Y001347D01*
X012341Y001347D01*
X012411Y001418D01*
X012411Y001763D01*
X012634Y001540D01*
X013934Y001540D01*
X014480Y000994D01*
X014480Y000726D01*
X014586Y000620D01*
X014214Y000620D01*
X014320Y000726D01*
X014320Y001074D01*
X014074Y001320D01*
X013726Y001320D01*
X013480Y001074D01*
X013480Y000726D01*
X013586Y000620D01*
X013214Y000620D01*
X013320Y000726D01*
X013320Y001074D01*
X013074Y001320D01*
X012726Y001320D01*
X012480Y001074D01*
X012480Y000726D01*
X012586Y000620D01*
X012214Y000620D01*
X012320Y000726D01*
X012320Y001074D01*
X012074Y001320D01*
X011726Y001320D01*
X011480Y001074D01*
X011480Y000726D01*
X011586Y000620D01*
X011214Y000620D01*
X011320Y000726D01*
X011320Y001074D01*
X011074Y001320D01*
X011028Y001320D01*
X011077Y001381D02*
X011103Y001355D01*
X011135Y001337D01*
X011170Y001327D01*
X011356Y001327D01*
X011356Y001640D01*
X011049Y001640D01*
X011049Y001449D01*
X011058Y001413D01*
X011077Y001381D01*
X011067Y001399D02*
X011028Y001399D01*
X011028Y001478D02*
X011049Y001478D01*
X011049Y001556D02*
X011028Y001556D01*
X011028Y001635D02*
X011049Y001635D01*
X011028Y001713D02*
X011356Y001713D01*
X011356Y001635D02*
X011436Y001635D01*
X011436Y001640D02*
X011436Y001327D01*
X011621Y001327D01*
X011656Y001337D01*
X011688Y001355D01*
X011714Y001381D01*
X011733Y001413D01*
X011742Y001449D01*
X011742Y001640D01*
X011436Y001640D01*
X011436Y001713D02*
X011758Y001713D01*
X011758Y001635D02*
X011742Y001635D01*
X011742Y001556D02*
X011758Y001556D01*
X011758Y001478D02*
X011742Y001478D01*
X011724Y001399D02*
X011776Y001399D01*
X011648Y001242D02*
X011152Y001242D01*
X011230Y001164D02*
X011570Y001164D01*
X011491Y001085D02*
X011309Y001085D01*
X011320Y001007D02*
X011480Y001007D01*
X011480Y000928D02*
X011320Y000928D01*
X011320Y000850D02*
X011480Y000850D01*
X011480Y000771D02*
X011320Y000771D01*
X011286Y000693D02*
X011514Y000693D01*
X010900Y000900D02*
X010740Y000900D01*
X010460Y001180D01*
X010460Y001599D01*
X010445Y001614D01*
X010642Y001614D02*
X010642Y001962D01*
X010820Y002140D01*
X011660Y002140D01*
X011740Y002060D01*
X012084Y001716D01*
X012084Y001680D01*
X012094Y001670D01*
X011758Y001792D02*
X011742Y001792D01*
X011436Y001556D02*
X011356Y001556D01*
X011356Y001478D02*
X011436Y001478D01*
X011436Y001399D02*
X011356Y001399D01*
X012152Y001242D02*
X012648Y001242D01*
X012570Y001164D02*
X012230Y001164D01*
X012309Y001085D02*
X012491Y001085D01*
X012480Y001007D02*
X012320Y001007D01*
X012320Y000928D02*
X012480Y000928D01*
X012480Y000850D02*
X012320Y000850D01*
X012320Y000771D02*
X012480Y000771D01*
X012514Y000693D02*
X012286Y000693D01*
X013286Y000693D02*
X013514Y000693D01*
X013480Y000771D02*
X013320Y000771D01*
X013320Y000850D02*
X013480Y000850D01*
X013480Y000928D02*
X013320Y000928D01*
X013320Y001007D02*
X013480Y001007D01*
X013491Y001085D02*
X013309Y001085D01*
X013230Y001164D02*
X013570Y001164D01*
X013648Y001242D02*
X013152Y001242D01*
X012392Y001399D02*
X014075Y001399D01*
X013996Y001478D02*
X012411Y001478D01*
X012411Y001556D02*
X012618Y001556D01*
X012539Y001635D02*
X012411Y001635D01*
X012411Y001713D02*
X012461Y001713D01*
X012700Y001700D02*
X012200Y002200D01*
X012200Y002500D01*
X012100Y002600D01*
X011628Y002600D01*
X011626Y002598D01*
X011211Y002577D02*
X010640Y002577D01*
X010640Y002655D02*
X011211Y002655D01*
X011211Y002734D02*
X010640Y002734D01*
X010666Y002812D02*
X011211Y002812D01*
X011211Y002891D02*
X010714Y002891D01*
X010730Y002969D02*
X011211Y002969D01*
X011211Y003048D02*
X010723Y003048D01*
X010688Y003126D02*
X011211Y003126D01*
X011211Y003205D02*
X010591Y003205D01*
X010480Y002980D02*
X010480Y002440D01*
X010051Y002011D01*
X010051Y001614D01*
X010248Y001614D02*
X010248Y001152D01*
X009067Y001614D02*
X009067Y002093D01*
X009060Y002140D01*
X009060Y002580D01*
X008860Y002380D02*
X008780Y002460D01*
X008860Y002380D02*
X008860Y002060D01*
X008870Y002050D01*
X008870Y001614D01*
X008673Y001614D02*
X008673Y002047D01*
X008580Y002140D01*
X007785Y002027D02*
X007627Y002027D01*
X007623Y002033D02*
X007597Y002059D01*
X007565Y002077D01*
X007530Y002087D01*
X007344Y002087D01*
X007344Y001774D01*
X007264Y001774D01*
X007264Y001694D01*
X006958Y001694D01*
X006958Y001503D01*
X006967Y001468D01*
X006986Y001436D01*
X007012Y001410D01*
X007044Y001391D01*
X007079Y001382D01*
X007264Y001382D01*
X007264Y001694D01*
X007344Y001694D01*
X007344Y001382D01*
X007530Y001382D01*
X007565Y001391D01*
X007597Y001410D01*
X007623Y001436D01*
X007642Y001468D01*
X007651Y001503D01*
X007651Y001694D01*
X007344Y001694D01*
X007344Y001774D01*
X007651Y001774D01*
X007651Y001965D01*
X007642Y002001D01*
X007623Y002033D01*
X007651Y001949D02*
X007717Y001949D01*
X007717Y001870D02*
X007651Y001870D01*
X007651Y001792D02*
X007717Y001792D01*
X007717Y001713D02*
X007344Y001713D01*
X007344Y001635D02*
X007264Y001635D01*
X007264Y001713D02*
X006942Y001713D01*
X006958Y001774D02*
X007264Y001774D01*
X007264Y002087D01*
X007079Y002087D01*
X007044Y002077D01*
X007012Y002059D01*
X006986Y002033D01*
X006967Y002001D01*
X006958Y001965D01*
X006958Y001774D01*
X006958Y001792D02*
X006942Y001792D01*
X006942Y001870D02*
X006958Y001870D01*
X006958Y001949D02*
X006942Y001949D01*
X006912Y002027D02*
X006982Y002027D01*
X006730Y002106D02*
X007770Y002106D01*
X007770Y002184D02*
X006659Y002184D01*
X006717Y002240D02*
X006691Y002266D01*
X006673Y002298D01*
X006663Y002334D01*
X006663Y002402D01*
X007098Y002402D01*
X007098Y002212D01*
X006785Y002212D01*
X006749Y002222D01*
X006717Y002240D01*
X006695Y002263D02*
X006590Y002263D01*
X006590Y002341D02*
X006663Y002341D01*
X006663Y002420D02*
X006561Y002420D01*
X006340Y002300D02*
X006696Y001904D01*
X006616Y001734D01*
X006289Y001713D02*
X002611Y001713D01*
X002611Y001635D02*
X006289Y001635D01*
X006289Y001556D02*
X002611Y001556D01*
X002611Y001478D02*
X006289Y001478D01*
X006074Y001320D02*
X005726Y001320D01*
X005480Y001074D01*
X005480Y000726D01*
X005726Y000480D01*
X006074Y000480D01*
X006320Y000726D01*
X006320Y001074D01*
X006074Y001320D01*
X006152Y001242D02*
X006648Y001242D01*
X006570Y001164D02*
X006230Y001164D01*
X006309Y001085D02*
X006491Y001085D01*
X006480Y001007D02*
X006320Y001007D01*
X006320Y000928D02*
X006480Y000928D01*
X006480Y000850D02*
X006320Y000850D01*
X006320Y000771D02*
X006480Y000771D01*
X006514Y000693D02*
X006286Y000693D01*
X006208Y000614D02*
X006592Y000614D01*
X006671Y000536D02*
X006129Y000536D01*
X005671Y000536D02*
X005129Y000536D01*
X005074Y000480D02*
X005320Y000726D01*
X005320Y001074D01*
X005074Y001320D01*
X004726Y001320D01*
X004480Y001074D01*
X004480Y000726D01*
X004726Y000480D01*
X005074Y000480D01*
X005208Y000614D02*
X005592Y000614D01*
X005514Y000693D02*
X005286Y000693D01*
X005320Y000771D02*
X005480Y000771D01*
X005480Y000850D02*
X005320Y000850D01*
X005320Y000928D02*
X005480Y000928D01*
X005480Y001007D02*
X005320Y001007D01*
X005309Y001085D02*
X005491Y001085D01*
X005570Y001164D02*
X005230Y001164D01*
X005152Y001242D02*
X005648Y001242D01*
X004648Y001242D02*
X004152Y001242D01*
X004074Y001320D02*
X003726Y001320D01*
X003480Y001074D01*
X003480Y000726D01*
X003726Y000480D01*
X004074Y000480D01*
X004320Y000726D01*
X004320Y001074D01*
X004074Y001320D01*
X004230Y001164D02*
X004570Y001164D01*
X004491Y001085D02*
X004309Y001085D01*
X004320Y001007D02*
X004480Y001007D01*
X004480Y000928D02*
X004320Y000928D01*
X004320Y000850D02*
X004480Y000850D01*
X004480Y000771D02*
X004320Y000771D01*
X004286Y000693D02*
X004514Y000693D01*
X004592Y000614D02*
X004208Y000614D01*
X004129Y000536D02*
X004671Y000536D01*
X003671Y000536D02*
X003129Y000536D01*
X003074Y000480D02*
X003320Y000726D01*
X003320Y001074D01*
X003074Y001320D01*
X002726Y001320D01*
X002480Y001074D01*
X002480Y000726D01*
X002726Y000480D01*
X003074Y000480D01*
X003208Y000614D02*
X003592Y000614D01*
X003514Y000693D02*
X003286Y000693D01*
X003320Y000771D02*
X003480Y000771D01*
X003480Y000850D02*
X003320Y000850D01*
X003320Y000928D02*
X003480Y000928D01*
X003480Y001007D02*
X003320Y001007D01*
X003309Y001085D02*
X003491Y001085D01*
X003570Y001164D02*
X003230Y001164D01*
X003152Y001242D02*
X003648Y001242D01*
X002648Y001242D02*
X002525Y001242D01*
X002570Y001164D02*
X002446Y001164D01*
X002491Y001085D02*
X002368Y001085D01*
X002320Y001007D02*
X002480Y001007D01*
X002480Y000928D02*
X002320Y000928D01*
X002320Y000850D02*
X002480Y000850D01*
X002480Y000771D02*
X002320Y000771D01*
X002286Y000693D02*
X002514Y000693D01*
X002592Y000614D02*
X002208Y000614D01*
X002129Y000536D02*
X002671Y000536D01*
X001671Y000536D02*
X001158Y000536D01*
X001082Y000460D02*
X000940Y000460D01*
X000940Y000860D01*
X000940Y000940D01*
X001340Y000940D01*
X001340Y001082D01*
X001082Y001340D01*
X000940Y001340D01*
X000940Y000940D01*
X000860Y000940D01*
X000860Y001340D01*
X000718Y001340D01*
X000460Y001082D01*
X000460Y000940D01*
X000860Y000940D01*
X000860Y000860D01*
X000940Y000860D01*
X001340Y000860D01*
X001340Y000718D01*
X001082Y000460D01*
X000940Y000536D02*
X000860Y000536D01*
X000860Y000460D02*
X000718Y000460D01*
X000460Y000718D01*
X000460Y000860D01*
X000860Y000860D01*
X000860Y000460D01*
X000642Y000536D02*
X000460Y000536D01*
X000460Y000614D02*
X000564Y000614D01*
X000485Y000693D02*
X000460Y000693D01*
X000460Y000771D02*
X000460Y000771D01*
X000460Y000850D02*
X000460Y000850D01*
X000460Y000928D02*
X000860Y000928D01*
X000860Y000850D02*
X000940Y000850D01*
X000940Y000928D02*
X001480Y000928D01*
X001480Y000850D02*
X001340Y000850D01*
X001340Y000771D02*
X001480Y000771D01*
X001514Y000693D02*
X001315Y000693D01*
X001236Y000614D02*
X001592Y000614D01*
X000940Y000614D02*
X000860Y000614D01*
X000860Y000693D02*
X000940Y000693D01*
X000940Y000771D02*
X000860Y000771D01*
X000860Y001007D02*
X000940Y001007D01*
X000940Y001085D02*
X000860Y001085D01*
X000860Y001164D02*
X000940Y001164D01*
X000940Y001242D02*
X000860Y001242D01*
X000860Y001321D02*
X000940Y001321D01*
X001102Y001321D02*
X002038Y001321D01*
X002116Y001399D02*
X000460Y001399D01*
X000460Y001321D02*
X000698Y001321D01*
X000620Y001242D02*
X000460Y001242D01*
X000460Y001164D02*
X000541Y001164D01*
X000463Y001085D02*
X000460Y001085D01*
X000460Y001007D02*
X000460Y001007D01*
X001180Y001242D02*
X001648Y001242D01*
X001570Y001164D02*
X001259Y001164D01*
X001337Y001085D02*
X001491Y001085D01*
X001480Y001007D02*
X001340Y001007D01*
X002195Y001478D02*
X000460Y001478D01*
X000460Y001556D02*
X002211Y001556D01*
X002611Y001399D02*
X007030Y001399D01*
X006965Y001478D02*
X006942Y001478D01*
X006942Y001556D02*
X006958Y001556D01*
X006958Y001635D02*
X006942Y001635D01*
X007264Y001556D02*
X007344Y001556D01*
X007344Y001478D02*
X007264Y001478D01*
X007264Y001399D02*
X007344Y001399D01*
X007579Y001399D02*
X007717Y001399D01*
X007717Y001321D02*
X002603Y001321D01*
X002919Y001792D02*
X006289Y001792D01*
X006289Y001870D02*
X002924Y001870D01*
X002924Y001949D02*
X006289Y001949D01*
X006319Y002027D02*
X002924Y002027D01*
X002924Y002106D02*
X006181Y002106D01*
X005395Y002184D02*
X005357Y002184D01*
X005358Y002263D02*
X005394Y002263D01*
X005394Y002341D02*
X005358Y002341D01*
X005358Y002420D02*
X005394Y002420D01*
X005394Y002498D02*
X005358Y002498D01*
X005770Y002550D02*
X005772Y002562D01*
X005776Y002574D01*
X005784Y002584D01*
X005794Y002592D01*
X005806Y002596D01*
X005818Y002598D01*
X004606Y002734D02*
X002924Y002734D01*
X002875Y002812D02*
X004606Y002812D01*
X003806Y003189D02*
X002750Y004245D01*
X003087Y004225D02*
X004229Y004225D01*
X004307Y004147D02*
X003087Y004147D01*
X003154Y004068D02*
X004386Y004068D01*
X004507Y004173D02*
X003380Y005300D01*
X003380Y007140D01*
X003180Y007340D01*
X001020Y007340D01*
X000900Y007220D01*
X000900Y006900D01*
X001320Y006894D02*
X001480Y006894D01*
X001480Y006816D02*
X001320Y006816D01*
X001320Y006737D02*
X001480Y006737D01*
X001548Y006659D02*
X001252Y006659D01*
X001174Y006580D02*
X001626Y006580D01*
X001680Y006502D02*
X001095Y006502D01*
X002000Y006423D02*
X002590Y006423D01*
X002590Y006345D02*
X002000Y006345D01*
X002000Y006266D02*
X002590Y006266D01*
X002590Y006188D02*
X002000Y006188D01*
X002000Y006109D02*
X002590Y006109D01*
X002590Y006031D02*
X002000Y006031D01*
X002000Y005952D02*
X002590Y005952D01*
X002590Y005874D02*
X002000Y005874D01*
X002000Y005795D02*
X002590Y005795D01*
X002590Y005717D02*
X002000Y005717D01*
X002000Y005638D02*
X002590Y005638D01*
X002590Y005560D02*
X002000Y005560D01*
X002000Y005481D02*
X002590Y005481D01*
X002590Y005403D02*
X002000Y005403D01*
X002000Y005324D02*
X002590Y005324D01*
X002590Y005246D02*
X002000Y005246D01*
X002177Y005167D02*
X002419Y005167D01*
X002413Y005089D02*
X002177Y005089D01*
X002177Y005010D02*
X002413Y005010D01*
X002413Y004932D02*
X002177Y004932D01*
X002177Y004853D02*
X002413Y004853D01*
X002413Y004775D02*
X002177Y004775D01*
X002177Y004696D02*
X002413Y004696D01*
X002464Y004618D02*
X002116Y004618D01*
X002139Y004539D02*
X002461Y004539D01*
X002413Y004461D02*
X002177Y004461D01*
X002177Y004382D02*
X002413Y004382D01*
X002413Y004304D02*
X002177Y004304D01*
X002177Y004225D02*
X002413Y004225D01*
X002413Y004147D02*
X002177Y004147D01*
X002254Y004068D02*
X002413Y004068D01*
X002423Y003990D02*
X002332Y003990D01*
X002411Y003911D02*
X002858Y003911D01*
X002937Y003833D02*
X002489Y003833D01*
X002568Y003754D02*
X003015Y003754D01*
X003094Y003676D02*
X002646Y003676D01*
X002725Y003597D02*
X003172Y003597D01*
X003251Y003519D02*
X002803Y003519D01*
X002882Y003440D02*
X003329Y003440D01*
X003408Y003362D02*
X002960Y003362D01*
X003039Y003283D02*
X003486Y003283D01*
X003565Y003205D02*
X003117Y003205D01*
X003103Y002992D02*
X001840Y004255D01*
X003039Y004539D02*
X003915Y004539D01*
X003993Y004461D02*
X003087Y004461D01*
X003087Y004382D02*
X004072Y004382D01*
X004150Y004304D02*
X003087Y004304D01*
X003036Y004618D02*
X003836Y004618D01*
X003758Y004696D02*
X003087Y004696D01*
X003087Y004775D02*
X003679Y004775D01*
X003601Y004853D02*
X003087Y004853D01*
X003087Y004932D02*
X003522Y004932D01*
X003444Y005010D02*
X003087Y005010D01*
X003087Y005089D02*
X003365Y005089D01*
X003287Y005167D02*
X003081Y005167D01*
X003220Y005246D02*
X002910Y005246D01*
X002910Y005324D02*
X003220Y005324D01*
X003220Y005403D02*
X002910Y005403D01*
X002910Y005481D02*
X003220Y005481D01*
X003220Y005560D02*
X002910Y005560D01*
X002910Y005638D02*
X003220Y005638D01*
X003220Y005717D02*
X002910Y005717D01*
X002910Y005795D02*
X003220Y005795D01*
X003220Y005874D02*
X002910Y005874D01*
X002910Y005952D02*
X003220Y005952D01*
X003220Y006031D02*
X002910Y006031D01*
X002910Y006109D02*
X003220Y006109D01*
X003220Y006188D02*
X002910Y006188D01*
X002910Y006266D02*
X003220Y006266D01*
X003220Y006345D02*
X002910Y006345D01*
X002910Y006423D02*
X003220Y006423D01*
X003220Y006502D02*
X003095Y006502D01*
X003174Y006580D02*
X003220Y006580D01*
X002900Y006900D02*
X002750Y006750D01*
X002750Y004915D01*
X001840Y004925D02*
X001840Y006840D01*
X001900Y006900D01*
X002320Y006894D02*
X002480Y006894D01*
X002480Y006816D02*
X002320Y006816D01*
X002320Y006737D02*
X002480Y006737D01*
X002548Y006659D02*
X002252Y006659D01*
X002174Y006580D02*
X002590Y006580D01*
X002590Y006502D02*
X002095Y006502D01*
X002320Y006973D02*
X002480Y006973D01*
X002480Y007051D02*
X002320Y007051D01*
X002264Y007130D02*
X002536Y007130D01*
X003460Y007287D02*
X003693Y007287D01*
X003614Y007208D02*
X003538Y007208D01*
X003900Y006900D02*
X003900Y005300D01*
X004830Y004370D01*
X007099Y004370D01*
X007099Y004173D02*
X004507Y004173D01*
X004631Y003990D02*
X003232Y003990D01*
X003311Y003911D02*
X004604Y003911D01*
X004604Y003833D02*
X003389Y003833D01*
X003468Y003754D02*
X004604Y003754D01*
X004604Y003597D02*
X003625Y003597D01*
X003703Y003519D02*
X004604Y003519D01*
X004608Y003440D02*
X003782Y003440D01*
X003860Y003362D02*
X004658Y003362D01*
X005202Y003349D02*
X005224Y003361D01*
X005250Y003388D01*
X005268Y003419D01*
X005278Y003455D01*
X005278Y003650D01*
X004981Y003650D01*
X004981Y003730D01*
X005278Y003730D01*
X005278Y003925D01*
X005268Y003961D01*
X005250Y003992D01*
X005229Y004013D01*
X005350Y004013D01*
X005294Y003956D01*
X005294Y003424D01*
X005364Y003353D01*
X005721Y003353D01*
X005725Y003349D01*
X005202Y003349D01*
X005224Y003362D02*
X005356Y003362D01*
X005294Y003440D02*
X005274Y003440D01*
X005278Y003519D02*
X005294Y003519D01*
X005294Y003597D02*
X005278Y003597D01*
X005294Y003676D02*
X004981Y003676D01*
X004901Y003676D02*
X003546Y003676D01*
X003806Y003189D02*
X007099Y003189D01*
X007099Y002992D02*
X003103Y002992D01*
X002924Y002263D02*
X004606Y002263D01*
X004607Y002184D02*
X002924Y002184D01*
X000696Y002184D02*
X000460Y002184D01*
X000460Y002106D02*
X000696Y002106D01*
X000696Y002027D02*
X000460Y002027D01*
X000460Y001949D02*
X000696Y001949D01*
X000696Y001870D02*
X000460Y001870D01*
X000460Y001792D02*
X000706Y001792D01*
X005278Y003754D02*
X005294Y003754D01*
X005294Y003833D02*
X005278Y003833D01*
X005278Y003911D02*
X005294Y003911D01*
X005327Y003990D02*
X005252Y003990D01*
X005610Y003690D02*
X005897Y003976D01*
X007099Y003976D01*
X007099Y003779D02*
X007461Y003779D01*
X008140Y003100D01*
X009100Y003340D02*
X009100Y005180D01*
X009660Y005740D01*
X009660Y006139D01*
X009658Y006142D01*
X010248Y006142D02*
X010248Y006568D01*
X010380Y006700D01*
X010700Y006700D01*
X010900Y006900D01*
X011320Y006894D02*
X011388Y006894D01*
X011320Y006973D02*
X011466Y006973D01*
X011480Y007051D02*
X011320Y007051D01*
X011264Y007130D02*
X011536Y007130D01*
X011614Y007208D02*
X011186Y007208D01*
X011107Y007287D02*
X011693Y007287D01*
X012107Y007287D02*
X012693Y007287D01*
X012614Y007208D02*
X012186Y007208D01*
X012264Y007130D02*
X012536Y007130D01*
X012480Y007051D02*
X012320Y007051D01*
X012320Y006973D02*
X012480Y006973D01*
X012480Y006894D02*
X012320Y006894D01*
X012320Y006816D02*
X012480Y006816D01*
X012480Y006737D02*
X012320Y006737D01*
X012252Y006659D02*
X012548Y006659D01*
X012626Y006580D02*
X012174Y006580D01*
X012095Y006502D02*
X012700Y006502D01*
X012700Y006423D02*
X011369Y006423D01*
X011448Y006502D02*
X011705Y006502D01*
X011626Y006580D02*
X011526Y006580D01*
X011580Y006860D02*
X011180Y006460D01*
X011100Y006460D01*
X010839Y006199D01*
X010839Y006142D01*
X010642Y006142D02*
X010642Y005638D01*
X010700Y005580D01*
X010780Y005580D01*
X011180Y005900D01*
X011350Y006070D01*
X011676Y006109D02*
X011999Y006109D01*
X011999Y006031D02*
X011676Y006031D01*
X011692Y006030D02*
X011692Y005839D01*
X011702Y005803D01*
X011720Y005771D01*
X011746Y005745D01*
X011778Y005727D01*
X011814Y005717D01*
X011999Y005717D01*
X011999Y006030D01*
X011692Y006030D01*
X011692Y005952D02*
X011676Y005952D01*
X011676Y005874D02*
X011692Y005874D01*
X011706Y005795D02*
X011664Y005795D01*
X011999Y005795D02*
X012079Y005795D01*
X012079Y005874D02*
X011999Y005874D01*
X011999Y005952D02*
X012079Y005952D01*
X012079Y006031D02*
X012364Y006031D01*
X012443Y006109D02*
X012079Y006109D01*
X012079Y006188D02*
X011999Y006188D01*
X011999Y006266D02*
X012079Y006266D01*
X012079Y006345D02*
X011999Y006345D01*
X012371Y006345D02*
X012678Y006345D01*
X012600Y006266D02*
X012385Y006266D01*
X012385Y006188D02*
X012521Y006188D01*
X012860Y006300D02*
X012860Y006860D01*
X012900Y006900D01*
X013320Y006894D02*
X013468Y006894D01*
X013480Y006973D02*
X013320Y006973D01*
X013320Y007051D02*
X013480Y007051D01*
X013536Y007130D02*
X013264Y007130D01*
X013186Y007208D02*
X013614Y007208D01*
X013693Y007287D02*
X013107Y007287D01*
X013860Y006860D02*
X013900Y006900D01*
X013860Y006860D02*
X013660Y006860D01*
X011957Y005157D01*
X011626Y005157D01*
X011626Y004961D02*
X012001Y004961D01*
X013500Y006460D01*
X014220Y006460D01*
X014620Y006860D01*
X014860Y006860D01*
X014900Y006900D01*
X015320Y006894D02*
X015480Y006894D01*
X015480Y006816D02*
X015320Y006816D01*
X015320Y006737D02*
X015480Y006737D01*
X015432Y006659D02*
X015252Y006659D01*
X015460Y006460D02*
X015900Y006900D01*
X016320Y006894D02*
X016480Y006894D01*
X016480Y006816D02*
X016320Y006816D01*
X016320Y006737D02*
X016480Y006737D01*
X016480Y006726D02*
X016726Y006480D01*
X017074Y006480D01*
X017320Y006726D01*
X017320Y007074D01*
X017074Y007320D01*
X016726Y007320D01*
X016480Y007074D01*
X016480Y006726D01*
X016548Y006659D02*
X016252Y006659D01*
X016174Y006580D02*
X016626Y006580D01*
X016705Y006502D02*
X016095Y006502D01*
X015649Y006423D02*
X020340Y006423D01*
X020340Y006345D02*
X015571Y006345D01*
X015460Y006460D02*
X014460Y006460D01*
X014300Y006300D01*
X013580Y006300D01*
X012060Y004780D01*
X012060Y004460D01*
X011970Y004370D01*
X011626Y004370D01*
X011626Y004173D02*
X011307Y004173D01*
X010940Y004500D01*
X010820Y004500D01*
X010590Y004696D02*
X010578Y004696D01*
X010545Y004775D02*
X009420Y004775D01*
X009420Y004853D02*
X010530Y004853D01*
X010539Y004932D02*
X009420Y004932D01*
X009420Y005010D02*
X010576Y005010D01*
X010678Y005089D02*
X009475Y005089D01*
X009553Y005167D02*
X011211Y005167D01*
X011211Y005089D02*
X010882Y005089D01*
X010984Y005010D02*
X011211Y005010D01*
X011211Y004932D02*
X011021Y004932D01*
X011048Y004853D02*
X011197Y004853D01*
X011191Y004775D02*
X011148Y004775D01*
X011153Y004567D02*
X010780Y004860D01*
X011153Y004567D02*
X011626Y004567D01*
X012220Y004539D02*
X015455Y004539D01*
X015368Y004461D02*
X014353Y004461D01*
X014408Y004382D02*
X015335Y004382D01*
X015580Y004320D02*
X015580Y003855D01*
X015535Y003890D01*
X014705Y003519D02*
X013557Y003519D01*
X013557Y003440D02*
X014705Y003440D01*
X014705Y003362D02*
X013557Y003362D01*
X013557Y003283D02*
X014705Y003283D01*
X014705Y003205D02*
X013557Y003205D01*
X013237Y003205D02*
X013058Y003205D01*
X013110Y003283D02*
X013237Y003283D01*
X013237Y003362D02*
X013130Y003362D01*
X013126Y003440D02*
X013237Y003440D01*
X013237Y003519D02*
X013093Y003519D01*
X013009Y003597D02*
X013199Y003597D01*
X013199Y003676D02*
X012041Y003676D01*
X012041Y003754D02*
X013199Y003754D01*
X013199Y003833D02*
X012041Y003833D01*
X012041Y003911D02*
X013199Y003911D01*
X013199Y003990D02*
X012041Y003990D01*
X012041Y004068D02*
X013199Y004068D01*
X013227Y004147D02*
X012041Y004147D01*
X012051Y004225D02*
X013932Y004225D01*
X013930Y004304D02*
X012130Y004304D01*
X012208Y004382D02*
X013952Y004382D01*
X014007Y004461D02*
X012220Y004461D01*
X012220Y004618D02*
X020340Y004618D01*
X020340Y004696D02*
X012220Y004696D01*
X012281Y004775D02*
X020340Y004775D01*
X020340Y004853D02*
X012359Y004853D01*
X012438Y004932D02*
X020340Y004932D01*
X020340Y005010D02*
X012516Y005010D01*
X012595Y005089D02*
X020340Y005089D01*
X020340Y005167D02*
X012673Y005167D01*
X012752Y005246D02*
X020340Y005246D01*
X020340Y005324D02*
X012830Y005324D01*
X012909Y005403D02*
X020340Y005403D01*
X020340Y005481D02*
X012987Y005481D01*
X013066Y005560D02*
X020340Y005560D01*
X020340Y005638D02*
X013144Y005638D01*
X013223Y005717D02*
X020340Y005717D01*
X020340Y005795D02*
X013301Y005795D01*
X013380Y005874D02*
X020340Y005874D01*
X020340Y005952D02*
X013458Y005952D01*
X013537Y006031D02*
X020340Y006031D01*
X020340Y006109D02*
X013615Y006109D01*
X012860Y006300D02*
X011914Y005354D01*
X011626Y005354D01*
X011893Y005560D02*
X011010Y005560D01*
X010930Y005481D02*
X011239Y005481D01*
X011211Y005403D02*
X010876Y005403D01*
X010524Y005403D02*
X009789Y005403D01*
X009867Y005481D02*
X010470Y005481D01*
X010450Y005560D02*
X009946Y005560D01*
X010014Y005638D02*
X010453Y005638D01*
X010445Y005706D02*
X010445Y006142D01*
X010445Y006142D01*
X010445Y005706D01*
X010445Y005717D02*
X010445Y005717D01*
X010445Y005795D02*
X010445Y005795D01*
X010445Y005874D02*
X010445Y005874D01*
X010445Y005952D02*
X010445Y005952D01*
X010445Y006031D02*
X010445Y006031D01*
X010445Y006109D02*
X010445Y006109D01*
X010341Y005717D02*
X010014Y005717D01*
X009710Y005324D02*
X011211Y005324D01*
X011211Y005246D02*
X009632Y005246D01*
X008522Y005324D02*
X008238Y005324D01*
X008290Y005403D02*
X008470Y005403D01*
X008450Y005481D02*
X008310Y005481D01*
X008306Y005560D02*
X008454Y005560D01*
X008487Y005638D02*
X008273Y005638D01*
X008243Y005717D02*
X008513Y005717D01*
X008083Y005523D02*
X008060Y005500D01*
X008083Y005523D02*
X008083Y006142D01*
X008280Y006142D02*
X008280Y006520D01*
X007900Y006900D01*
X008320Y006894D02*
X008480Y006894D01*
X008480Y006816D02*
X008320Y006816D01*
X008320Y006737D02*
X008480Y006737D01*
X008432Y006659D02*
X008368Y006659D01*
X007705Y006502D02*
X007095Y006502D01*
X007110Y006453D02*
X007078Y006435D01*
X007052Y006409D01*
X007033Y006377D01*
X007024Y006341D01*
X007024Y006150D01*
X007330Y006150D01*
X007330Y006463D01*
X007145Y006463D01*
X007110Y006453D01*
X007066Y006423D02*
X006957Y006423D01*
X007008Y006345D02*
X007024Y006345D01*
X007024Y006266D02*
X007008Y006266D01*
X007008Y006188D02*
X007024Y006188D01*
X007008Y006109D02*
X007330Y006109D01*
X007330Y006031D02*
X007410Y006031D01*
X007410Y006070D02*
X007410Y006150D01*
X007697Y006150D01*
X007697Y006142D01*
X007886Y006142D01*
X007886Y006142D01*
X007697Y006142D01*
X007697Y006070D01*
X007410Y006070D01*
X007410Y006109D02*
X007697Y006109D01*
X007886Y006109D02*
X007886Y006109D01*
X007886Y006142D02*
X007886Y005706D01*
X007886Y006142D01*
X007886Y006142D01*
X007886Y006031D02*
X007886Y006031D01*
X007886Y005952D02*
X007886Y005952D01*
X007886Y005874D02*
X007886Y005874D01*
X007886Y005795D02*
X007886Y005795D01*
X007886Y005717D02*
X007886Y005717D01*
X007847Y005638D02*
X006950Y005638D01*
X006947Y005717D02*
X007782Y005717D01*
X007706Y005795D02*
X007673Y005795D01*
X007410Y005795D02*
X007330Y005795D01*
X007330Y005874D02*
X007410Y005874D01*
X007410Y005952D02*
X007330Y005952D01*
X007024Y005952D02*
X007008Y005952D01*
X007008Y005874D02*
X007025Y005874D01*
X007068Y005795D02*
X006955Y005795D01*
X006700Y005660D02*
X006681Y005679D01*
X006681Y006110D01*
X007008Y006031D02*
X007024Y006031D01*
X007330Y006188D02*
X007410Y006188D01*
X007410Y006266D02*
X007330Y006266D01*
X007330Y006345D02*
X007410Y006345D01*
X007410Y006423D02*
X007330Y006423D01*
X007174Y006580D02*
X007626Y006580D01*
X007548Y006659D02*
X007252Y006659D01*
X007320Y006737D02*
X007480Y006737D01*
X007480Y006816D02*
X007320Y006816D01*
X007320Y006894D02*
X007480Y006894D01*
X007480Y006973D02*
X007320Y006973D01*
X007320Y007051D02*
X007480Y007051D01*
X007536Y007130D02*
X007264Y007130D01*
X007186Y007208D02*
X007614Y007208D01*
X007693Y007287D02*
X007107Y007287D01*
X006693Y007287D02*
X006107Y007287D01*
X006186Y007208D02*
X006614Y007208D01*
X006536Y007130D02*
X006264Y007130D01*
X006320Y007051D02*
X006480Y007051D01*
X006480Y006973D02*
X006320Y006973D01*
X006320Y006894D02*
X006428Y006894D01*
X006349Y006816D02*
X006320Y006816D01*
X006140Y006660D02*
X005900Y006900D01*
X005480Y006894D02*
X005320Y006894D01*
X005320Y006816D02*
X005480Y006816D01*
X005480Y006737D02*
X005320Y006737D01*
X005320Y006726D02*
X005320Y007074D01*
X005074Y007320D01*
X004726Y007320D01*
X004480Y007074D01*
X004480Y006726D01*
X004496Y006710D01*
X004490Y006710D01*
X004398Y006672D01*
X004328Y006602D01*
X004290Y006510D01*
X004290Y006410D01*
X004327Y006321D01*
X004237Y006321D01*
X004166Y006251D01*
X004166Y005758D01*
X004237Y005688D01*
X004769Y005688D01*
X004840Y005758D01*
X004840Y005838D01*
X004897Y005838D01*
X004897Y005772D01*
X004967Y005702D01*
X005696Y005702D01*
X005766Y005772D01*
X005766Y006384D01*
X005696Y006454D01*
X004967Y006454D01*
X004897Y006384D01*
X004897Y006158D01*
X004840Y006158D01*
X004840Y006251D01*
X004769Y006321D01*
X004753Y006321D01*
X004790Y006410D01*
X004790Y006480D01*
X005074Y006480D01*
X005320Y006726D01*
X005252Y006659D02*
X005548Y006659D01*
X005626Y006580D02*
X005174Y006580D01*
X005095Y006502D02*
X005705Y006502D01*
X005727Y006423D02*
X005980Y006423D01*
X005980Y006345D02*
X005766Y006345D01*
X005766Y006266D02*
X005980Y006266D01*
X005980Y006188D02*
X005766Y006188D01*
X005766Y006109D02*
X005980Y006109D01*
X005980Y006031D02*
X005766Y006031D01*
X005766Y005952D02*
X005980Y005952D01*
X005980Y005874D02*
X005766Y005874D01*
X005766Y005795D02*
X005980Y005795D01*
X005980Y005717D02*
X005711Y005717D01*
X005725Y005638D02*
X005980Y005638D01*
X005980Y005560D02*
X005766Y005560D01*
X005766Y005481D02*
X005980Y005481D01*
X005980Y005403D02*
X005766Y005403D01*
X005766Y005324D02*
X005980Y005324D01*
X006008Y005246D02*
X005766Y005246D01*
X005766Y005167D02*
X006087Y005167D01*
X006165Y005089D02*
X006002Y005089D01*
X006104Y005010D02*
X006244Y005010D01*
X006322Y004932D02*
X006141Y004932D01*
X006150Y004853D02*
X006401Y004853D01*
X006479Y004775D02*
X006135Y004775D01*
X006090Y004696D02*
X006558Y004696D01*
X006636Y004618D02*
X005968Y004618D01*
X005832Y004618D02*
X004848Y004618D01*
X004887Y004539D02*
X006683Y004539D01*
X007099Y004567D02*
X007567Y004567D01*
X007700Y004740D01*
X007099Y004764D02*
X006716Y004764D01*
X006140Y005340D01*
X006140Y006660D01*
X006300Y006540D02*
X006300Y005420D01*
X006759Y004961D01*
X007099Y004961D01*
X007514Y005324D02*
X007882Y005324D01*
X007830Y005403D02*
X007514Y005403D01*
X007486Y005481D02*
X007810Y005481D01*
X007814Y005560D02*
X006929Y005560D01*
X005798Y005089D02*
X005766Y005089D01*
X005549Y005211D02*
X005331Y005291D01*
X005762Y004860D01*
X005900Y004860D01*
X005710Y004696D02*
X004970Y004696D01*
X005015Y004775D02*
X005621Y004775D01*
X005543Y004853D02*
X005030Y004853D01*
X004780Y004860D02*
X004503Y005137D01*
X004503Y005335D01*
X004840Y005324D02*
X004897Y005324D01*
X004897Y005246D02*
X004840Y005246D01*
X004840Y005167D02*
X004897Y005167D01*
X004897Y005089D02*
X004882Y005089D01*
X004897Y005403D02*
X004840Y005403D01*
X004840Y005481D02*
X004897Y005481D01*
X004897Y005560D02*
X004840Y005560D01*
X004783Y005638D02*
X004938Y005638D01*
X004952Y005717D02*
X004798Y005717D01*
X004840Y005795D02*
X004897Y005795D01*
X004550Y005998D02*
X005251Y005998D01*
X005331Y006078D01*
X004897Y006188D02*
X004840Y006188D01*
X004825Y006266D02*
X004897Y006266D01*
X004897Y006345D02*
X004763Y006345D01*
X004790Y006423D02*
X004936Y006423D01*
X004540Y006460D02*
X004503Y006417D01*
X004503Y006005D01*
X004550Y005998D01*
X004166Y006031D02*
X004060Y006031D01*
X004060Y006109D02*
X004166Y006109D01*
X004166Y006188D02*
X004060Y006188D01*
X004060Y006266D02*
X004181Y006266D01*
X004060Y006345D02*
X004317Y006345D01*
X004290Y006423D02*
X004060Y006423D01*
X004095Y006502D02*
X004290Y006502D01*
X004319Y006580D02*
X004174Y006580D01*
X004252Y006659D02*
X004385Y006659D01*
X004320Y006737D02*
X004480Y006737D01*
X004480Y006816D02*
X004320Y006816D01*
X004320Y006894D02*
X004480Y006894D01*
X004480Y006973D02*
X004320Y006973D01*
X004320Y007051D02*
X004480Y007051D01*
X004536Y007130D02*
X004264Y007130D01*
X004186Y007208D02*
X004614Y007208D01*
X004693Y007287D02*
X004107Y007287D01*
X005107Y007287D02*
X005693Y007287D01*
X005614Y007208D02*
X005186Y007208D01*
X005264Y007130D02*
X005536Y007130D01*
X005480Y007051D02*
X005320Y007051D01*
X005320Y006973D02*
X005480Y006973D01*
X006300Y006540D02*
X006660Y006900D01*
X006900Y006900D01*
X006626Y006580D02*
X006566Y006580D01*
X006488Y006502D02*
X006705Y006502D01*
X007674Y006423D02*
X007697Y006423D01*
X008320Y006973D02*
X008480Y006973D01*
X008480Y007051D02*
X008320Y007051D01*
X008264Y007130D02*
X008536Y007130D01*
X008614Y007208D02*
X008186Y007208D01*
X008107Y007287D02*
X008693Y007287D01*
X009107Y007287D02*
X009693Y007287D01*
X009614Y007208D02*
X009186Y007208D01*
X009264Y007130D02*
X009536Y007130D01*
X009480Y007051D02*
X009320Y007051D01*
X009320Y006973D02*
X009480Y006973D01*
X010186Y007208D02*
X010614Y007208D01*
X010536Y007130D02*
X010264Y007130D01*
X010320Y007051D02*
X010480Y007051D01*
X010480Y006973D02*
X010320Y006973D01*
X010320Y006894D02*
X010480Y006894D01*
X010693Y007287D02*
X010107Y007287D01*
X011580Y006860D02*
X011860Y006860D01*
X011900Y006900D01*
X013320Y006816D02*
X013389Y006816D01*
X014264Y007130D02*
X014536Y007130D01*
X014480Y007051D02*
X014320Y007051D01*
X014320Y006973D02*
X014480Y006973D01*
X014428Y006894D02*
X014320Y006894D01*
X014320Y006816D02*
X014349Y006816D01*
X015264Y007130D02*
X015536Y007130D01*
X015480Y007051D02*
X015320Y007051D01*
X015320Y006973D02*
X015480Y006973D01*
X015614Y007208D02*
X015186Y007208D01*
X015107Y007287D02*
X015693Y007287D01*
X016107Y007287D02*
X016693Y007287D01*
X016614Y007208D02*
X016186Y007208D01*
X016264Y007130D02*
X016536Y007130D01*
X016480Y007051D02*
X016320Y007051D01*
X016320Y006973D02*
X016480Y006973D01*
X017186Y007208D02*
X017614Y007208D01*
X017536Y007130D02*
X017264Y007130D01*
X017320Y007051D02*
X017480Y007051D01*
X017480Y007074D02*
X017480Y006726D01*
X017726Y006480D01*
X018074Y006480D01*
X018320Y006726D01*
X018320Y007074D01*
X018074Y007320D01*
X017726Y007320D01*
X017480Y007074D01*
X017480Y006973D02*
X017320Y006973D01*
X017320Y006894D02*
X017480Y006894D01*
X017480Y006816D02*
X017320Y006816D01*
X017320Y006737D02*
X017480Y006737D01*
X017548Y006659D02*
X017252Y006659D01*
X017174Y006580D02*
X017626Y006580D01*
X017705Y006502D02*
X017095Y006502D01*
X018095Y006502D02*
X018705Y006502D01*
X018726Y006480D02*
X019074Y006480D01*
X019320Y006726D01*
X019320Y007074D01*
X019074Y007320D01*
X018726Y007320D01*
X018480Y007074D01*
X018480Y006726D01*
X018726Y006480D01*
X018626Y006580D02*
X018174Y006580D01*
X018252Y006659D02*
X018548Y006659D01*
X018480Y006737D02*
X018320Y006737D01*
X018320Y006816D02*
X018480Y006816D01*
X018480Y006894D02*
X018320Y006894D01*
X018320Y006973D02*
X018480Y006973D01*
X018480Y007051D02*
X018320Y007051D01*
X018264Y007130D02*
X018536Y007130D01*
X018614Y007208D02*
X018186Y007208D01*
X018107Y007287D02*
X018693Y007287D01*
X019107Y007287D02*
X019693Y007287D01*
X019726Y007320D02*
X019480Y007074D01*
X019480Y006726D01*
X019726Y006480D01*
X020074Y006480D01*
X020320Y006726D01*
X020320Y007074D01*
X020074Y007320D01*
X019726Y007320D01*
X019614Y007208D02*
X019186Y007208D01*
X019264Y007130D02*
X019536Y007130D01*
X019480Y007051D02*
X019320Y007051D01*
X019320Y006973D02*
X019480Y006973D01*
X019480Y006894D02*
X019320Y006894D01*
X019320Y006816D02*
X019480Y006816D01*
X019480Y006737D02*
X019320Y006737D01*
X019252Y006659D02*
X019548Y006659D01*
X019626Y006580D02*
X019174Y006580D01*
X019095Y006502D02*
X019705Y006502D01*
X020095Y006502D02*
X020340Y006502D01*
X020340Y006580D02*
X020174Y006580D01*
X020252Y006659D02*
X020340Y006659D01*
X020340Y006737D02*
X020320Y006737D01*
X020320Y006816D02*
X020340Y006816D01*
X020340Y006894D02*
X020320Y006894D01*
X020320Y006973D02*
X020340Y006973D01*
X020340Y007051D02*
X020320Y007051D01*
X020340Y007130D02*
X020264Y007130D01*
X020340Y007208D02*
X020186Y007208D01*
X020107Y007287D02*
X020340Y007287D01*
X017693Y007287D02*
X017107Y007287D01*
X014693Y007287D02*
X014107Y007287D01*
X014186Y007208D02*
X014614Y007208D01*
X014492Y006266D02*
X020340Y006266D01*
X020340Y006188D02*
X014414Y006188D01*
X012050Y005717D02*
X011207Y005717D01*
X011108Y005638D02*
X011972Y005638D01*
X011692Y006188D02*
X011676Y006188D01*
X011676Y006266D02*
X011692Y006266D01*
X011706Y006345D02*
X011664Y006345D01*
X010262Y004696D02*
X009420Y004696D01*
X009420Y004618D02*
X010198Y004618D01*
X010170Y004539D02*
X009420Y004539D01*
X009420Y004461D02*
X010170Y004461D01*
X010198Y004382D02*
X009420Y004382D01*
X009420Y004304D02*
X010190Y004304D01*
X010145Y004225D02*
X010082Y004225D01*
X009958Y004225D02*
X009420Y004225D01*
X009420Y004147D02*
X009833Y004147D01*
X009786Y004068D02*
X009420Y004068D01*
X009420Y003990D02*
X009770Y003990D01*
X009778Y003911D02*
X009420Y003911D01*
X009420Y003833D02*
X009814Y003833D01*
X009912Y003754D02*
X009420Y003754D01*
X009420Y003676D02*
X010101Y003676D01*
X010180Y003597D02*
X009469Y003597D01*
X009548Y003519D02*
X010260Y003519D01*
X010339Y003440D02*
X009580Y003440D01*
X009580Y003362D02*
X011211Y003362D01*
X011211Y003283D02*
X009591Y003283D01*
X010020Y003980D02*
X010423Y003583D01*
X011626Y003583D01*
X011626Y003386D02*
X011626Y003380D01*
X012880Y003380D01*
X012751Y003597D02*
X012041Y003597D01*
X011626Y003779D02*
X010741Y003779D01*
X010380Y004140D01*
X010420Y004500D02*
X010944Y003976D01*
X011626Y003976D01*
X013397Y003727D02*
X013397Y002657D01*
X012700Y002700D01*
X012211Y003189D01*
X011626Y003189D01*
X012422Y003205D02*
X012702Y003205D01*
X013852Y003597D02*
X013888Y003597D01*
X013888Y003676D02*
X013852Y003676D01*
X013852Y003754D02*
X013888Y003754D01*
X013888Y003833D02*
X013852Y003833D01*
X013852Y003911D02*
X013888Y003911D01*
X013888Y003990D02*
X013852Y003990D01*
X013852Y004068D02*
X013888Y004068D01*
X013916Y004147D02*
X013824Y004147D01*
X014180Y004280D02*
X014180Y003781D01*
X014541Y003754D02*
X014549Y003754D01*
X014541Y003676D02*
X014549Y003676D01*
X014541Y003597D02*
X014575Y003597D01*
X013526Y003856D02*
X013397Y003727D01*
X014448Y003126D02*
X014642Y003126D01*
X014610Y003048D02*
X014517Y003048D01*
X014517Y002969D02*
X014610Y002969D01*
X014635Y002891D02*
X014517Y002891D01*
X014517Y002812D02*
X014694Y002812D01*
X014517Y002734D02*
X014896Y002734D01*
X014972Y002655D02*
X014517Y002655D01*
X014517Y002577D02*
X015048Y002577D01*
X015125Y002498D02*
X014517Y002498D01*
X014517Y002420D02*
X015201Y002420D01*
X015277Y002341D02*
X014517Y002341D01*
X014517Y002263D02*
X015353Y002263D01*
X015430Y002184D02*
X012442Y002184D01*
X012521Y002106D02*
X015506Y002106D01*
X015582Y002027D02*
X012599Y002027D01*
X012678Y001949D02*
X015658Y001949D01*
X015735Y001870D02*
X012756Y001870D01*
X012700Y001700D02*
X014000Y001700D01*
X014800Y000900D01*
X014900Y000900D01*
X014480Y000928D02*
X014320Y000928D01*
X014320Y000850D02*
X014480Y000850D01*
X014480Y000771D02*
X014320Y000771D01*
X014286Y000693D02*
X014514Y000693D01*
X014467Y001007D02*
X014320Y001007D01*
X014309Y001085D02*
X014389Y001085D01*
X017152Y001242D02*
X017648Y001242D01*
X017726Y001320D02*
X017480Y001074D01*
X017480Y000726D01*
X017726Y000480D01*
X018074Y000480D01*
X018320Y000726D01*
X018320Y001074D01*
X018074Y001320D01*
X017726Y001320D01*
X017570Y001164D02*
X017230Y001164D01*
X017309Y001085D02*
X017491Y001085D01*
X017480Y001007D02*
X017320Y001007D01*
X017320Y000928D02*
X017480Y000928D01*
X017480Y000850D02*
X017320Y000850D01*
X017320Y000771D02*
X017480Y000771D01*
X017514Y000693D02*
X017286Y000693D01*
X017208Y000614D02*
X017592Y000614D01*
X017671Y000536D02*
X017129Y000536D01*
X018129Y000536D02*
X018671Y000536D01*
X018592Y000614D02*
X018208Y000614D01*
X018286Y000693D02*
X018514Y000693D01*
X018480Y000771D02*
X018320Y000771D01*
X018320Y000850D02*
X018480Y000850D01*
X018480Y000928D02*
X018320Y000928D01*
X018320Y001007D02*
X018480Y001007D01*
X018491Y001085D02*
X018309Y001085D01*
X018230Y001164D02*
X018570Y001164D01*
X018648Y001242D02*
X018152Y001242D01*
X019900Y000900D02*
X019940Y000940D01*
X019940Y001701D01*
X019980Y002034D02*
X020175Y002034D01*
X020210Y002043D01*
X020242Y002062D01*
X020268Y002088D01*
X020287Y002120D01*
X020296Y002155D01*
X020296Y002331D01*
X019980Y002331D01*
X019980Y002411D01*
X019900Y002411D01*
X019900Y002707D01*
X019705Y002707D01*
X019669Y002698D01*
X019637Y002680D01*
X019611Y002653D01*
X019593Y002622D01*
X019583Y002586D01*
X019583Y002411D01*
X019900Y002411D01*
X019900Y002331D01*
X019980Y002331D01*
X019980Y002034D01*
X019980Y002106D02*
X019900Y002106D01*
X019900Y002184D02*
X019980Y002184D01*
X019980Y002263D02*
X019900Y002263D01*
X019900Y002341D02*
X018317Y002341D01*
X018317Y002263D02*
X019583Y002263D01*
X019583Y002420D02*
X018317Y002420D01*
X018317Y002498D02*
X019583Y002498D01*
X019583Y002577D02*
X018317Y002577D01*
X018317Y002655D02*
X019613Y002655D01*
X019900Y002655D02*
X019980Y002655D01*
X019980Y002707D02*
X019980Y002411D01*
X020296Y002411D01*
X020296Y002586D01*
X020287Y002622D01*
X020268Y002653D01*
X020242Y002680D01*
X020210Y002698D01*
X020175Y002707D01*
X019980Y002707D01*
X020267Y002655D02*
X020340Y002655D01*
X020340Y002577D02*
X020296Y002577D01*
X020296Y002498D02*
X020340Y002498D01*
X020340Y002420D02*
X020296Y002420D01*
X020340Y002341D02*
X019980Y002341D01*
X019980Y002420D02*
X019900Y002420D01*
X019900Y002498D02*
X019980Y002498D01*
X019980Y002577D02*
X019900Y002577D01*
X020340Y002734D02*
X018317Y002734D01*
X018317Y002812D02*
X020340Y002812D01*
X020340Y002891D02*
X018317Y002891D01*
X018317Y002969D02*
X020340Y002969D01*
X020340Y003048D02*
X018317Y003048D01*
X018248Y003126D02*
X020340Y003126D01*
X020340Y002263D02*
X020296Y002263D01*
X020296Y002184D02*
X020340Y002184D01*
X020340Y002106D02*
X020278Y002106D01*
X017197Y002657D02*
X016700Y002600D01*
X016600Y002600D01*
X014300Y002754D02*
X013397Y002657D01*
X011211Y002498D02*
X010640Y002498D01*
X010640Y002420D02*
X011211Y002420D01*
X011211Y002341D02*
X010607Y002341D01*
X010529Y002263D02*
X010716Y002263D01*
X010638Y002184D02*
X010450Y002184D01*
X010372Y002106D02*
X010559Y002106D01*
X011022Y001949D02*
X011059Y001949D01*
X011049Y001870D02*
X011028Y001870D01*
X011028Y001792D02*
X011049Y001792D01*
X008900Y000900D02*
X008476Y001244D01*
X008476Y001614D01*
X008280Y001614D02*
X008280Y001200D01*
X008380Y001100D01*
X008380Y000620D01*
X008240Y000470D01*
X007330Y000470D01*
X006900Y000900D01*
X007320Y000928D02*
X007480Y000928D01*
X007480Y000850D02*
X007320Y000850D01*
X007320Y000771D02*
X007480Y000771D01*
X007514Y000693D02*
X007334Y000693D01*
X007886Y000914D02*
X007900Y000900D01*
X007886Y000914D02*
X007886Y001614D01*
X007717Y001635D02*
X007651Y001635D01*
X007651Y001556D02*
X007717Y001556D01*
X007717Y001478D02*
X007644Y001478D01*
X007648Y001242D02*
X007152Y001242D01*
X007230Y001164D02*
X007570Y001164D01*
X007491Y001085D02*
X007309Y001085D01*
X007320Y001007D02*
X007480Y001007D01*
X007344Y001792D02*
X007264Y001792D01*
X007264Y001870D02*
X007344Y001870D01*
X007344Y001949D02*
X007264Y001949D01*
X007264Y002027D02*
X007344Y002027D01*
X007098Y002263D02*
X007099Y002263D01*
X007098Y002341D02*
X007099Y002341D01*
X007099Y003386D02*
X005915Y003386D01*
X005610Y003690D01*
X004166Y005324D02*
X004102Y005324D01*
X004060Y005403D02*
X004166Y005403D01*
X004166Y005481D02*
X004060Y005481D01*
X004060Y005560D02*
X004166Y005560D01*
X004223Y005638D02*
X004060Y005638D01*
X004060Y005717D02*
X004208Y005717D01*
X004166Y005795D02*
X004060Y005795D01*
X004060Y005874D02*
X004166Y005874D01*
X004166Y005952D02*
X004060Y005952D01*
X001480Y006973D02*
X001320Y006973D01*
X001320Y007051D02*
X001480Y007051D01*
X001536Y007130D02*
X001264Y007130D01*
X017320Y004320D02*
X017320Y003816D01*
X017301Y003877D01*
D21*
X017320Y004320D03*
X015580Y004320D03*
X014180Y004280D03*
X012880Y003380D03*
X014860Y003000D03*
X015980Y003220D03*
X011740Y002060D03*
X009900Y002260D03*
X009540Y002300D03*
X009340Y002580D03*
X008780Y002460D03*
X008580Y002140D03*
X008020Y002140D03*
X006340Y002300D03*
X007740Y002860D03*
X008140Y003100D03*
X009100Y003340D03*
X009420Y003100D03*
X010480Y002980D03*
X010020Y003980D03*
X010380Y004140D03*
X010420Y004500D03*
X010820Y004500D03*
X010780Y004860D03*
X010700Y005580D03*
X008700Y005500D03*
X008060Y005500D03*
X006700Y005660D03*
X004540Y006460D03*
X004780Y004860D03*
X005900Y004860D03*
X007700Y004740D03*
D22*
X002411Y002280D02*
X002411Y001411D01*
X001900Y000900D01*
M02*
